<svg width="90" height="29" viewBox="0 0 90 29" fill="none" xmlns="http://www.w3.org/2000/svg">
<g clip-path="url(#clip0_31_788)">
<path d="M89.8801 16.9799C89.1001 11.7099 83.4901 9.20991 81.8301 8.46991C79.524 7.44682 77.0227 6.93837 74.5001 6.97991C60.0001 7.18991 38.3201 21.2599 26.7301 21.9799C24.1813 22.1971 21.6243 21.669 19.3701 20.4599C17.4901 19.4932 15.9974 17.9123 15.1401 15.9799C14.8874 15.3384 14.7226 14.6656 14.6501 13.9799C15.8903 13.604 17.1088 13.16 18.3001 12.6499C21.9501 11.0899 29.1701 6.91991 25.6501 1.97991C22.6501 -2.22009 17.5601 1.18991 15.2601 4.22991C13.7981 6.24319 12.8662 8.59196 12.5501 11.0599C11.6201 11.2999 10.6801 11.5199 9.74012 11.6799C8.12297 12.0948 6.42727 12.0948 4.81012 11.6799C3.92 11.4461 3.12376 10.9432 2.53012 10.2399C2.20432 9.84557 1.9648 9.38731 1.827 8.8947C1.68921 8.40209 1.65621 7.88606 1.73012 7.37991C2.07012 5.90991 3.73012 4.87991 3.54012 4.25991C3.52829 4.19532 3.50247 4.13409 3.46446 4.08054C3.42645 4.02699 3.37719 3.9824 3.32012 3.94991C3.23615 3.92457 3.14753 3.91861 3.06093 3.93247C2.97432 3.94632 2.89199 3.97964 2.82012 4.02991C-1.17988 6.20991 -0.699881 10.7899 2.75012 13.2599C5.52012 15.2599 9.12012 15.2599 12.5401 14.5599C12.7669 16.0551 13.3052 17.486 14.1201 18.7599C15.2506 20.4648 16.8233 21.8302 18.6701 22.7099C21.2182 23.9568 24.0503 24.5087 26.8801 24.3099C40.0101 23.4999 68.4901 3.97991 81.2601 10.9799C81.8801 11.3199 86.1901 13.6799 86.4201 17.4499C86.4754 18.9007 86.098 20.3352 85.3359 21.571C84.5737 22.8068 83.4614 23.788 82.1401 24.3899C80.3002 25.0941 78.3373 25.4206 76.3684 25.3502C74.3996 25.2798 72.4651 24.8137 70.6801 23.9799C70.4641 23.8673 70.2221 23.8143 69.9788 23.8264C69.7355 23.8385 69.4999 23.9152 69.2962 24.0487C69.0924 24.1822 68.9279 24.3675 68.8196 24.5857C68.7114 24.8038 68.6632 25.0469 68.6801 25.2899C68.7346 25.566 68.8745 25.8179 69.0801 26.0099C70.1701 27.0099 80.5201 31.7099 86.6301 25.6399C87.0801 25.2399 90.5701 21.6699 89.8801 16.9799ZM17.2701 4.89991C17.6701 4.44991 19.5801 2.31991 21.7601 2.43991C22.2844 2.43542 22.7913 2.62816 23.1801 2.97991C23.3835 3.23411 23.5299 3.5291 23.6093 3.84485C23.6886 4.1606 23.6992 4.48974 23.6401 4.80991C23.5501 5.37991 23.1601 6.40991 19.0001 8.50991C17.6626 9.18736 16.2907 9.79485 14.8901 10.3299C15.1076 8.31861 15.9385 6.42289 17.2701 4.89991Z" fill="white"/>
</g>
<defs>
<clipPath id="clip0_31_788">
<rect width="89.96" height="28.69" fill="white"/>
</clipPath>
</defs>
</svg>
