<svg width="90" height="29" viewBox="0 0 90 29" fill="none" xmlns="http://www.w3.org/2000/svg">
<g clip-path="url(#clip0_31_656)">
<path d="M89.8801 16.98C89.1001 11.71 83.4901 9.21003 81.8301 8.47003C79.524 7.44694 77.0227 6.93849 74.5001 6.98003C60.0001 7.19003 38.3201 21.26 26.7301 21.98C24.1813 22.1972 21.6243 21.6691 19.3701 20.46C17.4901 19.4933 15.9974 17.9124 15.1401 15.98C14.8874 15.3385 14.7226 14.6657 14.6501 13.98C15.8903 13.6041 17.1088 13.1601 18.3001 12.65C21.9501 11.09 29.1701 6.92003 25.6501 1.98003C22.6501 -2.21997 17.5601 1.19003 15.2601 4.23003C13.7981 6.24332 12.8662 8.59208 12.5501 11.06C11.6201 11.3 10.6801 11.52 9.74012 11.68C8.12297 12.0949 6.42727 12.0949 4.81012 11.68C3.92 11.4462 3.12376 10.9433 2.53012 10.24C2.20432 9.84569 1.9648 9.38743 1.827 8.89482C1.68921 8.40221 1.65621 7.88619 1.73012 7.38003C2.07012 5.91003 3.73012 4.88003 3.54012 4.26003C3.52829 4.19544 3.50247 4.13422 3.46446 4.08066C3.42645 4.02711 3.37719 3.98252 3.32012 3.95003C3.23615 3.9247 3.14753 3.91873 3.06093 3.93259C2.97432 3.94645 2.89199 3.97976 2.82012 4.03003C-1.17988 6.21003 -0.699881 10.79 2.75012 13.26C5.52012 15.26 9.12012 15.26 12.5401 14.56C12.7669 16.0552 13.3052 17.4861 14.1201 18.76C15.2506 20.4649 16.8233 21.8303 18.6701 22.71C21.2182 23.9569 24.0503 24.5088 26.8801 24.31C40.0101 23.5 68.4901 3.98003 81.2601 10.98C81.8801 11.32 86.1901 13.68 86.4201 17.45C86.4754 18.9009 86.098 20.3354 85.3359 21.5711C84.5737 22.8069 83.4614 23.7881 82.1401 24.39C80.3002 25.0942 78.3373 25.4208 76.3684 25.3503C74.3996 25.2799 72.4651 24.8139 70.6801 23.98C70.4641 23.8674 70.2221 23.8145 69.9788 23.8266C69.7355 23.8386 69.4999 23.9154 69.2962 24.0488C69.0924 24.1823 68.9279 24.3676 68.8196 24.5858C68.7114 24.804 68.6632 25.0471 68.6801 25.29C68.7346 25.5661 68.8745 25.818 69.0801 26.01C70.1701 27.01 80.5201 31.71 86.6301 25.64C87.0801 25.24 90.5701 21.67 89.8801 16.98ZM17.2701 4.90003C17.6701 4.45003 19.5801 2.32003 21.7601 2.44003C22.2844 2.43554 22.7913 2.62828 23.1801 2.98003C23.3835 3.23423 23.5299 3.52922 23.6093 3.84497C23.6886 4.16073 23.6992 4.48986 23.6401 4.81003C23.5501 5.38003 23.1601 6.41003 19.0001 8.51003C17.6626 9.18748 16.2907 9.79497 14.8901 10.33C15.1076 8.31874 15.9385 6.42302 17.2701 4.90003Z" fill="#010101"/>
</g>
<defs>
<clipPath id="clip0_31_656">
<rect width="89.96" height="28.69" fill="white"/>
</clipPath>
</defs>
</svg>
