<svg width="153" height="38" viewBox="0 0 153 38" fill="none" xmlns="http://www.w3.org/2000/svg">
<g clip-path="url(#clip0_31_770)">
<path d="M8.34991 33.0899C13.9599 37.1399 20.2599 37.2799 23.7799 37.3599C25.8818 37.3876 27.9824 37.2404 30.0599 36.9199C39.5799 35.6499 49.0599 33.0499 58.1599 30.5399C63.7999 28.9799 69.6399 27.3799 75.4199 26.0999L77.5599 25.6399C80.2133 27.892 83.1855 29.7387 86.3799 31.1199C91.4499 33.2799 99.4499 35.0299 105.3 32.8599C107.46 32.0599 109.97 29.9199 110.3 27.5399C110.403 26.8369 110.308 26.1191 110.025 25.4673C109.742 24.8154 109.283 24.2553 108.7 23.8499C104.5 20.4799 96.5599 20.9099 92.6999 21.1099C87.7382 21.4026 82.8029 22.0408 77.9299 23.0199C76.3189 21.6934 74.8899 20.1602 73.6799 18.4599C75.5297 17.9265 77.2241 16.9559 78.6199 15.6299C79.3678 14.9062 79.8609 13.9594 80.0249 12.9316C80.189 11.9038 80.0153 10.8506 79.5299 9.92992C79.0353 9.14645 78.287 8.55626 77.4098 8.25781C76.5327 7.95936 75.5797 7.97069 74.7099 8.28992C70.7099 9.34992 69.9799 13.1999 70.5499 16.2299C64.2099 17.4899 58.3399 15.7299 56.8699 12.1099C56.5644 11.3025 56.4332 10.4396 56.4849 9.57782C56.5366 8.71608 56.7701 7.87503 57.1699 7.10992C58.9099 3.89992 63.3699 3.36992 65.2799 3.10992C73.8599 2.10992 84.7699 6.92992 95.3299 11.6099C97.3899 12.5199 99.5199 13.4699 101.57 14.3399C113.86 19.5699 125.94 24.1099 138.46 22.3899C141.93 21.9099 149.1 19.8999 151.39 15.7399C151.839 14.9181 152.079 13.9987 152.089 13.0624C152.1 12.1261 151.88 11.2015 151.45 10.3699C151.004 9.21969 150.209 8.23868 149.175 7.5657C148.141 6.89271 146.922 6.56185 145.69 6.61992C144.245 6.7233 142.863 7.25378 141.72 8.14402C140.577 9.03426 139.724 10.2441 139.27 11.6199C139.177 11.8563 139.156 12.1144 139.207 12.363C139.259 12.6115 139.381 12.8397 139.56 13.0199C139.786 13.2495 140.069 13.4155 140.379 13.5015C140.69 13.5875 141.018 13.5904 141.33 13.5099C141.582 13.4497 141.81 13.3174 141.988 13.1291C142.166 12.9408 142.284 12.7047 142.33 12.4499C142.82 10.1199 144.22 9.54992 145.01 9.44992C145.719 9.35813 146.439 9.47248 147.084 9.77928C147.73 10.0861 148.273 10.5724 148.65 11.1799C149.032 11.8988 149.18 12.7192 149.072 13.5262C148.965 14.3332 148.607 15.0863 148.05 15.6799C146.4 17.8699 143.25 18.8699 140.38 19.4699C136.148 20.318 131.802 20.4364 127.53 19.8199C121.354 19.005 115.32 17.3392 109.6 14.8699C104.75 12.8699 98.3699 10.0999 92.0499 7.02992L91.2999 6.65992C86.8199 4.51992 82.1799 2.25992 77.2199 1.15992C73.6999 0.389918 55.9999 -2.98008 52.3699 7.15992C51.2199 10.3599 51.5999 13.0799 53.4999 15.2499C57.1699 19.4599 65.5499 20.3599 71.6099 19.0899C71.8969 19.6225 72.2316 20.1279 72.6099 20.5999C73.4601 21.6497 74.3682 22.6512 75.3299 23.5999C69.2299 24.8999 63.0999 26.5999 57.1699 28.1599C51.8799 29.5399 50.5999 29.8699 48.7299 30.3799C33.9499 34.1999 20.4799 37.6799 11.4899 31.3799C7.55991 28.6199 3.62991 23.3799 3.78991 17.6299C3.84975 15.1533 4.64708 12.7509 6.07991 10.7299C9.22991 6.36992 14.5199 5.26992 18.0799 5.64992C21.6399 6.02992 25.8799 7.97992 26.7799 10.8099C27.0187 11.5867 27.1268 12.3977 27.0999 13.2099C27.0036 13.987 26.8017 14.7474 26.4999 15.4699C26.2199 16.2099 26.0199 16.7399 26.3499 17.0599C26.4513 17.1584 26.5761 17.2295 26.7126 17.2662C26.8491 17.303 26.9928 17.3042 27.1299 17.2699C27.2784 17.2082 27.3993 17.0944 27.4699 16.9499C29.4699 12.9499 28.9899 9.31992 26.0399 6.63992C21.5999 2.63992 12.5899 1.79992 7.50991 5.00992C5.00977 6.63492 2.99737 8.9078 1.68716 11.5864C0.376938 14.2649 -0.182 17.2487 0.0699068 20.2199C0.729907 27.5999 6.47991 31.7399 8.34991 33.0899ZM97.0199 23.3099C99.7324 23.3167 102.429 23.7279 105.02 24.5299C105.654 24.7029 106.229 25.0474 106.68 25.5254C107.132 26.0035 107.443 26.5967 107.58 27.2399C107.619 27.7998 107.494 28.359 107.221 28.8491C106.947 29.3392 106.537 29.7391 106.04 29.9999C104.125 31.0568 101.955 31.5622 99.7699 31.4599C92.7874 31.5582 85.9762 29.296 80.4399 25.0399C85.8869 23.8604 91.4467 23.2803 97.0199 23.3099ZM72.7999 13.3099C73.1399 12.3099 74.1999 10.3999 75.7999 10.3699C76.2174 10.3464 76.6331 10.4397 77.0005 10.6393C77.3679 10.8389 77.6724 11.1369 77.8799 11.4999C77.9782 11.7814 78.0182 12.0798 77.9976 12.3772C77.9769 12.6746 77.8961 12.9647 77.7599 13.2299C77.4416 13.819 77.0029 14.3345 76.4722 14.7428C75.9416 15.1511 75.3309 15.4432 74.6799 15.5999C74.0334 15.8089 73.3593 15.9202 72.6799 15.9299C72.4827 15.0484 72.5241 14.1301 72.7999 13.2699V13.3099Z" fill="#010101"/>
</g>
<defs>
<clipPath id="clip0_31_770">
<rect width="152.18" height="37.37" fill="white"/>
</clipPath>
</defs>
</svg>
