<svg width="181" height="182" viewBox="0 0 181 182" fill="none" xmlns="http://www.w3.org/2000/svg">
<path d="M170.865 124.351C170.315 128.092 171.654 131.932 169.916 135.623C170.026 139.354 167.558 141.309 164.662 142.696C156.791 146.346 151.787 152.411 148.761 160.382C146.613 166.068 142.118 168.841 136.335 168.751C128.495 168.631 122.412 171.803 117.138 177.18C112.324 182.088 106.79 183.305 100.398 180.492C97.321 179.067 93.9705 178.329 90.5793 178.329C87.188 178.329 83.8375 179.067 80.7608 180.492C74.1786 183.414 68.5752 182.008 63.681 176.98C58.5171 171.783 52.5141 168.631 44.8632 168.791C38.7803 168.93 34.3256 165.718 31.9883 160.182C28.9273 152.55 23.0851 146.359 15.6376 142.855C14.3737 142.223 13.2598 141.328 12.3709 140.23C11.482 139.133 10.8385 137.858 10.4837 136.491L10.2939 125.279C9.7025 119.984 7.53496 114.987 4.07127 110.934C2.01528 108.565 0.650523 105.677 0.125918 102.585C-0.326447 98.9948 0.447806 95.357 2.32333 92.2608C4.02362 89.5095 5.11144 86.4251 5.51299 83.2169C5.91454 80.0086 5.62042 76.7517 4.65058 73.667C2.20347 65.8165 3.95141 59.7815 10.9631 54.8837C16.4766 51.0332 18.9537 44.9085 19.7528 38.3148C20.7017 31.2623 23.4784 28.0304 30.3403 26.3446C37.7216 24.5191 43.4548 20.6587 47.3203 14.0252C50.5864 8.42906 55.2609 6.04499 61.9031 7.31184C69.2444 8.75825 76.2462 7.66097 82.4588 2.99257C87.7726 -0.997522 93.2161 -0.997522 98.5299 2.99257C104.882 7.7308 112.024 8.67844 119.505 7.26196C125.568 6.09486 130.133 8.20961 133.119 13.2471C135.046 16.6677 137.694 19.6298 140.879 21.929C144.064 24.2282 147.711 25.8096 151.567 26.564C157.221 27.8109 160.557 31.6713 161.156 37.4171C161.995 45.3374 165.261 51.7914 171.823 56.4598C177.117 60.2503 178.635 65.4375 176.818 71.4226C174.49 79.2432 175.04 86.5849 179.295 93.5676C181.023 96.4105 181.192 99.4929 180.863 102.665C180.533 105.837 178.865 108.191 177.127 110.575C174.091 114.645 171.664 119.154 170.865 124.351Z" fill="#F18956"/>
</svg>
