<svg width="1920" height="80" viewBox="0 0 1920 80" fill="none" xmlns="http://www.w3.org/2000/svg">
<g clip-path="url(#clip0_31_793)">
<path d="M0 40.0002L12.8 41.0002C25.7 42.0002 51.3 44.0002 77 48.3002C102.7 52.7002 128.3 59.3002 153.8 63.3002C179.3 67.3002 204.7 68.7002 230.2 68.2002C255.7 67.7002 281.3 65.3002 307 57.0002C332.7 48.7002 358.3 34.3002 384 36.0002C409.7 37.7002 435.3 55.3002 461 60.7002C486.7 66.0002 512.3 59.0002 537.8 49.7002C563.3 40.3002 588.7 28.7002 614.2 23.3002C639.7 18.0002 665.3 19.0002 691 19.5002C716.7 20.0002 742.3 20.0002 768 25.0002C793.7 30.0002 819.3 40.0002 845 44.5002C870.7 49.0002 896.3 48.0002 921.8 42.3002C947.3 36.7002 972.7 26.3002 998.2 25.0002C1023.7 23.7002 1049.3 31.3002 1075 40.7002C1100.7 50.0002 1126.3 61.0002 1152 56.3002C1177.7 51.7002 1203.3 31.3002 1229 30.5002C1254.7 29.7002 1280.3 48.3002 1305.8 55.3002C1331.3 62.3002 1356.7 57.7002 1382.2 53.2002C1407.7 48.7002 1433.3 44.3002 1459 45.7002C1484.7 47.0002 1510.3 54.0002 1536 54.3002C1561.7 54.7002 1587.3 48.3002 1613 40.7002C1638.7 33.0002 1664.3 24.0002 1689.8 28.8002C1715.3 33.7002 1740.7 52.3002 1766.2 59.3002C1791.7 66.3002 1817.3 61.7002 1843 55.2002C1868.7 48.7002 1894.3 40.3002 1907.2 36.2002L1920 32.0002V-0.999779H1907.2C1894.3 -0.999779 1868.7 -0.999779 1843 -0.999779C1817.3 -0.999779 1791.7 -0.999779 1766.2 -0.999779C1740.7 -0.999779 1715.3 -0.999779 1689.8 -0.999779C1664.3 -0.999779 1638.7 -0.999779 1613 -0.999779C1587.3 -0.999779 1561.7 -0.999779 1536 -0.999779C1510.3 -0.999779 1484.7 -0.999779 1459 -0.999779C1433.3 -0.999779 1407.7 -0.999779 1382.2 -0.999779C1356.7 -0.999779 1331.3 -0.999779 1305.8 -0.999779C1280.3 -0.999779 1254.7 -0.999779 1229 -0.999779C1203.3 -0.999779 1177.7 -0.999779 1152 -0.999779C1126.3 -0.999779 1100.7 -0.999779 1075 -0.999779C1049.3 -0.999779 1023.7 -0.999779 998.2 -0.999779C972.7 -0.999779 947.3 -0.999779 921.8 -0.999779C896.3 -0.999779 870.7 -0.999779 845 -0.999779C819.3 -0.999779 793.7 -0.999779 768 -0.999779C742.3 -0.999779 716.7 -0.999779 691 -0.999779C665.3 -0.999779 639.7 -0.999779 614.2 -0.999779C588.7 -0.999779 563.3 -0.999779 537.8 -0.999779C512.3 -0.999779 486.7 -0.999779 461 -0.999779C435.3 -0.999779 409.7 -0.999779 384 -0.999779C358.3 -0.999779 332.7 -0.999779 307 -0.999779C281.3 -0.999779 255.7 -0.999779 230.2 -0.999779C204.7 -0.999779 179.3 -0.999779 153.8 -0.999779C128.3 -0.999779 102.7 -0.999779 77 -0.999779C51.3 -0.999779 25.7 -0.999779 12.8 -0.999779H0V40.0002Z" fill="white"/>
</g>
<defs>
<clipPath id="clip0_31_793">
<rect width="1920" height="80" fill="white" transform="matrix(1 0 0 -1 0 80)"/>
</clipPath>
</defs>
</svg>
