<svg width="1920" height="80" viewBox="0 0 1920 80" fill="none" xmlns="http://www.w3.org/2000/svg">
<g clip-path="url(#clip0_31_886)">
<path d="M0 54.0002L10.7 54.5002C21.3 55.0002 42.7 56.0002 64 56.3002C85.3 56.7002 106.7 56.3002 128 48.2002C149.3 40.0002 170.7 24.0002 192 19.0002C213.3 14.0002 234.7 20.0002 256 29.0002C277.3 38.0002 298.7 50.0002 320 47.7002C341.3 45.3002 362.7 28.7002 384 26.7002C405.3 24.7002 426.7 37.3002 448 40.0002C469.3 42.7002 490.7 35.3002 512 28.3002C533.3 21.3002 554.7 14.7002 576 11.5002C597.3 8.3002 618.7 8.7002 640 16.0002C661.3 23.3002 682.7 37.7002 704 37.5002C725.3 37.3002 746.7 22.7002 768 20.8002C789.3 19.0002 810.7 30.0002 832 40.2002C853.3 50.3002 874.7 59.7002 896 61.7002C917.3 63.7002 938.7 58.3002 960 56.5002C981.3 54.7002 1002.7 56.3002 1024 58.5002C1045.3 60.7002 1066.7 63.3002 1088 56.7002C1109.3 50.0002 1130.7 34.0002 1152 30.8002C1173.3 27.7002 1194.7 37.3002 1216 45.7002C1237.3 54.0002 1258.7 61.0002 1280 57.0002C1301.3 53.0002 1322.7 38.0002 1344 36.2002C1365.3 34.3002 1386.7 45.7002 1408 51.7002C1429.3 57.7002 1450.7 58.3002 1472 55.0002C1493.3 51.7002 1514.7 44.3002 1536 45.5002C1557.3 46.7002 1578.7 56.3002 1600 60.0002C1621.3 63.7002 1642.7 61.3002 1664 54.7002C1685.3 48.0002 1706.7 37.0002 1728 32.8002C1749.3 28.7002 1770.7 31.3002 1792 37.7002C1813.3 44.0002 1834.7 54.0002 1856 55.5002C1877.3 57.0002 1898.7 50.0002 1909.3 46.5002L1920 43.0002V81.0002H1909.3C1898.7 81.0002 1877.3 81.0002 1856 81.0002C1834.7 81.0002 1813.3 81.0002 1792 81.0002C1770.7 81.0002 1749.3 81.0002 1728 81.0002C1706.7 81.0002 1685.3 81.0002 1664 81.0002C1642.7 81.0002 1621.3 81.0002 1600 81.0002C1578.7 81.0002 1557.3 81.0002 1536 81.0002C1514.7 81.0002 1493.3 81.0002 1472 81.0002C1450.7 81.0002 1429.3 81.0002 1408 81.0002C1386.7 81.0002 1365.3 81.0002 1344 81.0002C1322.7 81.0002 1301.3 81.0002 1280 81.0002C1258.7 81.0002 1237.3 81.0002 1216 81.0002C1194.7 81.0002 1173.3 81.0002 1152 81.0002C1130.7 81.0002 1109.3 81.0002 1088 81.0002C1066.7 81.0002 1045.3 81.0002 1024 81.0002C1002.7 81.0002 981.3 81.0002 960 81.0002C938.7 81.0002 917.3 81.0002 896 81.0002C874.7 81.0002 853.3 81.0002 832 81.0002C810.7 81.0002 789.3 81.0002 768 81.0002C746.7 81.0002 725.3 81.0002 704 81.0002C682.7 81.0002 661.3 81.0002 640 81.0002C618.7 81.0002 597.3 81.0002 576 81.0002C554.7 81.0002 533.3 81.0002 512 81.0002C490.7 81.0002 469.3 81.0002 448 81.0002C426.7 81.0002 405.3 81.0002 384 81.0002C362.7 81.0002 341.3 81.0002 320 81.0002C298.7 81.0002 277.3 81.0002 256 81.0002C234.7 81.0002 213.3 81.0002 192 81.0002C170.7 81.0002 149.3 81.0002 128 81.0002C106.7 81.0002 85.3 81.0002 64 81.0002C42.7 81.0002 21.3 81.0002 10.7 81.0002H0V54.0002Z" fill="#4B4342"/>
</g>
<defs>
<clipPath id="clip0_31_886">
<rect width="1920" height="80" fill="white"/>
</clipPath>
</defs>
</svg>
