<svg width="1920" height="90" viewBox="0 0 1920 90" fill="none" xmlns="http://www.w3.org/2000/svg">
<g clip-path="url(#clip0_31_721)">
<path d="M0 20.9999L12.8 27.6999C25.7 34.2999 51.3 47.6999 77 50.9999C102.7 54.2999 128.3 47.6999 153.8 42.7999C179.3 37.9999 204.7 34.9999 230.2 39.2999C255.7 43.6999 281.3 55.2999 307 62.2999C332.7 69.2999 358.3 71.6999 384 67.7999C409.7 63.9999 435.3 53.9999 461 53.1999C486.7 52.2999 512.3 60.6999 537.8 65.1999C563.3 69.6999 588.7 70.2999 614.2 67.4999C639.7 64.6999 665.3 58.2999 691 54.6999C716.7 50.9999 742.3 49.9999 768 52.9999C793.7 55.9999 819.3 62.9999 845 65.4999C870.7 67.9999 896.3 65.9999 921.8 66.4999C947.3 66.9999 972.7 69.9999 998.2 72.2999C1023.7 74.6999 1049.3 76.2999 1075 74.1999C1100.7 71.9999 1126.3 65.9999 1152 59.1999C1177.7 52.2999 1203.3 44.6999 1229 44.7999C1254.7 44.9999 1280.3 52.9999 1305.8 57.1999C1331.3 61.2999 1356.7 61.6999 1382.2 59.1999C1407.7 56.6999 1433.3 51.2999 1459 52.7999C1484.7 54.2999 1510.3 62.6999 1536 67.4999C1561.7 72.2999 1587.3 73.6999 1613 65.9999C1638.7 58.2999 1664.3 41.6999 1689.8 40.2999C1715.3 38.9999 1740.7 52.9999 1766.2 58.9999C1791.7 64.9999 1817.3 62.9999 1843 55.1999C1868.7 47.2999 1894.3 33.6999 1907.2 26.7999L1920 19.9999V-1.00005H1907.2C1894.3 -1.00005 1868.7 -1.00005 1843 -1.00005C1817.3 -1.00005 1791.7 -1.00005 1766.2 -1.00005C1740.7 -1.00005 1715.3 -1.00005 1689.8 -1.00005C1664.3 -1.00005 1638.7 -1.00005 1613 -1.00005C1587.3 -1.00005 1561.7 -1.00005 1536 -1.00005C1510.3 -1.00005 1484.7 -1.00005 1459 -1.00005C1433.3 -1.00005 1407.7 -1.00005 1382.2 -1.00005C1356.7 -1.00005 1331.3 -1.00005 1305.8 -1.00005C1280.3 -1.00005 1254.7 -1.00005 1229 -1.00005C1203.3 -1.00005 1177.7 -1.00005 1152 -1.00005C1126.3 -1.00005 1100.7 -1.00005 1075 -1.00005C1049.3 -1.00005 1023.7 -1.00005 998.2 -1.00005C972.7 -1.00005 947.3 -1.00005 921.8 -1.00005C896.3 -1.00005 870.7 -1.00005 845 -1.00005C819.3 -1.00005 793.7 -1.00005 768 -1.00005C742.3 -1.00005 716.7 -1.00005 691 -1.00005C665.3 -1.00005 639.7 -1.00005 614.2 -1.00005C588.7 -1.00005 563.3 -1.00005 537.8 -1.00005C512.3 -1.00005 486.7 -1.00005 461 -1.00005C435.3 -1.00005 409.7 -1.00005 384 -1.00005C358.3 -1.00005 332.7 -1.00005 307 -1.00005C281.3 -1.00005 255.7 -1.00005 230.2 -1.00005C204.7 -1.00005 179.3 -1.00005 153.8 -1.00005C128.3 -1.00005 102.7 -1.00005 77 -1.00005C51.3 -1.00005 25.7 -1.00005 12.8 -1.00005H0V20.9999Z" fill="white"/>
</g>
<defs>
<clipPath id="clip0_31_721">
<rect width="1920" height="90" fill="white" transform="matrix(1 0 0 -1 0 90)"/>
</clipPath>
</defs>
</svg>
