<svg width="1920" height="80" viewBox="0 0 1920 80" fill="none" xmlns="http://www.w3.org/2000/svg">
<g clip-path="url(#clip0_31_669)">
<path d="M1920 71.1272C1910.72 73.6318 1901.57 76.7868 1892.13 78.4856C1876.82 81.1499 1861.07 80.0927 1846.29 75.4083C1836.47 72.4183 1826.57 69.5837 1816.53 67.3801C1799.78 63.7883 1783.53 66.9336 1767.36 71.467C1755.11 74.9739 1742.63 77.6468 1730 79.466C1715.73 81.4075 1702 77.6313 1688.42 73.3309C1673.19 68.4771 1657.71 63.9048 1641.48 66.3705C1630.01 68.1494 1618.69 70.8046 1607.65 74.3113C1585.88 81.4172 1562.32 81.4172 1540.55 74.3113C1529.67 70.8636 1518.54 68.2221 1507.25 66.4094C1493 64.1572 1479.25 67.7781 1465.5 71.4767C1453.39 74.7385 1441.1 77.7672 1428.68 79.4563C1414.25 81.3978 1400.29 77.7284 1386.59 73.3503C1371.37 68.4965 1355.91 64.0019 1339.66 66.3511C1329.3 67.763 1319.09 70.1028 1309.17 73.3406C1284.44 81.6697 1260.1 81.8056 1235.4 73.3406C1220.48 68.2247 1205.05 64.0019 1188.98 66.3608C1178.35 67.9237 1167.98 71.2146 1157.47 73.3988C1146.64 75.6704 1135.81 78.2041 1124.83 79.534C1111 81.2231 1097.83 77.4372 1084.74 73.36C1069.65 68.6518 1054.39 64.1087 1038.3 66.3317C1028.64 67.6616 1018.84 69.4964 1009.71 72.6805C983.2 81.922 957.11 81.9415 930.71 72.5348C916.59 67.5063 901.83 64.1281 886.71 66.39C876.226 68.1033 865.87 70.4869 855.71 73.525C842.56 77.2624 829.39 81.2231 815.57 79.534C804.543 78.197 793.63 76.0817 782.92 73.2047C767.49 69.0595 752.18 63.9922 735.92 66.4094C725.29 67.9723 714.92 71.2632 704.42 73.4959C693.59 75.7675 682.75 78.2526 671.77 79.5631C658.11 81.2037 645.04 77.5148 632.16 73.4765C616.91 68.7101 601.49 64.0407 585.24 66.39C574.593 68.0874 564.076 70.4776 553.76 73.5444C540.76 77.2042 527.76 81.2231 514.13 79.5631C502.964 78.2143 491.912 76.0893 481.06 73.2047C465.62 69.0789 450.32 63.9825 434.06 66.4094C423.43 67.9626 412.95 70.7389 402.59 73.6221C389.76 77.1945 376.95 81.2231 363.45 79.5728C352.274 78.2559 341.209 76.1667 330.34 73.3212C314.91 69.2051 299.62 64.0407 283.34 66.39C272.71 67.9238 262.25 70.7875 251.84 73.4959C240.77 76.4082 229.93 79.6214 218.21 79.8835C204.61 80.1844 191.81 77.3692 179.09 73.4085C163.84 68.6518 148.4 64.0213 132.16 66.4094C121.516 68.1151 111.005 70.525 100.7 73.6221C87.21 77.5051 73.7 81.1454 59.54 79.5922C50.4988 78.4924 41.533 76.8716 32.69 74.7385C21.76 72.2339 10.91 69.1372 0 66.3317V61.5556C13 64.9824 26 68.2538 38.92 71.8553C57.42 76.9906 75.74 76.4276 94 70.7875C108.73 66.2249 123.49 61.3129 139.06 60.8664C146.87 60.6528 154.85 62.4972 162.58 64.1669C170.5 65.8755 178.27 68.3509 186 70.7486C205.82 76.9227 225.44 76.5052 245.4 70.7486C260 66.5647 274.9 62.8661 289.95 60.7887C297.46 59.7403 305.69 62.4099 313.42 64.099C321.35 65.8463 329.13 68.2829 336.87 70.7001C356.69 76.8935 376.31 76.5246 396.28 70.7681C410.88 66.5938 425.78 62.9049 440.82 60.8081C448.34 59.7694 456.56 62.3904 464.3 64.0796C472.23 65.8075 480 68.2538 487.75 70.6807C507.56 76.8838 527.18 76.5052 547.15 70.7972C561.76 66.6326 576.66 62.9438 591.7 60.8469C599.22 59.7985 607.45 62.371 615.17 64.0601C623.26 65.8269 631.17 68.3703 639.09 70.8554C658.41 76.8062 677.59 76.5441 697.09 71.1564C711.9 67.0598 726.92 63.235 742.09 61.0799C749.78 59.9927 758.18 62.4293 766.09 64.099C774.19 65.8172 782.09 68.4091 790.02 70.8943C809.16 76.777 828.18 76.6411 847.52 71.3214C862.52 67.2054 877.67 63.3321 893.04 61.1285C900.72 60.0315 909.14 62.4293 917.04 64.1475C926.1 66.089 934.95 69.0013 943.86 71.6126C961.41 76.7479 978.86 76.4664 996.52 71.7776C1012.35 67.6131 1028.28 63.4389 1044.46 60.9925C1051.93 59.8665 1060.19 62.439 1067.91 64.1087C1076 65.8657 1083.91 68.4188 1091.83 70.904C1111.49 76.9906 1130.96 76.5926 1150.77 70.9816C1165.38 66.8365 1180.28 63.2156 1195.33 61.0702C1202.86 60.0121 1211.08 62.5361 1218.83 64.1475C1225.94 65.7444 1232.95 67.7345 1239.83 70.1079C1261.24 77.1071 1282.45 76.7868 1304.06 70.3701C1317.98 66.1189 1332.24 62.9698 1346.69 60.9537C1354.22 59.983 1362.42 62.5749 1370.15 64.2737C1378.07 66.0114 1385.84 68.4577 1393.59 70.8748C1413.25 76.9809 1432.72 76.6023 1452.53 71.0107C1467.31 66.8365 1482.36 63.1088 1497.53 60.9828C1505.04 59.9344 1513.26 62.5555 1520.98 64.2543C1529.07 66.0308 1536.98 68.5839 1544.9 71.0496C1564.23 76.9518 1583.4 76.6314 1602.9 71.2243C1617.7 67.118 1632.74 63.3224 1647.9 61.1964C1655.59 60.1286 1663.99 62.6137 1671.9 64.3028C1680 66.0308 1687.9 68.6227 1695.82 71.0399C1714.66 77.0005 1734.97 77.0175 1753.82 71.0884C1768.55 66.555 1783.27 61.4876 1798.82 61.0702C1806.82 60.8566 1814.98 62.5361 1822.82 64.3028C1833.16 66.6229 1843.25 69.9915 1853.51 72.7096C1867.88 76.5558 1883.04 76.6295 1897.45 72.9231C1905.01 71.0302 1912.45 68.6324 1919.91 66.4676L1920 71.1272Z" fill="#A75A2E"/>
<path d="M0 58.4783V0H1920V63.2739C1912.52 65.4387 1905.1 67.8267 1897.55 69.7294C1883.12 73.4398 1867.94 73.3661 1853.55 69.5158C1843.29 66.7977 1833.21 63.4292 1822.86 61.1091C1815 59.3423 1806.86 57.6629 1798.86 57.8765C1783.28 58.2939 1768.55 63.3515 1753.86 67.8947C1735.03 73.831 1714.74 73.831 1695.91 67.8947C1687.99 65.4775 1680.08 62.8856 1671.99 61.0994C1664.1 59.42 1655.7 56.9251 1647.99 58.0027C1632.78 60.1286 1617.75 63.9243 1602.99 68.0306C1583.5 73.4377 1564.32 73.758 1544.99 67.8558C1537.07 65.429 1529.16 62.8759 1521.07 61.0606C1513.35 59.3617 1505.13 56.7407 1497.62 57.7891C1482.42 59.9151 1467.36 63.6136 1452.62 67.817C1432.81 73.3989 1413.34 73.7872 1393.69 67.6714C1385.94 65.2639 1378.17 62.8176 1370.24 61.0703C1362.51 59.3811 1354.31 56.7698 1346.78 57.76C1332.33 59.7761 1318.08 62.9252 1304.16 67.1763C1282.54 73.593 1261.33 73.9134 1239.92 66.9142C1233.04 64.5407 1226.03 62.5507 1218.92 60.9538C1211.18 59.3423 1202.92 56.8183 1195.42 57.8765C1180.42 59.983 1165.47 63.6428 1150.86 67.7879C1131.05 73.3989 1111.58 73.7872 1091.92 67.7102C1084.01 65.2542 1076.09 62.7108 1068 60.9149C1060.28 59.2355 1052 56.6727 1044.55 57.7988C1028.38 60.2354 1012.44 64.4194 996.61 68.5839C978.93 73.2435 961.5 73.5445 943.95 68.4189C935 65.8852 926.1 62.9924 917 61.0314C909.12 59.3132 900.7 56.9154 893 58.0124C877.63 60.216 862.46 64.0893 847.48 68.2053C828.14 73.5251 809.12 73.661 789.98 67.7782C782.06 65.3416 774.15 62.7497 766.06 61.0314C758.17 59.3617 749.76 56.9251 742.06 58.0124C726.86 60.1675 711.84 63.9922 697.06 68.0888C677.57 73.4765 658.39 73.7289 639.06 67.7782C631.14 65.3416 623.22 62.7982 615.13 61.0314C607.41 59.3326 599.13 56.7601 591.66 57.8085C576.66 59.9151 561.72 63.6331 547.12 67.7685C527.12 73.4571 507.53 73.8551 487.71 67.6423C479.97 65.2251 472.19 62.7885 464.26 61.0508C456.53 59.3617 448.26 56.731 440.79 57.7794C425.74 59.8762 410.85 63.6039 396.24 67.7394C376.24 73.4474 356.66 73.8551 336.83 67.6714C329.09 65.2542 321.31 62.8176 313.38 61.0703C305.65 59.3811 297.38 56.7116 289.91 57.7503C274.91 59.8374 259.97 63.5748 245.37 67.7199C225.37 73.4377 205.78 73.8648 185.96 67.7199C178.21 65.3028 170.44 62.8662 162.51 61.1285C154.78 59.4685 146.79 57.6144 138.98 57.8376C123.42 58.2842 108.65 63.1962 93.92 67.7491C75.68 73.3989 57.36 73.9619 38.86 68.8072C26 65.1766 13 61.8954 0 58.4783Z" fill="white"/>
</g>
<defs>
<clipPath id="clip0_31_669">
<rect width="1920" height="80" fill="white"/>
</clipPath>
</defs>
</svg>
