<svg width="1920" height="80" viewBox="0 0 1920 80" fill="none" xmlns="http://www.w3.org/2000/svg">
<g clip-path="url(#clip0_31_632)">
<path d="M0 8.87271C9.28 6.36816 18.43 3.2132 27.87 1.51438C43.31 -1.27169 58.65 0.00970551 73.71 4.59167C83.53 7.5816 93.43 10.4647 103.47 12.6198C120.22 16.2116 136.47 13.0567 152.64 8.53294C164.886 5.026 177.37 2.35316 190 0.533914C204.27 -1.4076 218 2.36864 231.58 6.66909C246.81 11.5229 262.29 16.0951 278.52 13.6294C289.994 11.8505 301.306 9.19537 312.35 5.68863C334.112 -1.43297 357.677 -1.45002 379.45 5.64009C390.34 9.10612 401.485 11.7639 412.79 13.5906C427.04 15.8427 440.79 12.2218 454.54 8.52323C466.61 5.26149 478.9 2.23274 491.32 0.543621C505.75 -1.39789 519.71 2.27157 533.41 6.64968C548.63 11.5035 564.09 15.9981 580.34 13.6488C590.704 12.2369 600.911 9.89713 610.83 6.65938C635.56 -1.6697 659.9 -1.80561 684.6 6.65938C699.52 11.785 714.95 16.0078 731.02 13.6488C741.65 12.0859 752.02 8.79505 762.53 6.61085C773.36 4.34898 784.19 1.86385 795.17 0.485376C809 -1.20374 822.22 2.58221 835.26 6.65938C850.35 11.3675 865.61 15.9107 881.7 13.6877C891.36 12.3577 901.16 10.523 910.29 7.33891C936.8 -1.90268 962.89 -1.9221 989.29 7.48453C1003.41 12.513 1018.17 15.8913 1033.34 13.6294C1043.82 11.916 1054.18 9.53251 1064.34 6.49436C1077.49 2.75694 1090.66 -1.20374 1104.48 0.485376C1115.49 1.82653 1126.38 3.93858 1137.07 6.805C1152.5 10.9598 1167.81 16.0272 1184.07 13.6003C1194.7 12.0374 1205.07 8.74651 1215.57 6.51377C1226.4 4.2422 1237.24 1.75707 1248.22 0.446546C1261.88 -1.19403 1274.95 2.49484 1287.83 6.52348C1303.08 11.2996 1318.5 15.9689 1334.75 13.6197C1345.4 11.9222 1355.91 9.53204 1366.23 6.46523C1379.23 2.80548 1392.23 -1.21345 1405.86 0.446546C1417.03 1.7817 1428.09 3.89367 1438.95 6.76617C1454.39 10.8919 1469.69 15.9883 1485.95 13.5615C1496.58 11.9985 1507.06 9.23189 1517.42 6.34874C1530.22 2.83461 1543 -1.17462 1556.53 0.475668C1567.71 1.78943 1578.77 3.87538 1589.64 6.71763C1605.07 10.8336 1620.36 15.9981 1636.64 13.6488C1647.27 12.115 1657.73 9.2513 1668.14 6.54289C1679.21 3.63063 1690.05 0.417423 1701.77 0.155319C1715.37 -0.145615 1728.17 2.66958 1740.89 6.63026C1756.14 11.387 1771.58 16.0175 1787.82 13.6294C1798.46 11.9237 1808.97 9.5138 1819.28 6.41669C1832.77 2.53367 1846.28 -1.10666 1860.44 0.446546C1869.48 1.55102 1878.45 3.17176 1887.29 5.30033C1898.29 7.79517 1909.13 10.8433 1920.04 13.6488V18.4638C1907.04 15.037 1894.04 11.7656 1881.12 8.16405C1862.62 3.00934 1844.3 3.57238 1826.06 9.21247C1811.33 13.775 1796.57 18.687 1781 19.1239C1773.19 19.3472 1765.21 17.5027 1757.48 15.833C1749.54 14.1245 1741.77 11.6685 1734.02 9.2513C1714.2 3.06759 1694.58 3.49472 1674.62 9.2513C1660.02 13.4353 1645.12 17.1338 1630.07 19.2113C1622.56 20.2597 1614.33 17.5901 1606.6 15.8913C1598.67 14.1536 1590.89 11.717 1583.15 9.29984C1563.33 3.10642 1543.71 3.4753 1523.74 9.22218C1509.14 13.4061 1494.24 17.095 1479.2 19.1918C1471.68 20.2306 1463.46 17.6095 1455.72 15.9204C1447.79 14.1924 1440.02 11.7461 1432.27 9.31925C1412.46 3.11612 1392.84 3.49472 1372.87 9.20276C1358.26 13.3673 1343.36 17.0562 1328.32 19.153C1320.8 20.2014 1312.57 17.6289 1304.85 15.9398C1296.76 14.173 1288.85 11.6297 1280.93 9.14452C1261.61 3.19378 1242.43 3.45589 1222.93 8.84358C1208.12 12.9402 1193.1 16.765 1177.93 18.92C1170.24 20.0073 1161.84 17.5707 1153.93 15.901C1145.83 14.1827 1137.93 11.5908 1130 9.15423C1110.86 3.27145 1091.84 3.40735 1072.5 8.72709C1057.5 12.8431 1042.35 16.7164 1026.98 18.92C1019.3 20.017 1010.88 17.6095 1002.98 15.901C993.92 13.9595 985.07 11.0472 976.16 8.43587C958.61 3.30057 941.16 3.58209 923.5 8.27084C907.67 12.4354 891.74 16.6096 875.56 19.0559C868.09 20.182 859.83 17.6095 852.11 15.9398C844.02 14.1827 836.11 11.6297 828.19 9.14452C808.51 3.10642 789 3.50443 769.23 9.1154C754.62 13.2605 739.72 16.8814 724.67 19.0268C717.14 20.0849 708.92 17.561 701.17 15.9495C694.059 14.3526 687.047 12.3625 680.17 9.98908C658.76 2.98993 637.55 3.31028 615.94 9.72697C602.015 13.9781 587.759 17.1272 573.31 19.1433C565.78 20.1141 557.58 17.5221 549.85 15.8233C541.93 14.0857 534.16 11.6394 526.41 9.22218C506.75 3.11612 487.28 3.49472 467.47 9.08627C452.69 13.2605 437.64 16.9882 422.47 19.1142C414.96 20.1626 406.74 17.5416 399.02 15.8427C390.93 14.0663 383.02 11.5132 375.1 9.04744C355.77 3.14525 336.6 3.4656 317.1 8.87271C302.3 12.979 287.26 16.7747 272.1 18.9006C264.41 19.9684 256.01 17.4833 248.1 15.7942C240 14.0663 232.1 11.4743 224.17 9.05715C205.322 3.11032 185.018 3.11032 166.17 9.05715C151.44 13.5906 136.72 18.6579 121.17 19.0754C113.17 19.2889 105.01 17.6095 97.17 15.8427C86.75 13.5129 76.66 10.1444 66.4 7.42628C52.0311 3.58004 36.8678 3.50634 22.46 7.21271C14.9 9.15423 7.46 11.5035 0 13.6682L0 8.87271Z" fill="#A75A2E"/>
<path d="M1920 21.5217V80C1280 80 640 80 0 80V16.7261C7.48 14.5613 14.9 12.1733 22.45 10.2706C36.8777 6.56024 52.0613 6.63393 66.45 10.4842C76.71 13.2023 86.79 16.5708 97.14 18.8909C105 20.6577 113.14 22.3371 121.14 22.1235C136.72 21.7061 151.45 16.6485 166.14 12.1053C184.988 6.1585 205.292 6.1585 224.14 12.1053C232.06 14.5225 239.97 17.1144 248.06 18.9006C255.95 20.58 264.35 23.0749 272.06 21.9973C287.27 19.8714 302.3 16.0757 317.06 11.9694C336.55 6.56232 355.73 6.24197 375.06 12.1442C382.98 14.5711 390.89 17.1241 398.98 18.9395C406.7 20.6383 414.92 23.2593 422.43 22.2109C437.63 20.0849 452.69 16.3864 467.43 12.183C487.24 6.60115 506.71 6.21284 526.36 12.3286C534.11 14.7361 541.88 17.1824 549.81 18.9297C557.54 20.6189 565.74 23.2302 573.27 22.24C587.715 20.2239 601.969 17.0748 615.89 12.8237C637.51 6.40699 658.72 6.08665 680.13 13.0858C687.007 15.4593 694.019 17.4493 701.13 19.0462C708.87 20.6577 717.13 23.1817 724.63 22.1235C739.63 20.017 754.63 16.3572 769.19 12.2121C789 6.60115 808.47 6.21284 828.13 12.2898C836.04 14.7458 843.96 17.2892 852.05 19.0851C859.77 20.7645 868.05 23.3273 875.5 22.2012C891.67 19.7646 907.61 15.5806 923.44 11.4161C941.12 6.75647 958.55 6.45553 976.1 11.5811C985.01 14.1925 993.86 17.0853 1002.92 19.0462C1010.8 20.7645 1019.22 23.1622 1026.92 22.0653C1042.29 19.8617 1057.46 15.9884 1072.44 11.8724C1091.78 6.55261 1110.8 6.4167 1129.94 12.2995C1137.86 14.7361 1145.77 17.328 1153.86 19.0948C1161.75 20.7645 1170.16 23.2011 1177.86 22.1138C1193.06 19.9587 1208.08 16.134 1222.86 12.0374C1242.35 6.64968 1261.53 6.39729 1280.86 12.348C1288.78 14.7846 1296.7 17.328 1304.79 19.1433C1312.51 20.8421 1320.79 23.4146 1328.26 22.3662C1343.26 20.2597 1358.2 16.5417 1372.8 12.4063C1392.8 6.71764 1412.39 6.31963 1432.21 12.5325C1439.95 14.9496 1447.73 17.3862 1455.66 19.1239C1463.39 20.813 1471.66 23.4438 1479.13 22.3953C1494.13 20.2985 1509.07 16.5708 1523.68 12.4354C1543.68 6.72734 1563.26 6.31963 1583.09 12.5033C1590.83 14.9205 1598.61 17.3571 1606.54 19.1045C1614.27 20.7936 1622.54 23.4632 1630.01 22.4245C1645.01 20.3373 1659.95 16.5999 1674.55 12.4548C1694.55 6.73705 1714.14 6.30992 1733.96 12.4548C1741.71 14.872 1749.48 17.3086 1757.41 19.0462C1765.14 20.7062 1773.13 22.5604 1780.94 22.3371C1796.5 21.8906 1811.27 16.9785 1826 12.4257C1844.24 6.77588 1862.56 6.21284 1881.06 11.3676C1894 14.8234 1907 18.1046 1920 21.5217Z" fill="white"/>
</g>
<defs>
<clipPath id="clip0_31_632">
<rect width="1920" height="80" fill="white"/>
</clipPath>
</defs>
</svg>
