<svg width="1920" height="90" viewBox="0 0 1920 90" fill="none" xmlns="http://www.w3.org/2000/svg">
<g clip-path="url(#clip0_31_674)">
<path d="M0 69.0001L12.8 62.3001C25.7 55.7001 51.3 42.3001 77 39.0001C102.7 35.7001 128.3 42.3001 153.8 47.2001C179.3 52.0001 204.7 55.0001 230.2 50.7001C255.7 46.3001 281.3 34.7001 307 27.7001C332.7 20.7001 358.3 18.3001 384 22.2001C409.7 26.0001 435.3 36.0001 461 36.8001C486.7 37.7001 512.3 29.3001 537.8 24.8001C563.3 20.3001 588.7 19.7001 614.2 22.5001C639.7 25.3001 665.3 31.7001 691 35.3001C716.7 39.0001 742.3 40.0001 768 37.0001C793.7 34.0001 819.3 27.0001 845 24.5001C870.7 22.0001 896.3 24.0001 921.8 23.5001C947.3 23.0001 972.7 20.0001 998.2 17.7001C1023.7 15.3001 1049.3 13.7001 1075 15.8001C1100.7 18.0001 1126.3 24.0001 1152 30.8001C1177.7 37.7001 1203.3 45.3001 1229 45.2001C1254.7 45.0001 1280.3 37.0001 1305.8 32.8001C1331.3 28.7001 1356.7 28.3001 1382.2 30.8001C1407.7 33.3001 1433.3 38.7001 1459 37.2001C1484.7 35.7001 1510.3 27.3001 1536 22.5001C1561.7 17.7001 1587.3 16.3001 1613 24.0001C1638.7 31.7001 1664.3 48.3001 1689.8 49.7001C1715.3 51.0001 1740.7 37.0001 1766.2 31.0001C1791.7 25.0001 1817.3 27.0001 1843 34.8001C1868.7 42.7001 1894.3 56.3001 1907.2 63.2001L1920 70.0001V91.0001H1907.2C1894.3 91.0001 1868.7 91.0001 1843 91.0001C1817.3 91.0001 1791.7 91.0001 1766.2 91.0001C1740.7 91.0001 1715.3 91.0001 1689.8 91.0001C1664.3 91.0001 1638.7 91.0001 1613 91.0001C1587.3 91.0001 1561.7 91.0001 1536 91.0001C1510.3 91.0001 1484.7 91.0001 1459 91.0001C1433.3 91.0001 1407.7 91.0001 1382.2 91.0001C1356.7 91.0001 1331.3 91.0001 1305.8 91.0001C1280.3 91.0001 1254.7 91.0001 1229 91.0001C1203.3 91.0001 1177.7 91.0001 1152 91.0001C1126.3 91.0001 1100.7 91.0001 1075 91.0001C1049.3 91.0001 1023.7 91.0001 998.2 91.0001C972.7 91.0001 947.3 91.0001 921.8 91.0001C896.3 91.0001 870.7 91.0001 845 91.0001C819.3 91.0001 793.7 91.0001 768 91.0001C742.3 91.0001 716.7 91.0001 691 91.0001C665.3 91.0001 639.7 91.0001 614.2 91.0001C588.7 91.0001 563.3 91.0001 537.8 91.0001C512.3 91.0001 486.7 91.0001 461 91.0001C435.3 91.0001 409.7 91.0001 384 91.0001C358.3 91.0001 332.7 91.0001 307 91.0001C281.3 91.0001 255.7 91.0001 230.2 91.0001C204.7 91.0001 179.3 91.0001 153.8 91.0001C128.3 91.0001 102.7 91.0001 77 91.0001C51.3 91.0001 25.7 91.0001 12.8 91.0001H0V69.0001Z" fill="white"/>
</g>
<defs>
<clipPath id="clip0_31_674">
<rect width="1920" height="90" fill="white"/>
</clipPath>
</defs>
</svg>
