<svg width="1920" height="80" viewBox="0 0 1920 80" fill="none" xmlns="http://www.w3.org/2000/svg">
<g clip-path="url(#clip0_31_725)">
<path d="M0 40L12.8 39C25.7 38 51.3 36 77 31.7C102.7 27.3 128.3 20.7 153.8 16.7C179.3 12.7 204.7 11.3 230.2 11.8C255.7 12.3 281.3 14.7 307 23C332.7 31.3 358.3 45.7 384 44C409.7 42.3 435.3 24.7 461 19.3C486.7 14 512.3 21 537.8 30.3C563.3 39.7 588.7 51.3 614.2 56.7C639.7 62 665.3 61 691 60.5C716.7 60 742.3 60 768 55C793.7 50 819.3 40 845 35.5C870.7 31 896.3 32 921.8 37.7C947.3 43.3 972.7 53.7 998.2 55C1023.7 56.3 1049.3 48.7 1075 39.3C1100.7 30 1126.3 19 1152 23.7C1177.7 28.3 1203.3 48.7 1229 49.5C1254.7 50.3 1280.3 31.7 1305.8 24.7C1331.3 17.7 1356.7 22.3 1382.2 26.8C1407.7 31.3 1433.3 35.7 1459 34.3C1484.7 33 1510.3 26 1536 25.7C1561.7 25.3 1587.3 31.7 1613 39.3C1638.7 47 1664.3 56 1689.8 51.2C1715.3 46.3 1740.7 27.7 1766.2 20.7C1791.7 13.7 1817.3 18.3 1843 24.8C1868.7 31.3 1894.3 39.7 1907.2 43.8L1920 48V81H1907.2C1894.3 81 1868.7 81 1843 81C1817.3 81 1791.7 81 1766.2 81C1740.7 81 1715.3 81 1689.8 81C1664.3 81 1638.7 81 1613 81C1587.3 81 1561.7 81 1536 81C1510.3 81 1484.7 81 1459 81C1433.3 81 1407.7 81 1382.2 81C1356.7 81 1331.3 81 1305.8 81C1280.3 81 1254.7 81 1229 81C1203.3 81 1177.7 81 1152 81C1126.3 81 1100.7 81 1075 81C1049.3 81 1023.7 81 998.2 81C972.7 81 947.3 81 921.8 81C896.3 81 870.7 81 845 81C819.3 81 793.7 81 768 81C742.3 81 716.7 81 691 81C665.3 81 639.7 81 614.2 81C588.7 81 563.3 81 537.8 81C512.3 81 486.7 81 461 81C435.3 81 409.7 81 384 81C358.3 81 332.7 81 307 81C281.3 81 255.7 81 230.2 81C204.7 81 179.3 81 153.8 81C128.3 81 102.7 81 77 81C51.3 81 25.7 81 12.8 81H0V40Z" fill="white"/>
</g>
<defs>
<clipPath id="clip0_31_725">
<rect width="1920" height="80" fill="white"/>
</clipPath>
</defs>
</svg>
