<svg width="1920" height="80" viewBox="0 0 1920 80" fill="none" xmlns="http://www.w3.org/2000/svg">
<g clip-path="url(#clip0_31_799)">
<path d="M0 8L10.7 15C21.3 22 42.7 36 64 43.3C85.3 50.7 106.7 51.3 128 49.8C149.3 48.3 170.7 44.7 192 40C213.3 35.3 234.7 29.7 256 31.7C277.3 33.7 298.7 43.3 320 45.3C341.3 47.3 362.7 41.7 384 42.3C405.3 43 426.7 50 448 54.7C469.3 59.3 490.7 61.7 512 55C533.3 48.3 554.7 32.7 576 23.3C597.3 14 618.7 11 640 19.8C661.3 28.7 682.7 49.3 704 55.8C725.3 62.3 746.7 54.7 768 49.5C789.3 44.3 810.7 41.7 832 43.7C853.3 45.7 874.7 52.3 896 52C917.3 51.7 938.7 44.3 960 36.7C981.3 29 1002.7 21 1024 26.7C1045.3 32.3 1066.7 51.7 1088 53.2C1109.3 54.7 1130.7 38.3 1152 29.8C1173.3 21.3 1194.7 20.7 1216 28.3C1237.3 36 1258.7 52 1280 59.7C1301.3 67.3 1322.7 66.7 1344 61.3C1365.3 56 1386.7 46 1408 37.2C1429.3 28.3 1450.7 20.7 1472 25.2C1493.3 29.7 1514.7 46.3 1536 50.7C1557.3 55 1578.7 47 1600 38.3C1621.3 29.7 1642.7 20.3 1664 25.3C1685.3 30.3 1706.7 49.7 1728 58.8C1749.3 68 1770.7 67 1792 59C1813.3 51 1834.7 36 1856 31.5C1877.3 27 1898.7 33 1909.3 36L1920 39V81H1909.3C1898.7 81 1877.3 81 1856 81C1834.7 81 1813.3 81 1792 81C1770.7 81 1749.3 81 1728 81C1706.7 81 1685.3 81 1664 81C1642.7 81 1621.3 81 1600 81C1578.7 81 1557.3 81 1536 81C1514.7 81 1493.3 81 1472 81C1450.7 81 1429.3 81 1408 81C1386.7 81 1365.3 81 1344 81C1322.7 81 1301.3 81 1280 81C1258.7 81 1237.3 81 1216 81C1194.7 81 1173.3 81 1152 81C1130.7 81 1109.3 81 1088 81C1066.7 81 1045.3 81 1024 81C1002.7 81 981.3 81 960 81C938.7 81 917.3 81 896 81C874.7 81 853.3 81 832 81C810.7 81 789.3 81 768 81C746.7 81 725.3 81 704 81C682.7 81 661.3 81 640 81C618.7 81 597.3 81 576 81C554.7 81 533.3 81 512 81C490.7 81 469.3 81 448 81C426.7 81 405.3 81 384 81C362.7 81 341.3 81 320 81C298.7 81 277.3 81 256 81C234.7 81 213.3 81 192 81C170.7 81 149.3 81 128 81C106.7 81 85.3 81 64 81C42.7 81 21.3 81 10.7 81H0V8Z" fill="white"/>
</g>
<defs>
<clipPath id="clip0_31_799">
<rect width="1920" height="80" fill="white"/>
</clipPath>
</defs>
</svg>
