<svg id="Layer_1" data-name="Layer 1" xmlns="http://www.w3.org/2000/svg" viewBox="0 0 126 126"><defs><style>.cls-1{fill:none;stroke:#fff;stroke-miterlimit:10;}.cls-2{fill:#fff;}</style></defs><circle class="cls-1" cx="63" cy="63" r="62.5"/><path class="cls-2" d="M93.13,57a2.41,2.41,0,0,1-.56-.89,24.83,24.83,0,0,0-1-2.74A13.59,13.59,0,0,0,87,48.59a1,1,0,0,1-.49-1.31A10.16,10.16,0,0,0,81.69,35.6a15,15,0,0,0-8.22-1.39l-1,.06c.2-.4.34-.68.47-1a9.58,9.58,0,0,0-4.23-12.67,8.66,8.66,0,0,0-9.16.53,9.22,9.22,0,0,0-4.26,8.55c0,.83.05.81-.78.94-4.68.75-8.65,2.74-11.46,6.69-1.93,2.71-3,5.67-2.39,9.06.07.39-.16.43-.43.55a34.11,34.11,0,0,0-4.3,2,7.32,7.32,0,0,0-3.78,6.27,1.79,1.79,0,0,1-.94,1.67C26,60.35,26.05,67.74,29.93,71.1a1.34,1.34,0,0,1,.38.69q3.94,15,7.87,30a4.47,4.47,0,0,0,4.72,3.65H81.29a4.47,4.47,0,0,0,4.65-3.58q3.75-14.3,7.46-28.6a1.66,1.66,0,0,1,1-1.22c2-.92,3.46-2.4,3.48-4.72A12.69,12.69,0,0,0,93.13,57Zm-7.48-7.45a12.72,12.72,0,0,1,5,5.57l.12.36c0,.06,0,.12,0,.21s-.16,0-.23,0a13.26,13.26,0,0,0-4.21-.47q-6.29,0-12.58,0h-.74a.49.49,0,0,1,0-.12c1.4-.44,2.83-.83,4.22-1.31a21.93,21.93,0,0,0,7.89-4.22A.49.49,0,0,1,85.65,49.53Zm-21-28.34a8,8,0,1,1-7.8,7.9A7.91,7.91,0,0,1,64.63,21.19ZM45.52,36.8a15.82,15.82,0,0,1,9.68-4.67c.48-.07.59.2.73.56a9.19,9.19,0,0,0,11.88,5.42,12.88,12.88,0,0,0,2.53-1.48c.39-.27.65-.3,1,0a15.41,15.41,0,0,1,1.62,1.81,1.56,1.56,0,0,1-.39,2.32,10.6,10.6,0,0,1-2.8,1.48A50.87,50.87,0,0,1,60.4,44c-5.9.78-11.8,1.54-17.69,2.33-.35,0-.51,0-.55-.38s-.11-.91-.15-1.24A11.85,11.85,0,0,1,45.52,36.8ZM33.7,54.85A6.12,6.12,0,0,1,36,50.76a13.83,13.83,0,0,1,6.81-2.82c4.12-.63,8.27-1.07,12.4-1.67q6.8-1,13.55-2.12a9.93,9.93,0,0,0,4.15-1.66c2.18-1.55,2.45-3.71.7-5.74-.23-.27-.47-.52-.82-.91a17.81,17.81,0,0,1,5.72.26c5.59,1.28,7.34,6.07,6.65,10.26a3.71,3.71,0,0,1-1.3,2.28,17.87,17.87,0,0,1-5.59,3.15,65,65,0,0,1-14.15,3.4,9.09,9.09,0,0,1-1.38,0c-8.58,0-17.16,0-25.74,0-1.08,0-2.16.15-3.33.24A4.54,4.54,0,0,1,33.7,54.85Zm8.09,48.9a2.84,2.84,0,0,1-2.1-2.34c-1-3.78-2-7.56-3-11.33L32.34,73.36c0-.18-.07-.36-.13-.62a29.85,29.85,0,0,0,3.23,1.08c1.59.34,3.2.54,4.82.76.41.06.61.15.67.61q1.7,13.64,3.41,27.28c0,.43.1.86.16,1.31A14.34,14.34,0,0,1,41.79,103.75Zm11,.11c-2,0-4,0-6.08,0-.45,0-.64-.1-.7-.6Q44.68,92.43,43.3,81.58q-.4-3.17-.8-6.34c0-.14,0-.28,0-.44l8.3-.53Q52.1,89,53.44,103.81C53.19,103.83,53,103.86,52.79,103.86Zm7.81,0c-1.67,0-3.34,0-5,0-.45,0-.6-.13-.64-.59Q53.66,89,52.34,74.64c-.05-.55.08-.74.65-.83,2.53-.41,5.06-.88,7.59-1.33l.79-.12v.76q0,15,0,29.95C61.39,103.68,61.26,103.9,60.6,103.88Zm8.78-.58c0,.42-.18.57-.61.57-1.75,0-3.5,0-5.26,0-.57,0-.58-.27-.58-.69q0-7.43,0-14.85V88c0-5,0-10.07,0-15.1,0-.64.2-.84.79-.88,2.6-.16,5.2-.35,7.8-.54.62,0,.75.18.69.79-.59,6.24-1.14,12.48-1.71,18.71C70.12,95.06,69.74,99.18,69.38,103.3Zm8.92,0c0,.31-.07.56-.49.56-2.22,0-4.43,0-6.64,0a1.46,1.46,0,0,1-.29-.08c1-10.69,2-21.4,2.93-32.23l4.52.59c1.11.15,2.22.34,3.34.48.38,0,.49.2.44.57q-1.53,12-3,24C78.82,99.21,78.55,101.26,78.3,103.31ZM91.7,73.66q-3.63,13.88-7.26,27.75a2.92,2.92,0,0,1-3.15,2.45H79.84c0-.4,0-.75.09-1.09Q81.66,89,83.4,75.18c.08-.58.19-1.15.22-1.74,0-.44.2-.52.63-.5,2,.09,4,.14,5.94.17a12.72,12.72,0,0,0,1.67-.2C91.8,73.23,91.76,73.45,91.7,73.66Zm2.21-3.11a11.12,11.12,0,0,1-4.6,1.08,49.53,49.53,0,0,1-9.41-.84,55.58,55.58,0,0,0-10.78-.89A82,82,0,0,0,58.2,71.32,90.28,90.28,0,0,1,45,73.12a33.11,33.11,0,0,1-8.66-.64,12.45,12.45,0,0,1-4.84-2.12,7.66,7.66,0,0,1,5-13.56H62.1c8.23,0,16.45.07,24.68,0,4.15-.06,6.85,1.81,8.47,5.5a11.89,11.89,0,0,1,1.11,4.15A4,4,0,0,1,93.91,70.55Z" transform="translate(0.5 0.5)"/></svg>