<svg id="Layer_1" data-name="Layer 1" xmlns="http://www.w3.org/2000/svg" viewBox="0 0 1200 1200"><defs><style>.cls-1{fill:none;}.cls-2{fill:#fff;}.cls-3{fill:#030303;}.cls-4{fill:#151515;}.cls-5{fill:#141414;}.cls-6{fill:#0e0f0f;}.cls-7{fill:#131313;}.cls-8{fill:#111;}.cls-9{fill:#121212;}.cls-10{fill:#f69c9f;}</style></defs><g id="Layer_6" data-name="Layer 6"><path class="cls-1" d="M600,0h0c331.37,0,600,268.63,600,600h0c0,331.37-268.63,600-600,600h0C268.63,1200,0,931.37,0,600H0C0,268.63,268.63,0,600,0Z"/></g><g id="Layer_3" data-name="Layer 3"><path class="cls-2" d="M417.46,489.49c-.17.53-.38,1.07-.6,1.6a22,22,0,0,1-4.38,6.35c-9.91,10.35-20.74,7.92-30.3-1.27q-22-21.39-43.56-43.39c-6.82-6.95-9.29-15.15-4.76-24.65a19.47,19.47,0,0,1,1.07-2,12.09,12.09,0,0,1,.84-1.23l.43-.56c3.89-4.82,9.51-5.93,15.88-5.91a20,20,0,0,1,13.33,5.33c9.45,9.46,19,18.74,28.43,28.13,1.89,1.88,3.79,3.75,5.67,5.64s3.76,3.78,5.63,5.67,3.73,3.8,5.59,5.72C416.79,475.21,419.74,482.41,417.46,489.49Z"/><path class="cls-2" d="M476.75,306.36q-2.53,6.72-5.26,13.37a.78.78,0,0,1-.05.14c-7.79,19.07-16.6,37.72-25.32,56.41-2.53,5.4-8.84,7-15.72,8h0c-12.93-2.77-23.62-9.95-18.16-25.11,8-22.38,18.56-43.9,28.84-65.42a18,18,0,0,1,4.46-6s.06-.06.08-.09a15.85,15.85,0,0,1,9.51-3.71,17.85,17.85,0,0,1,2.07,0,25.81,25.81,0,0,1,7.15,1.39C474,288.62,480.16,297.3,476.75,306.36Z"/><path class="cls-2" d="M580.32,403.89s0,0,0,0a19.57,19.57,0,0,1-1,2.7.25.25,0,0,1,0,.07,18.42,18.42,0,0,1-.92,1.77,17.19,17.19,0,0,1-1.56,2.25c-2.86,3.42-6.89,5.39-11.79,6.14l-1,.13a19.87,19.87,0,0,1-8.22-.75,17.12,17.12,0,0,1-3.67-1.66l-.69-.42c-4.26-2.83-7.33-7.58-8.65-13.81-1.55-7.53-3.12-15.06-4.66-22.59,0,0,0-.05,0-.07q-3.3-16.11-6.43-32.25c-.16-.81-.32-1.64-.47-2.45-.35-1.82-.7-3.63-1-5.46-.19-1-.32-1.93-.41-2.87a24.7,24.7,0,0,1,0-5.3c.86-8.24,6-14.2,15.36-16.22,12.2-2.64,20.49,3.42,23.2,16.1,4.63,21.64,9.3,43.42,13,60.43v.05c0,.42.07.82.1,1.22A36.69,36.69,0,0,1,580.32,403.89Z"/><path class="cls-2" d="M588.74,463.42s0,.06,0,.08a21,21,0,0,1-.45,3.33c-1.18,5.46-4.59,9.78-10.95,12.07-22.36,8-44.88,15.7-67.67,22.37a15.41,15.41,0,0,1-10.92-.49,2.88,2.88,0,0,1-.62-.28,19.08,19.08,0,0,1-1.7-1l-.05,0-1.07-.75,0,0a18.82,18.82,0,0,1-2.06-1.84c-.48-.49-.94-1-1.4-1.56v0A27.09,27.09,0,0,1,488,489c-4-9.22-1-18.83,7-22.75.38-.19.75-.36,1.15-.52h0q4.41-1.76,8.85-3.44c1.48-.56,3-1.11,4.47-1.66,3-1.08,5.93-2.16,8.89-3.19,16.32-5.73,32.52-10.77,47.43-15.81a70.92,70.92,0,0,1,8.48,1.38l.92.23h0l.56.17c.58.16,1.15.34,1.69.54a6.82,6.82,0,0,1,.68.25l.54.21a16.92,16.92,0,0,1,2.45,1.21,13.63,13.63,0,0,1,5.89,6.75l0,0c.2.49.39,1,.56,1.56V454c.17.54.31,1.11.44,1.7,0,0,0,0,0,0s0,.07,0,.1c.06.31.14.6.19.92.15.93.27,1.86.34,2.75,0,.24,0,.47,0,.71h0A28.83,28.83,0,0,1,588.74,463.42Z"/><path class="cls-2" d="M561.53,254.12a17.74,17.74,0,0,1-2.47-22.68,17.94,17.94,0,0,1,16.3-9.32,21.45,21.45,0,0,1,15.45,6.49c15.15,15,30.49,29.84,45.31,45.18,8.51,8.81,10.28,19.63,1,28.44-8.9,8.42-19.91,7.23-28.68-1.13C592.41,285.89,576.87,270.09,561.53,254.12Z"/><path class="cls-2" d="M730.45,448.34c-2.54,8.78-8.06,13.28-15.34,14.49a30.1,30.1,0,0,1-9.09,0c-1-.14-2.06-.33-3.12-.55-16.19-3.48-32.44-6.67-48.69-9.89,0,0,0,0,0,0l-7-1.39c-12.62-2.53-22.46-8.66-20.62-22.89a19.76,19.76,0,0,1,4-10.17h0a13.27,13.27,0,0,1,1.77-1.82,15.24,15.24,0,0,1,3.54-2.29,18.43,18.43,0,0,1,3.24-1.2,25.26,25.26,0,0,1,2.67-.58,38.45,38.45,0,0,1,8.26-.36c.83,0,1.68.09,2.54.17h.07c20.16,4,40.38,7.73,60.48,11.95,8.18,1.71,14.45,5.38,17,11.27.1.25.21.49.3.75a14.4,14.4,0,0,1,.67,2.29A21.22,21.22,0,0,1,730.45,448.34Z"/><path class="cls-2" d="M784,309.16c-11.1,22.76-23.8,44.74-36.38,66.77-2.27,4-6.35,5.65-11.43,6.22a46.83,46.83,0,0,1-5.29.28c-13.27-2.84-21.65-12.1-15.28-26.13,9.78-21.63,22.26-41.93,34.24-62.45,3.1-5.31,7.53-8,12.48-8.61a19.08,19.08,0,0,1,4.34,0,25.08,25.08,0,0,1,7,1.86,23,23,0,0,1,5.39,3.14c.52.41,1,.85,1.51,1.31l.45.46c.31.3.59.62.87.94a16.24,16.24,0,0,1,1.8,2.56c.11.18.2.37.3.54s.19.37.27.56a11.9,11.9,0,0,1,.47,1.11A14.08,14.08,0,0,1,784,309.16Z"/><path class="cls-2" d="M882.28,426.93c-1.5,3.27-2.47,8.66-5.69,11.85-16.5,16-33.27,31.68-50.56,46.73-7.22,6.39-16.2,7.37-23.49,2.38a21.38,21.38,0,0,1-3.23-2.72c-8.65-8.66-8.1-19.82.82-28.45C816,441.28,832.59,426.42,849,411.8a18.66,18.66,0,0,1,22.88-2.39A17.62,17.62,0,0,1,874,410.8a17.11,17.11,0,0,1,1.87,1.62C879.38,415.88,881.34,420.7,882.28,426.93Z"/><path class="cls-2" d="M984.44,559c-12.64-12.44-15.91-24.53-16.24-41.11-2.6-132.68-77.59-246.06-183.55-308.06L783.2,209c-77.14-44.69-170.5-62.19-264.2-40.23a385.59,385.59,0,0,0-102,39.69l-1.82,1c-111,63.65-181.72,180-184.51,315.09-.22,10.82-.76,19.95-10.17,28.57-34.2,31.29-41.55,69.48-24.9,112.52q78.44,202.49,157,404.88c11.59,29.84,23.79,37.7,56,37.77q95.21.2,190.53,0c65.19,0,130.34-.29,195.5.15,24.37.16,41.48-10.12,50.17-32.47C899,936.45,953.25,796.86,1006.36,657,1020.12,620.75,1011.94,586.09,984.44,559ZM270.6,508c9.49-113.34,61.68-198.79,154.34-257.53t0,0q10.92-6.94,22.59-13.36c47.06-26,98.5-36.55,144.05-37.42,2.11,0,4.2.05,6.28.11a.14.14,0,0,1,.09,0l.75,0h.06c.72,0,1.42,0,2.13.06h0c.28,0,.55,0,.8,0h0c65.33,2.21,124,21,173,51.46l.11.07c88.69,55.18,145.79,148.64,153.57,251.62,1.21,16.1,1.78,28.14-21.41,27.62-21.65-.52-41.72,9.67-57.57,25.18-8.15,8-13,10.16-23.38,1.31-44.56-37.77-92-37.72-136,0-10.28,8.82-14.49,6.29-23.19-1-43-36.29-91.77-36.29-134.47-.11-8.66,7.27-12.81,10.05-23.2,1.21-44.65-38-91.5-38-136-.32-10.26,8.65-15.15,7.27-23.48-1a86.38,86.38,0,0,0-60-25.82C272.17,529.66,269.37,522.82,270.6,508Zm141.48,562.35v.08c-13.5,3.33-20.92-7.37-27-23.09Q309.63,850.45,233.23,653.73c-14-36.28-.77-71.09,31.08-81.5,34.84-11.4,68.4,8.81,77.34,47.95,32.87,143.6,64.91,287.38,98.13,430.91C445.58,1076.05,428.75,1068.23,412.08,1070.38Zm109.44-1.46v.1c-15-1-36,11.09-41.93-16.41-14.42-66.74-29.7-133.28-44.65-199.88-15.7-69.86-31.19-139.73-47.22-209.51-9-38.94,5.73-65.41,41.39-72.42s66.9,14.2,70.64,51c6.9,68,11.83,136.32,17,204.51,3.77,49.3,6.68,98.65,10,148h.64c1.7,23.79,3.77,47.6,4.87,71.56C532.71,1054.87,540.28,1070.14,521.52,1068.92ZM657.38,630.79v.08c-.25,6.5,0,13.18,0,19.77h-.57C646.59,784.58,636,918.5,626.51,1052.5c-1.7,24.26-17.89,15.57-30.07,17.08-13.74,1.73-22.66-.15-23.92-18.37C565.49,948.42,557,845.62,549.2,743Q545,687.56,542,632c-2-36.46,21.83-62.28,57-62.64S658.62,594.59,657.38,630.79ZM677.52,1069v.08c-18.65.73-11-14.37-10.6-23.58,1.16-24.71,3.3-49.39,5.06-74.06h.28q11.87-160.28,23.8-320.57a272.43,272.43,0,0,1,4.53-36.79c6.9-31.93,38.95-50.63,72.24-42.8,32.34,7.66,47.6,33.5,40,67.29-31.05,137.2-62.54,274.34-92.57,411.8C713.9,1079.56,693.31,1068.5,677.52,1069ZM966.7,651.6v.09c-51,132.52-102.36,264.87-153,397.52-6.49,16.71-16,23.94-29.51,20.91C769,1068.84,754,1074.9,759.3,1052c33.43-144.86,65.8-290,99-435,8.43-36.78,43.06-56.06,77.16-44.72C966.22,582.51,980,617,966.7,651.6Z"/><path class="cls-3" d="M417.46,489.49c-.17.53-.38,1.07-.6,1.6a22,22,0,0,1-4.38,6.35c-9.91,10.35-20.74,7.92-30.3-1.27q-22-21.39-43.56-43.39c-6.82-6.95-9.29-15.15-4.76-24.65a19.47,19.47,0,0,1,1.07-2,12.09,12.09,0,0,1,.84-1.23l.43-.56c3.89-4.82,9.51-5.93,15.88-5.91a20,20,0,0,1,13.33,5.33c9.45,9.46,19,18.74,28.43,28.13,1.89,1.88,3.79,3.75,5.67,5.64s3.76,3.78,5.63,5.67,3.73,3.8,5.59,5.72C416.79,475.21,419.74,482.41,417.46,489.49Z"/><path class="cls-3" d="M476.75,306.36q-2.53,6.72-5.26,13.37a.78.78,0,0,1-.05.14c-7.79,19.07-16.6,37.72-25.32,56.41-2.53,5.4-8.84,7-15.72,8h0c-12.93-2.77-23.62-9.95-18.16-25.11,8-22.38,18.56-43.9,28.84-65.42a18,18,0,0,1,4.46-6s.06-.06.08-.09a15.85,15.85,0,0,1,9.51-3.71,17.85,17.85,0,0,1,2.07,0,25.81,25.81,0,0,1,7.15,1.39C474,288.62,480.16,297.3,476.75,306.36Z"/><path class="cls-3" d="M580.32,403.89s0,0,0,0a19.57,19.57,0,0,1-1,2.7.25.25,0,0,1,0,.07,18.42,18.42,0,0,1-.92,1.77,17.19,17.19,0,0,1-1.56,2.25c-2.86,3.42-6.89,5.39-11.79,6.14l-1,.13a19.87,19.87,0,0,1-8.22-.75,17.12,17.12,0,0,1-3.67-1.66l-.69-.42c-4.26-2.83-7.33-7.58-8.65-13.81-1.55-7.53-3.12-15.06-4.66-22.59,0,0,0-.05,0-.07q-3.3-16.11-6.43-32.25c-.16-.81-.32-1.64-.47-2.45-.35-1.82-.7-3.63-1-5.46-.19-1-.32-1.93-.41-2.87a24.7,24.7,0,0,1,0-5.3c.86-8.24,6-14.2,15.36-16.22,12.2-2.64,20.49,3.42,23.2,16.1,4.63,21.64,9.3,43.42,13,60.43v.05c0,.42.07.82.1,1.22A36.69,36.69,0,0,1,580.32,403.89Z"/><path class="cls-3" d="M588.74,463.42s0,.06,0,.08a21,21,0,0,1-.45,3.33c-1.18,5.46-4.59,9.78-10.95,12.07-22.36,8-44.88,15.7-67.67,22.37a15.41,15.41,0,0,1-10.92-.49,2.88,2.88,0,0,1-.62-.28,19.08,19.08,0,0,1-1.7-1l-.05,0-1.07-.75,0,0a18.82,18.82,0,0,1-2.06-1.84c-.48-.49-.94-1-1.4-1.56v0A27.09,27.09,0,0,1,488,489c-4-9.22-1-18.83,7-22.75.38-.19.75-.36,1.15-.52h0q4.41-1.76,8.85-3.44c1.48-.56,3-1.11,4.47-1.66,3-1.08,5.93-2.16,8.89-3.19,16.32-5.73,32.52-10.77,47.43-15.81a70.92,70.92,0,0,1,8.48,1.38l.92.23h0l.56.17c.58.16,1.15.34,1.69.54a6.82,6.82,0,0,1,.68.25l.54.21a16.92,16.92,0,0,1,2.45,1.21,13.63,13.63,0,0,1,5.89,6.75l0,0c.2.49.39,1,.56,1.56V454c.17.54.31,1.11.44,1.7,0,0,0,0,0,0s0,.07,0,.1c.06.31.14.6.19.92.15.93.27,1.86.34,2.75,0,.24,0,.47,0,.71h0A28.83,28.83,0,0,1,588.74,463.42Z"/><path class="cls-3" d="M561.53,254.12a17.74,17.74,0,0,1-2.47-22.68,17.94,17.94,0,0,1,16.3-9.32,21.45,21.45,0,0,1,15.45,6.49c15.15,15,30.49,29.84,45.31,45.18,8.51,8.81,10.28,19.63,1,28.44-8.9,8.42-19.91,7.23-28.68-1.13C592.41,285.89,576.87,270.09,561.53,254.12Z"/><path class="cls-3" d="M730.45,448.34c-2.54,8.78-8.06,13.28-15.34,14.49a30.1,30.1,0,0,1-9.09,0c-1-.14-2.06-.33-3.12-.55-16.19-3.48-32.44-6.67-48.69-9.89,0,0,0,0,0,0l-7-1.39c-12.62-2.53-22.46-8.66-20.62-22.89a19.76,19.76,0,0,1,4-10.17h0a13.27,13.27,0,0,1,1.77-1.82,15.24,15.24,0,0,1,3.54-2.29,18.43,18.43,0,0,1,3.24-1.2,25.26,25.26,0,0,1,2.67-.58,38.45,38.45,0,0,1,8.26-.36c.83,0,1.68.09,2.54.17h.07c20.16,4,40.38,7.73,60.48,11.95,8.18,1.71,14.45,5.38,17,11.27.1.25.21.49.3.75a14.4,14.4,0,0,1,.67,2.29A21.22,21.22,0,0,1,730.45,448.34Z"/><path class="cls-3" d="M784,309.16c-11.1,22.76-23.8,44.74-36.38,66.77-2.27,4-6.35,5.65-11.43,6.22a46.83,46.83,0,0,1-5.29.28c-13.27-2.84-21.65-12.1-15.28-26.13,9.78-21.63,22.26-41.93,34.24-62.45,3.1-5.31,7.53-8,12.48-8.61a19.08,19.08,0,0,1,4.34,0,25.08,25.08,0,0,1,7,1.86,23,23,0,0,1,5.39,3.14c.52.41,1,.85,1.51,1.31l.45.46c.31.3.59.62.87.94a16.24,16.24,0,0,1,1.8,2.56c.11.18.2.37.3.54s.19.37.27.56a11.9,11.9,0,0,1,.47,1.11A14.08,14.08,0,0,1,784,309.16Z"/><path class="cls-3" d="M882.28,426.93c-1.5,3.27-2.47,8.66-5.69,11.85-16.5,16-33.27,31.68-50.56,46.73-7.22,6.39-16.2,7.37-23.49,2.38a21.38,21.38,0,0,1-3.23-2.72c-8.65-8.66-8.1-19.82.82-28.45C816,441.28,832.59,426.42,849,411.8a18.66,18.66,0,0,1,22.88-2.39A17.62,17.62,0,0,1,874,410.8a17.11,17.11,0,0,1,1.87,1.62C879.38,415.88,881.34,420.7,882.28,426.93Z"/><path class="cls-3" d="M984.44,559c-12.64-12.44-15.91-24.53-16.24-41.11-2.6-132.68-77.59-246.06-183.55-308.06L783.2,209c-77.14-44.69-170.5-62.19-264.2-40.23a385.59,385.59,0,0,0-102,39.69l-1.82,1c-111,63.65-181.72,180-184.51,315.09-.22,10.82-.76,19.95-10.17,28.57-34.2,31.29-41.55,69.48-24.9,112.52q78.44,202.49,157,404.88c11.59,29.84,23.79,37.7,56,37.77q95.21.2,190.53,0c65.19,0,130.34-.29,195.5.15,24.37.16,41.48-10.12,50.17-32.47C899,936.45,953.25,796.86,1006.36,657,1020.12,620.75,1011.94,586.09,984.44,559ZM270.6,508c9.49-113.34,61.68-198.79,154.34-257.53t0,0q10.92-6.94,22.59-13.36c47.06-26,98.5-36.55,144.05-37.42,2.11,0,4.2.05,6.28.11a.14.14,0,0,1,.09,0l.75,0h.06c.72,0,1.42,0,2.13.06h0c.28,0,.55,0,.8,0h0c65.33,2.21,124,21,173,51.46l.11.07c88.69,55.18,145.79,148.64,153.57,251.62,1.21,16.1,1.78,28.14-21.41,27.62-21.65-.52-41.72,9.67-57.57,25.18-8.15,8-13,10.16-23.38,1.31-44.56-37.77-92-37.72-136,0-10.28,8.82-14.49,6.29-23.19-1-43-36.29-91.77-36.29-134.47-.11-8.66,7.27-12.81,10.05-23.2,1.21-44.65-38-91.5-38-136-.32-10.26,8.65-15.15,7.27-23.48-1a86.38,86.38,0,0,0-60-25.82C272.17,529.66,269.37,522.82,270.6,508Zm141.48,562.35v.08c-13.5,3.33-20.92-7.37-27-23.09Q309.63,850.45,233.23,653.73c-14-36.28-.77-71.09,31.08-81.5,34.84-11.4,68.4,8.81,77.34,47.95,32.87,143.6,64.91,287.38,98.13,430.91C445.58,1076.05,428.75,1068.23,412.08,1070.38Zm109.44-1.46v.1c-15-1-36,11.09-41.93-16.41-14.42-66.74-29.7-133.28-44.65-199.88-15.7-69.86-31.19-139.73-47.22-209.51-9-38.94,5.73-65.41,41.39-72.42s66.9,14.2,70.64,51c6.9,68,11.83,136.32,17,204.51,3.77,49.3,6.68,98.65,10,148h.64c1.7,23.79,3.77,47.6,4.87,71.56C532.71,1054.87,540.28,1070.14,521.52,1068.92ZM657.38,630.79v.08c-.25,6.5,0,13.18,0,19.77h-.57C646.59,784.58,636,918.5,626.51,1052.5c-1.7,24.26-17.89,15.57-30.07,17.08-13.74,1.73-22.66-.15-23.92-18.37C565.49,948.42,557,845.62,549.2,743Q545,687.56,542,632c-2-36.46,21.83-62.28,57-62.64S658.62,594.59,657.38,630.79ZM677.52,1069v.08c-18.65.73-11-14.37-10.6-23.58,1.16-24.71,3.3-49.39,5.06-74.06h.28q11.87-160.28,23.8-320.57a272.43,272.43,0,0,1,4.53-36.79c6.9-31.93,38.95-50.63,72.24-42.8,32.34,7.66,47.6,33.5,40,67.29-31.05,137.2-62.54,274.34-92.57,411.8C713.9,1079.56,693.31,1068.5,677.52,1069ZM966.7,651.6v.09c-51,132.52-102.36,264.87-153,397.52-6.49,16.71-16,23.94-29.51,20.91C769,1068.84,754,1074.9,759.3,1052c33.43-144.86,65.8-290,99-435,8.43-36.78,43.06-56.06,77.16-44.72C966.22,582.51,980,617,966.7,651.6Z"/><path class="cls-2" d="M928.51,503.06c-7.78-103-64.88-196.44-153.57-251.62a176,176,0,0,1-20.79,35.94,358.91,358.91,0,0,1-49.77,53.89c-20.82,18.71-43.67,34.92-66.46,51.18-11,7.78-22,15.56-32.59,23.8-4.05,3.2-6.34,3.59-10.81.58-5.08-3.38-10.16-6.75-15.22-10.16a18.42,18.42,0,0,1-.92,1.77,17.19,17.19,0,0,1-1.56,2.25c-2.85,3.46-6.87,5.43-11.79,6.14l-1,.13a19.87,19.87,0,0,1-8.22-.75,17.12,17.12,0,0,1-3.67-1.66l-.69-.42c-4.26-2.83-7.33-7.58-8.65-13.81-1.55-7.53-3.12-15.06-4.66-22.59q-11.37-8.43-22.41-17.36c-15.67-12.66-30.71-26-44.3-40.5-7.79,19.07-16.6,37.72-25.32,56.41-2.53,5.4-8.84,7-15.72,8h-.1c-13-2.76-23.64-9.95-18.2-25.12,8.06-22.38,18.58-43.9,28.86-65.42a18.15,18.15,0,0,1,4.5-6,221,221,0,0,1-16.56-28.52c-1.39-2.86-2.72-5.76-4-8.67C332.28,309.24,280.09,394.69,270.6,508c-1.23,14.79,1.57,21.63,19.17,22a86.38,86.38,0,0,1,60,25.82c8.33,8.31,13.22,9.69,23.48,1,44.53-37.69,91.38-37.64,136,.32,10.39,8.84,14.54,6.06,23.2-1.21,42.7-36.18,91.43-36.18,134.47.11,8.7,7.31,12.91,9.84,23.19,1,44-37.72,91.48-37.77,136,0,10.41,8.85,15.23,6.7,23.38-1.31,15.85-15.51,35.92-25.7,57.57-25.18C930.29,531.2,929.72,519.16,928.51,503.06Zm-511-13.57c-.17.53-.38,1.07-.6,1.6a22,22,0,0,1-4.38,6.35c-9.91,10.35-20.74,7.92-30.3-1.27q-22.06-21.39-43.63-43.29c-6.81-6.94-9.28-15.15-4.76-24.64a17.94,17.94,0,0,1,1.14-2.09,12.09,12.09,0,0,1,.84-1.23c.13-.2.28-.37.43-.56,3.89-4.82,9.51-5.93,15.88-5.91a20,20,0,0,1,13.33,5.33c9.45,9.46,19,18.74,28.43,28.13,1.89,1.88,3.79,3.75,5.67,5.64s3.76,3.77,5.63,5.67,3.73,3.8,5.59,5.72C416.79,475.21,419.74,482.41,417.46,489.49Zm171.28-26.07a19.09,19.09,0,0,1-1.7,7.21c-.2.39-.4.78-.61,1.16a14.78,14.78,0,0,1-2.36,3.07,15.44,15.44,0,0,1-1.53,1.34c-.36.28-.74.54-1.14.8l-.61.37c-.41.25-.85.48-1.29.7a18.59,18.59,0,0,1-2.17.91c-22.36,8-44.88,15.72-67.67,22.38a15.55,15.55,0,0,1-10.92-.58,2.88,2.88,0,0,1-.62-.28,13,13,0,0,1-1.7-1l-.05,0c-.36-.24-.73-.48-1.07-.75l0,0a16.24,16.24,0,0,1-2.06-1.84,17.3,17.3,0,0,1-1.4-1.56v0A27.15,27.15,0,0,1,488,489c-4-9.22-1-18.83,7-22.75.38-.19.75-.36,1.15-.52h0q4.41-1.79,8.85-3.44c1.48-.56,3-1.11,4.47-1.66q4.46-1.65,8.89-3.19c16.32-5.73,32.52-10.77,47.43-15.81a70.92,70.92,0,0,1,8.48,1.38l.92.23h0l.56.17c.58.16,1.15.34,1.69.54a5,5,0,0,1,.68.25l.54.21a16.92,16.92,0,0,1,2.45,1.21c3.75,2.2,6.23,5.62,7.14,11.16.15.93.27,1.86.34,2.75A28.94,28.94,0,0,1,588.74,463.42Zm141.75-15.08c-2.55,8.8-8.08,13.31-15.38,14.49a30.1,30.1,0,0,1-9.09,0c-1-.14-2.06-.33-3.12-.55-16.19-3.48-32.44-6.67-48.69-9.89,0,0,0,0,0,0l-7-1.39c-12.62-2.53-22.46-8.66-20.62-22.89a19.76,19.76,0,0,1,4-10.17h0a13.27,13.27,0,0,1,1.77-1.82,15.24,15.24,0,0,1,3.54-2.29,18.43,18.43,0,0,1,3.24-1.2,25.26,25.26,0,0,1,2.67-.58,38.45,38.45,0,0,1,8.26-.36c.83,0,1.68.09,2.54.17h.07c20.16,4,40.38,7.73,60.48,11.95,8.18,1.71,14.45,5.38,17,11.27a6.9,6.9,0,0,1,.3.75,14.4,14.4,0,0,1,.67,2.29A20.92,20.92,0,0,1,730.49,448.34ZM784,309.16c-11.1,22.76-23.8,44.74-36.38,66.77-2.27,4-6.35,5.65-11.43,6.22a46.83,46.83,0,0,1-5.29.28h-.06c-13.27-2.84-21.65-12.1-15.28-26.13,9.77-21.63,22.26-41.93,34.23-62.45,3.11-5.35,7.57-8,12.55-8.61a19.08,19.08,0,0,1,4.34,0,25.08,25.08,0,0,1,7,1.86,23,23,0,0,1,5.39,3.14c.52.41,1,.85,1.51,1.31.15.14.3.29.45.46a9.68,9.68,0,0,1,.87.94,16.24,16.24,0,0,1,1.8,2.56c.11.18.2.35.3.54s.19.37.27.56a9.71,9.71,0,0,1,.47,1.11A14.08,14.08,0,0,1,784,309.16Zm92.58,129.62c-16.5,16-33.27,31.68-50.56,46.73-7.22,6.39-16.2,7.37-23.49,2.38a21.38,21.38,0,0,1-3.23-2.72c-8.65-8.66-8.1-19.82.82-28.45C816,441.28,832.59,426.42,849,411.8a18.66,18.66,0,0,1,22.88-2.39A17.62,17.62,0,0,1,874,410.8a16.22,16.22,0,0,1,1.87,1.62c3.47,3.46,5.43,8.28,6.37,14.51C880.78,430.2,879.81,435.59,876.59,438.78Z"/><path class="cls-2" d="M966.7,651.6v.09c-51,132.52-102.36,264.87-153,397.52-6.49,16.71-16,23.94-29.51,20.91C769,1068.84,754,1074.9,759.3,1052c33.43-144.86,65.8-290,99-435,8.43-36.78,43.06-56.06,77.16-44.72C966.22,582.51,980,617,966.7,651.6Z"/><path class="cls-2" d="M812.83,638.61c-31.05,137.2-62.54,274.34-92.57,411.8-6.36,29.15-27,18.09-42.74,18.63v.08c-18.65.73-11-14.37-10.6-23.58,1.16-24.71,3.3-49.39,5.06-74.06h.28q11.87-160.28,23.8-320.57a272.43,272.43,0,0,1,4.53-36.79c6.9-31.93,38.95-50.63,72.24-42.8C805.17,579,820.43,604.82,812.83,638.61Z"/><path class="cls-2" d="M657.38,630.79v.08c-.25,6.5,0,13.18,0,19.77h-.57C646.59,784.58,636,918.5,626.51,1052.5c-1.7,24.26-17.89,15.57-30.07,17.08-13.74,1.73-22.66-.15-23.92-18.37C565.49,948.42,557,845.62,549.2,743Q545,687.56,542,632c-2-36.46,21.83-62.28,57-62.64S658.62,594.59,657.38,630.79Z"/><path class="cls-2" d="M412.08,1070.38v.08c-13.5,3.33-20.92-7.37-27-23.09Q309.63,850.45,233.23,653.73c-14-36.28-.77-71.09,31.08-81.5,34.84-11.4,68.4,8.81,77.34,47.95,32.87,143.6,64.91,287.38,98.13,430.91C445.58,1076.05,428.75,1068.23,412.08,1070.38Z"/><path class="cls-2" d="M521.52,1068.92v.1c-15-1-36,11.09-41.93-16.41-14.42-66.74-29.7-133.28-44.65-199.88-15.7-69.86-31.19-139.73-47.22-209.51-9-38.94,5.73-65.41,41.39-72.42s66.9,14.2,70.64,51c6.9,68,11.83,136.32,17,204.51,3.77,49.3,6.68,98.65,10,148h.64c1.7,23.79,3.77,47.6,4.87,71.56C532.71,1054.87,540.28,1070.14,521.52,1068.92Z"/><path class="cls-2" d="M417.46,489.49c-.17.53-.38,1.07-.6,1.6a22,22,0,0,1-4.38,6.35c-9.91,10.35-20.74,7.92-30.3-1.27q-7.05-6.85-14.06-13.79-14.89-14.64-29.57-29.5c-6.81-6.94-9.28-15.15-4.76-24.64a17.94,17.94,0,0,1,1.14-2.09,12.09,12.09,0,0,1,.84-1.23l.43-.56c3.91-4.73,9.48-5.81,15.81-5.8a19.94,19.94,0,0,1,13.34,5.33c9.44,9.37,19,18.64,28.49,28,1.89,1.88,3.79,3.75,5.67,5.64s3.76,3.78,5.63,5.67,3.73,3.8,5.59,5.72C416.79,475.21,419.74,482.41,417.46,489.49Z"/><path class="cls-2" d="M476.66,306.36c-1.67,4.45-3.43,8.89-5.22,13.3h0a.53.53,0,0,0-.06.14c-7.8,19.09-16.62,37.77-25.34,56.47-2.52,5.39-8.82,7-15.68,8h-.06c-13-2.76-23.64-9.95-18.2-25.12,8.06-22.38,18.58-43.9,28.86-65.42a18.15,18.15,0,0,1,4.5-6,.18.18,0,0,1,.09-.07,15.72,15.72,0,0,1,9.54-3.68,17.85,17.85,0,0,1,2.07,0,25.74,25.74,0,0,1,7,1.39C473.89,288.62,480.16,297.3,476.66,306.36Z"/><path class="cls-2" d="M580.32,403.89s0,0,0,0a19.57,19.57,0,0,1-1,2.7.25.25,0,0,1,0,.07,18.42,18.42,0,0,1-.92,1.77,17.19,17.19,0,0,1-1.56,2.25c-2.86,3.42-6.89,5.39-11.79,6.14l-1,.13a19.87,19.87,0,0,1-8.22-.75,17.12,17.12,0,0,1-3.67-1.66l-.69-.42c-4.26-2.83-7.33-7.58-8.65-13.81-1.55-7.53-3.12-15.06-4.66-22.59,0,0,0-.05,0-.07q-3.3-16.11-6.43-32.25c-.16-.81-.32-1.64-.47-2.45-.35-1.82-.7-3.63-1-5.46-.19-1-.32-1.93-.41-2.87a24.7,24.7,0,0,1,0-5.3c.86-8.24,6-14.2,15.36-16.22,12.2-2.64,20.49,3.42,23.2,16.1,4.63,21.64,9.3,43.42,13,60.43v.05c0,.42.07.82.1,1.22A36.69,36.69,0,0,1,580.32,403.89Z"/><path class="cls-2" d="M588.74,463.42a19.09,19.09,0,0,1-1.7,7.21c-.2.39-.4.78-.61,1.16a14.78,14.78,0,0,1-2.36,3.07,15.44,15.44,0,0,1-1.53,1.34c-.36.28-.74.54-1.14.8l-.61.37c-.41.25-.85.48-1.29.7a18.59,18.59,0,0,1-2.17.91c-22.36,8-44.88,15.72-67.67,22.38a15.55,15.55,0,0,1-10.92-.58,2.88,2.88,0,0,1-.62-.28,13,13,0,0,1-1.7-1l-.05,0c-.36-.24-.73-.48-1.07-.75l0,0a16.24,16.24,0,0,1-2.06-1.84,17.3,17.3,0,0,1-1.4-1.56v0A27.15,27.15,0,0,1,488,489c-4-9.22-1-18.83,7-22.75.38-.19.75-.36,1.15-.52h0q4.41-1.79,8.85-3.44c1.48-.56,3-1.11,4.47-1.66,3-1.08,5.93-2.16,8.89-3.19,16.32-5.73,32.52-10.77,47.43-15.81a70.92,70.92,0,0,1,8.48,1.38l.92.23h0l.56.16c.58.16,1.15.34,1.69.54a6.82,6.82,0,0,1,.68.25l.54.21a19.93,19.93,0,0,1,2.45,1.21c3.51,2.08,5.89,5.21,6.93,10.14.08.35.15.73.21,1.1.15.91.26,1.8.34,2.67,0,.24,0,.47,0,.71h0A28.83,28.83,0,0,1,588.74,463.42Z"/><path class="cls-2" d="M637.1,302.31c-8.9,8.42-19.91,7.23-28.68-1.12-16-15.3-31.55-31.1-46.89-47.07a17.74,17.74,0,0,1-2.47-22.68,17.94,17.94,0,0,1,16.3-9.32,21.45,21.45,0,0,1,15.45,6.49c15.15,15,30.49,29.84,45.31,45.18C644.63,282.69,646.4,293.51,637.1,302.31Z"/><path class="cls-2" d="M730.49,448.34c-2.55,8.8-8.08,13.31-15.38,14.49a30.1,30.1,0,0,1-9.09,0c-1-.14-2-.33-3.07-.55-16.21-3.5-32.47-6.67-48.74-9.89,0,0,0,0,0,0-2.31-.48-4.62-.93-6.93-1.39-12.62-2.53-22.47-8.66-20.63-22.89a19.75,19.75,0,0,1,3.94-10.17h0a14.51,14.51,0,0,1,1.77-1.82,15.24,15.24,0,0,1,3.54-2.29,18.94,18.94,0,0,1,3.24-1.2,25.26,25.26,0,0,1,2.67-.58,39.78,39.78,0,0,1,8.26-.36c.83,0,1.68.09,2.54.17,20.17,4,40.38,7.73,60.48,11.95,8.2,1.71,14.47,5.4,17.11,11.27.1.25.21.49.3.75a14.4,14.4,0,0,1,.67,2.29A20.92,20.92,0,0,1,730.49,448.34Z"/><path class="cls-2" d="M783.94,309.16c-11.1,22.76-23.8,44.74-36.37,66.77-2.28,4-6.32,5.64-11.37,6.22a46.83,46.83,0,0,1-5.29.28h-.06c-13.27-2.84-21.65-12.1-15.28-26.13,9.77-21.63,22.26-41.93,34.23-62.45,3.11-5.35,7.57-8,12.55-8.61a19.08,19.08,0,0,1,4.34,0,25,25,0,0,1,6.91,1.86,23.74,23.74,0,0,1,5.45,3.14c.52.41,1,.85,1.51,1.31l.45.46c.31.3.59.62.87.94a16.24,16.24,0,0,1,1.8,2.56c.11.18.2.37.3.54s.19.37.27.56a11.9,11.9,0,0,1,.47,1.11A14.15,14.15,0,0,1,783.94,309.16Z"/><path class="cls-2" d="M882.28,426.93c-1.5,3.27-2.47,8.66-5.69,11.85-16.5,16-33.27,31.68-50.56,46.73-7.22,6.32-16.2,7.35-23.49,2.38a21.38,21.38,0,0,1-3.23-2.72c-8.65-8.66-8.1-19.82.82-28.45C816,441.28,832.59,426.42,849,411.8a18.66,18.66,0,0,1,22.88-2.39A17.62,17.62,0,0,1,874,410.8a16.22,16.22,0,0,1,1.87,1.62C879.38,415.88,881.34,420.7,882.28,426.93Z"/><path class="cls-4" d="M476.66,306.36c-1.67,4.45-3.43,8.89-5.22,13.3h0a.53.53,0,0,0-.06.14c-7.8,19.09-16.62,37.77-25.34,56.47-2.52,5.39-8.82,7-15.68,8h-.06c-13-2.76-23.64-9.95-18.2-25.12,8.06-22.38,18.58-43.9,28.86-65.42a18.15,18.15,0,0,1,4.5-6,.18.18,0,0,1,.09-.07,15.72,15.72,0,0,1,9.54-3.68,17.85,17.85,0,0,1,2.07,0,25.74,25.74,0,0,1,7,1.39C473.89,288.62,480.16,297.3,476.66,306.36Z"/><path class="cls-5" d="M417.46,489.49c-.18.53-.38,1.06-.6,1.6a22,22,0,0,1-4.38,6.35c-9.91,10.35-20.74,7.92-30.3-1.27q-7.05-6.85-14.06-13.79-14.89-14.64-29.57-29.5c-6.81-6.94-9.28-15.15-4.76-24.64a17.94,17.94,0,0,1,1.14-2.09,12.09,12.09,0,0,1,.84-1.23l.43-.56c3.91-4.73,9.48-5.81,15.81-5.8a19.94,19.94,0,0,1,13.34,5.33C380.49,439,395.84,453.73,410.66,469,416.77,475.23,419.73,482.41,417.46,489.49Z"/><path class="cls-6" d="M580.32,403.89s0,0,0,0a22.55,22.55,0,0,1-1,2.7l0,.06a16.51,16.51,0,0,1-.91,1.78,17.19,17.19,0,0,1-1.56,2.25c-2.85,3.46-6.87,5.43-11.79,6.14l-1,.13a19.87,19.87,0,0,1-8.22-.75,17.35,17.35,0,0,1-3.67-1.66l-.69-.42c-4.25-2.84-7.32-7.58-8.63-13.81q-2.33-11.28-4.64-22.56a.26.26,0,0,0,0-.08q-3.3-16.12-6.45-32.27c-.16-.81-.32-1.64-.47-2.45-.36-1.8-.7-3.6-1-5.4a28.23,28.23,0,0,1-.41-2.93,24.7,24.7,0,0,1,0-5.3c.88-8.19,6.05-14.14,15.36-16.15,12.2-2.65,20.49,3.42,23.2,16.1,4.63,21.63,9.3,43.41,13,60.41,0,.42.07.82.1,1.22A37.21,37.21,0,0,1,580.32,403.89Z"/><path class="cls-7" d="M730.49,448.34c-2.55,8.8-8.08,13.31-15.38,14.49a30.1,30.1,0,0,1-9.09,0c-1-.14-2-.33-3.07-.55-16.21-3.5-32.47-6.67-48.74-9.89,0,0,0,0,0,0-2.31-.48-4.62-.93-6.93-1.39-12.62-2.53-22.47-8.66-20.63-22.89a19.75,19.75,0,0,1,3.94-10.17h0a14.51,14.51,0,0,1,1.77-1.82,15.24,15.24,0,0,1,3.54-2.29,18.94,18.94,0,0,1,3.24-1.2,25.26,25.26,0,0,1,2.67-.58,39.78,39.78,0,0,1,8.26-.36c.83,0,1.68.09,2.54.17,20.17,4,40.38,7.73,60.48,11.95,8.2,1.71,14.47,5.4,17.11,11.27.1.25.21.49.3.75a14.4,14.4,0,0,1,.67,2.29A20.92,20.92,0,0,1,730.49,448.34Z"/><path class="cls-8" d="M588.73,463.5a21,21,0,0,1-.45,3.33c-.11.52-.25,1-.4,1.51s-.28.87-.45,1.29l-.08.2c-.1.27-.19.54-.31.8s-.4.78-.61,1.16a15.61,15.61,0,0,1-2.36,3.07,15.44,15.44,0,0,1-1.53,1.34c-.36.28-.74.54-1.14.8l-.61.37c-.41.25-.85.48-1.29.7a18.59,18.59,0,0,1-2.17.91c-22.36,8-44.88,15.72-67.67,22.38a15.55,15.55,0,0,1-10.92-.58,2.88,2.88,0,0,1-.62-.28,13,13,0,0,1-1.7-1l-.05,0c-.36-.24-.73-.48-1.07-.75l0,0a16.24,16.24,0,0,1-2.06-1.84,17.3,17.3,0,0,1-1.4-1.56v0A27.15,27.15,0,0,1,488,489c-4-9.22-1-18.83,7-22.75.38-.19.75-.36,1.15-.52h0q4.41-1.79,8.85-3.44c1.48-.56,3-1.11,4.47-1.66,3-1.08,5.93-2.16,8.89-3.19,16.32-5.73,32.52-10.77,47.43-15.81a70.92,70.92,0,0,1,8.48,1.38l.92.23h0l.56.16c.58.16,1.15.34,1.69.54a6.82,6.82,0,0,1,.68.25l.54.21a19.93,19.93,0,0,1,2.45,1.21c3.51,2.08,5.89,5.21,6.93,10.14.07.33.13.67.19,1A32.22,32.22,0,0,1,588.73,463.5Z"/><path class="cls-8" d="M637.1,302.31c-8.9,8.42-19.91,7.23-28.68-1.12-16-15.3-31.55-31.1-46.89-47.07a17.74,17.74,0,0,1-2.47-22.68,17.94,17.94,0,0,1,16.3-9.32,21.45,21.45,0,0,1,15.45,6.49c15.15,15,30.49,29.84,45.31,45.18C644.63,282.69,646.4,293.51,637.1,302.31Z"/><path class="cls-9" d="M783.94,309.16c-11.1,22.76-23.8,44.74-36.37,66.77-2.28,4-6.32,5.64-11.37,6.22a46.83,46.83,0,0,1-5.29.28h-.06c-13.27-2.84-21.65-12.1-15.28-26.13,9.77-21.63,22.26-41.93,34.23-62.45,3.11-5.35,7.57-8,12.55-8.61a19.08,19.08,0,0,1,4.34,0,25,25,0,0,1,6.91,1.86,23.74,23.74,0,0,1,5.45,3.14c.52.41,1,.85,1.51,1.31l.45.46c.31.3.59.62.87.94a16.24,16.24,0,0,1,1.8,2.56c.11.18.2.37.3.54s.19.37.27.56a11.9,11.9,0,0,1,.47,1.11A14.15,14.15,0,0,1,783.94,309.16Z"/><path class="cls-9" d="M882.28,426.93c-1.5,3.27-2.47,8.66-5.69,11.85-16.5,16-33.27,31.68-50.56,46.73-7.22,6.32-16.2,7.35-23.49,2.38a21.38,21.38,0,0,1-3.23-2.72c-8.65-8.66-8.1-19.82.82-28.45C816,441.28,832.59,426.42,849,411.8a18.66,18.66,0,0,1,22.88-2.39A17.62,17.62,0,0,1,874,410.8a16.22,16.22,0,0,1,1.87,1.62C879.38,415.88,881.34,420.7,882.28,426.93Z"/></g><g id="Layer_4" data-name="Layer 4"><path class="cls-10" d="M784.34,211.56c-1.82,28.58-13.83,53.25-30.3,75.74a360.38,360.38,0,0,1-49.77,53.88c-20.84,18.72-43.67,34.93-66.48,51.18-11,7.79-22,15.56-32.46,23.8-4,3.2-6.34,3.59-10.82.59-26.94-17.88-53.68-36.08-78.79-56.46-35-28.46-66.84-60-86.88-101.41C421.59,244,416,228.37,415.53,211.43a66.42,66.42,0,0,1,0-23.94,14.56,14.56,0,0,1,1.49-9.71c.16-1.06.33-2.17.48-3.21C433.08,101.35,523,64.77,587.11,114.13c4.07,3.14,6.49,8.34,11.13,11,2.27.26,3.76-1.34,5.47-2.38A115.29,115.29,0,0,1,653,95.65c25.68-6.77,48.86-3.89,71.78,6.73,13.35,6.19,23.52,16.56,34,27.36,13.79,14.3,20.39,30.53,24.93,48.64a53.27,53.27,0,0,1,.84,9.09A65.91,65.91,0,0,1,784.34,211.56Z"/><path class="cls-10" d="M784.35,211.49a1,1,0,0,0,.1.15,122.27,122.27,0,0,1-9.51,39.8,176,176,0,0,1-20.79,35.94,358.91,358.91,0,0,1-49.77,53.89c-20.82,18.71-43.67,34.92-66.46,51.18-11,7.78-22,15.56-32.59,23.8-4.05,3.2-6.34,3.59-10.81.58-5.08-3.38-10.16-6.75-15.22-10.16h0c-13.9-9.36-27.67-18.91-41.1-28.9a0,0,0,0,1,0,0q-11.37-8.43-22.41-17.36c-15.67-12.66-30.71-26-44.3-40.5a.09.09,0,0,1-.06-.06,265.34,265.34,0,0,1-25.88-32.07l0-.05a221,221,0,0,1-16.56-28.52c-1.39-2.86-2.72-5.76-4-8.67A127.72,127.72,0,0,1,418.79,233c-.12-.4-.23-.82-.32-1.22s-.25-1-.38-1.5A1.43,1.43,0,0,0,418,230a89.61,89.61,0,0,1-2.42-18.25,8.07,8.07,0,0,0,1.34-2c0-.41.07-.82.09-1.22.1-1.12.17-2.23.22-3.33q.15-3.9,0-7.77a48.78,48.78,0,0,0-.33-5c-.7-1.47-.22-3.3-1.37-4.62l0-.21a10.42,10.42,0,0,1-.19-1.46c0-.18,0-.37,0-.56a14.5,14.5,0,0,1,1.76-7.49c.84.43.67,1.53,1.41,2.05-.66-1.68.26-3.65-.94-5.26C433.1,101.63,523,65.06,587.11,114.41c4.06,3.11,6.44,8.24,11,10.94a.43.43,0,0,0,.13.09c2,1.3,3.11.71,4-.39.51-.59,1-1.34,1.44-2A115.2,115.2,0,0,1,653,95.94c25.71-6.78,48.88-3.9,71.79,6.72,13.34,6.19,23.53,16.57,34,27.36,13.81,14.31,20.41,30.53,25,48.64a56.57,56.57,0,0,1,.82,9.09,8,8,0,0,0-1.36,2c-.18,1.6-.26,3.2-.32,4.82v8.11a54.84,54.84,0,0,0,.13,5.57c.06.25.13.49.2.73A10.25,10.25,0,0,0,784.35,211.49Z"/><path class="cls-10" d="M600.68,211.67h-1.62a66.42,66.42,0,0,1,0-23.94,3.93,3.93,0,0,1,1.71,3.66A48.81,48.81,0,0,1,600.68,211.67Z"/><path class="cls-10" d="M600.7,211.56c-.58-.63-1.12-1.24-1.71-1.84a56.13,56.13,0,0,1,0-22.14h1.69A66,66,0,0,1,600.7,211.56Z"/><path class="cls-10" d="M602.61,123c-.15,2.16-.61,4.15-2.86,4.86s-2.29-1.1-2.64-2.48C599.38,125.63,600.88,124,602.61,123Z"/><path class="cls-10" d="M599.86,182.13,599,178c.15-1.06.3-2.16.48-3.2C601.76,176.93,600.7,179.44,599.86,182.13Z"/><path class="cls-10" d="M601,187.75v22.14A29,29,0,0,1,601,187.75Z"/><path class="cls-10" d="M598.73,211.67v-20.3A24,24,0,0,1,598.73,211.67Z"/></g></svg>