<svg width="220" height="220" viewBox="0 0 220 220" fill="none" xmlns="http://www.w3.org/2000/svg">
<g clip-path="url(#clip0_31_561)">
<path opacity="0.1" d="M110 220C170.751 220 220 170.974 220 110.498C220 50.0213 170.751 0.995476 110 0.995476C49.2487 0.995476 0 50.0213 0 110.498C0 170.974 49.2487 220 110 220Z" fill="#231F20"/>
<path d="M110 204.072C165.228 204.072 210 159.503 210 104.525C210 49.5463 165.228 4.97738 110 4.97738C54.7715 4.97738 10 49.5463 10 104.525C10 159.503 54.7715 204.072 110 204.072Z" fill="white" stroke="#F1F2F2" stroke-width="10" stroke-miterlimit="10"/>
<path d="M90.52 62.4063C90.267 62.1887 90.095 61.8926 90.0315 61.5658C89.968 61.239 90.0168 60.9004 90.17 60.6045C90.2898 60.361 90.484 60.1614 90.7247 60.0344C90.9654 59.9075 91.2403 59.8596 91.51 59.8977C91.8814 59.893 92.24 60.0322 92.51 60.286C93.62 61.391 94.76 62.4661 95.85 63.5909C96.0082 63.7121 96.1384 63.8657 96.2316 64.0413C96.3249 64.217 96.379 64.4105 96.3904 64.6089C96.4018 64.8072 96.3701 65.0057 96.2976 65.1907C96.2251 65.3758 96.1133 65.5432 95.97 65.6814C95.8307 65.8434 95.6561 65.9716 95.4596 66.0564C95.263 66.1412 95.0496 66.1802 94.8356 66.1706C94.6216 66.161 94.4127 66.103 94.2246 66.001C94.0365 65.899 93.8742 65.7557 93.75 65.5819C92.6567 64.5134 91.58 63.4549 90.52 62.4063Z" fill="white"/>
<path d="M95.9301 55.5575C96.5301 53.9149 97.3001 52.3421 98.0501 50.7692C98.1954 50.4624 98.4568 50.2252 98.7772 50.1096C99.0976 49.9939 99.451 50.0092 99.7601 50.152C99.9262 50.1862 100.083 50.2545 100.221 50.3526C100.359 50.4506 100.476 50.5763 100.562 50.7215C100.649 50.8667 100.704 51.0282 100.724 51.1959C100.745 51.3635 100.729 51.5335 100.68 51.695C100.02 53.4371 99.2201 55.1195 98.4301 56.8118C98.2401 57.21 97.7801 57.3195 97.2701 57.3991C96.3201 57.19 95.5301 56.6624 95.9301 55.5575Z" fill="white"/>
<path d="M104.61 54.0244C104.55 53.8347 104.532 53.6343 104.556 53.4368C104.58 53.2394 104.647 53.0494 104.751 52.8796C104.855 52.7099 104.995 52.5643 105.16 52.4527C105.326 52.3411 105.513 52.266 105.71 52.2326C105.901 52.1789 106.102 52.1682 106.298 52.2013C106.494 52.2343 106.68 52.3103 106.842 52.4236C107.005 52.537 107.14 52.685 107.239 52.8568C107.337 53.0286 107.395 53.22 107.41 53.4172C107.75 55 108.1 56.5928 108.41 57.8371C108.72 59.0814 108.01 59.7484 107.15 59.828C106.968 59.8503 106.782 59.8366 106.605 59.7876C106.428 59.7386 106.262 59.6553 106.117 59.5425C105.972 59.4298 105.851 59.2897 105.761 59.1303C105.67 58.9709 105.612 58.7953 105.59 58.6136C105.22 57.0109 104.9 55.5077 104.61 54.0244Z" fill="white"/>
<path d="M101.51 65.0543C101.43 64.9047 101.382 64.7401 101.369 64.571C101.356 64.4019 101.378 64.232 101.434 64.0719C101.491 63.9119 101.58 63.7653 101.696 63.6413C101.813 63.5174 101.954 63.4189 102.11 63.352C103.84 62.6652 105.64 62.1276 107.23 61.59C108.14 61.6896 108.75 61.8787 108.88 62.705C108.98 63.0272 108.952 63.3754 108.801 63.6775C108.65 63.9795 108.389 64.2123 108.07 64.3276C106.43 64.9149 104.77 65.4724 103.07 65.9602C102.743 66.0373 102.399 65.9862 102.108 65.8176C101.818 65.649 101.604 65.3757 101.51 65.0543Z" fill="white"/>
<path d="M106.91 47.8724C106.687 47.6613 106.547 47.3784 106.514 47.074C106.481 46.7696 106.558 46.4635 106.73 46.21C106.847 45.9968 107.021 45.82 107.233 45.6989C107.445 45.5777 107.686 45.5169 107.93 45.5231C108.357 45.5301 108.763 45.7056 109.06 46.0109C110.18 47.1059 111.31 48.1909 112.4 49.3158C112.556 49.4387 112.683 49.594 112.773 49.7709C112.863 49.9477 112.913 50.1419 112.919 50.34C112.926 50.538 112.889 50.7351 112.812 50.9175C112.734 51.0999 112.618 51.2634 112.47 51.3964C112.33 51.5359 112.162 51.645 111.978 51.717C111.793 51.789 111.596 51.8223 111.398 51.8149C111.199 51.8074 111.005 51.7593 110.827 51.6736C110.648 51.5879 110.489 51.4664 110.36 51.3167C109.18 50.1919 108.04 49.0471 106.91 47.8724Z" fill="white"/>
<path d="M113.61 59.4099C115.09 59.6986 116.61 59.9774 118.06 60.286C119.06 60.4851 119.63 61.0624 119.33 62.0878C119.03 63.1131 118.28 63.3122 117.33 63.0833C115.97 62.7946 114.6 62.5258 113.23 62.257C112.31 62.0679 111.58 61.6299 111.72 60.5846C111.86 59.5394 112.68 59.3303 113.61 59.4099Z" fill="white"/>
<path d="M118.24 55.3484C118.96 53.7756 119.88 52.2823 120.76 50.7792C120.927 50.4828 121.204 50.264 121.532 50.1707C121.86 50.0774 122.212 50.1173 122.51 50.2814C122.673 50.3283 122.824 50.4091 122.953 50.5186C123.081 50.6281 123.185 50.7637 123.257 50.9164C123.329 51.069 123.368 51.2352 123.37 51.4038C123.372 51.5725 123.338 51.7396 123.27 51.8941C122.45 53.5665 121.52 55.1692 120.59 56.7819C120.37 57.1701 119.92 57.2597 119.36 57.2597C118.39 57.0109 117.77 56.3738 118.24 55.3484Z" fill="white"/>
<path d="M124.39 64.7756C124.243 64.6424 124.127 64.4793 124.05 64.2974C123.972 64.1155 123.935 63.9191 123.941 63.7216C123.947 63.5241 123.995 63.3302 124.083 63.153C124.171 62.9759 124.296 62.8196 124.45 62.695C125.62 61.5701 126.83 60.4851 128.05 59.41C128.27 59.1974 128.554 59.0643 128.859 59.0318C129.163 58.9994 129.47 59.0694 129.73 59.2308C129.951 59.3682 130.136 59.5566 130.268 59.7802C130.4 60.0038 130.476 60.2558 130.49 60.5149C130.406 60.8274 130.264 61.1212 130.07 61.381C128.86 62.5557 127.63 63.7005 126.36 64.8054C126.231 64.9363 126.077 65.0398 125.906 65.1095C125.736 65.1792 125.553 65.2137 125.369 65.2109C125.184 65.2081 125.003 65.1681 124.834 65.0932C124.666 65.0184 124.515 64.9103 124.39 64.7756Z" fill="white"/>
<path d="M138 70.181C137.596 69.799 137.28 69.334 137.075 68.8183C136.869 68.3026 136.779 67.7485 136.81 67.1946C136.48 50.391 120.2 37.8181 103.81 41.6507C97.8426 42.9651 92.4976 46.2511 88.6448 50.974C84.7919 55.6969 82.6579 61.5787 82.59 67.6624C82.633 68.0447 82.5878 68.4317 82.4578 68.794C82.3278 69.1563 82.1166 69.4842 81.84 69.7529C80.6733 70.7377 79.8628 72.0757 79.5323 73.5624C79.2018 75.0492 79.3696 76.6027 80.01 77.9855C83.8634 87.8606 87.7134 97.7391 91.56 107.621C92.41 109.801 93.3 110.378 95.68 110.378C100.34 110.378 105.01 110.378 109.68 110.378C114.35 110.378 119.27 110.378 124.06 110.378C124.852 110.452 125.645 110.259 126.313 109.829C126.98 109.399 127.483 108.758 127.74 108.009C131.74 97.7955 135.74 87.5819 139.61 77.3385C140.114 76.1254 140.229 74.7873 139.941 73.5064C139.653 72.2256 138.975 71.0643 138 70.181ZM85.52 66.448C86.28 57.4887 90.68 50.9186 98.52 46.6181C101.778 44.8727 105.41 43.9337 109.11 43.8805C123 43.9801 132.98 54.1638 133.88 66.0796C133.97 67.2643 134.01 68.1403 132.31 68.0706C131.516 68.0846 130.732 68.2585 130.007 68.5818C129.282 68.9052 128.63 69.3713 128.09 69.952C127.49 70.5394 127.09 70.6986 126.37 70.0516C123.09 67.2842 119.6 67.2941 116.37 70.0516C115.61 70.6986 115.3 70.5095 114.66 69.9719C113.333 68.6964 111.56 67.9836 109.715 67.9836C107.87 67.9836 106.097 68.6964 104.77 69.9719C104.14 70.5095 103.83 70.7086 103.07 70.0615C99.79 67.2842 96.34 67.2842 93.07 70.0615C92.31 70.6986 91.95 70.5891 91.34 69.9819C90.1754 68.8011 88.5921 68.122 86.93 68.0905C85.68 68.0407 85.43 67.533 85.52 66.448ZM95.93 107.611C94.93 107.85 94.39 107.063 93.93 105.919C90.2367 96.3023 86.52 86.6992 82.78 77.1095C81.78 74.4516 82.72 71.9032 85.06 71.1367C87.62 70.3005 90.06 71.7738 90.75 74.6407C93.16 85.1529 95.52 95.6751 97.96 106.177C98.39 108.019 97.15 107.452 95.93 107.611ZM103.93 107.501C102.83 107.432 101.28 108.318 100.85 106.297C99.79 101.419 98.66 96.5511 97.57 91.6733C96.41 86.5566 95.27 81.4498 94.09 76.343C93.43 73.486 94.52 71.5547 97.09 71.0371C97.6817 70.8905 98.2983 70.8742 98.8969 70.9894C99.4955 71.1045 100.062 71.3484 100.556 71.7038C101.05 72.0593 101.46 72.5178 101.758 73.0474C102.056 73.577 102.234 74.1649 102.28 74.7701C102.79 79.7475 103.15 84.7249 103.53 89.7023C103.81 93.3158 104.03 96.9294 104.27 100.533C104.4 102.275 104.55 104.017 104.63 105.769C104.79 106.476 105.35 107.591 103.97 107.501H103.93ZM113.93 75.4371C113.93 75.9149 113.93 76.4326 113.93 76.8805C113.18 86.686 112.4 96.4914 111.71 106.297C111.59 108.069 110.4 107.432 109.5 107.541C108.6 107.651 107.83 107.541 107.74 106.197C107.22 98.6715 106.6 91.1656 106.03 83.6398C105.82 80.9421 105.65 78.2244 105.5 75.5167C105.455 74.9387 105.53 74.3576 105.72 73.8095C105.91 73.2614 106.211 72.7581 106.605 72.3307C106.998 71.9033 107.476 71.561 108.008 71.325C108.54 71.0891 109.115 70.9645 109.697 70.959C110.28 70.9536 110.857 71.0673 111.393 71.2932C111.93 71.5192 112.414 71.8524 112.815 72.2723C113.217 72.6923 113.528 73.1899 113.728 73.7343C113.928 74.2787 114.014 74.8583 113.98 75.4371H113.93ZM115.41 107.511C114.04 107.511 114.6 106.456 114.63 105.779C114.72 103.977 114.87 102.166 115 100.364C115.58 92.5394 116.163 84.7183 116.75 76.9005C116.8 75.9982 116.91 75.1002 117.08 74.2127C117.213 73.6544 117.457 73.1285 117.798 72.6663C118.139 72.2041 118.571 71.815 119.066 71.5224C119.562 71.2297 120.111 71.0394 120.683 70.9629C121.254 70.8864 121.834 70.9251 122.39 71.0769C122.934 71.1704 123.451 71.3808 123.905 71.6935C124.359 72.0061 124.739 72.4134 125.019 72.8872C125.299 73.3609 125.472 73.8896 125.525 74.4366C125.579 74.9836 125.512 75.5356 125.33 76.0543C123.05 86.0986 120.74 96.133 118.53 106.197C118.11 108.278 116.6 107.462 115.44 107.511H115.41ZM136.68 76.9204C132.93 86.6163 129.15 96.3023 125.43 106.008C124.96 107.233 124.25 107.76 123.26 107.541C122.27 107.322 121.04 107.89 121.43 106.217C123.89 95.6154 126.27 84.9937 128.71 74.362C128.824 73.7527 129.068 73.175 129.427 72.6685C129.786 72.1621 130.251 71.7389 130.789 71.4278C131.328 71.1168 131.927 70.9253 132.547 70.8664C133.167 70.8076 133.792 70.8828 134.38 71.0869C136.68 71.943 137.68 74.4217 136.68 76.9204Z" fill="white"/>
<path d="M90.52 62.4063C90.267 62.1887 90.095 61.8926 90.0315 61.5658C89.968 61.239 90.0168 60.9004 90.17 60.6045C90.2898 60.361 90.484 60.1614 90.7247 60.0344C90.9654 59.9075 91.2403 59.8596 91.51 59.8977C91.8814 59.893 92.24 60.0322 92.51 60.286C93.62 61.391 94.76 62.4661 95.85 63.5909C96.0082 63.7121 96.1384 63.8657 96.2316 64.0413C96.3249 64.217 96.379 64.4105 96.3904 64.6089C96.4018 64.8072 96.3701 65.0057 96.2976 65.1907C96.2251 65.3758 96.1133 65.5432 95.97 65.6814C95.8307 65.8434 95.6561 65.9716 95.4596 66.0564C95.263 66.1412 95.0496 66.1802 94.8356 66.1706C94.6216 66.161 94.4127 66.103 94.2246 66.001C94.0365 65.899 93.8742 65.7557 93.75 65.5819C92.6567 64.5134 91.58 63.4549 90.52 62.4063Z" fill="#030303"/>
<path d="M95.9301 55.5575C96.5301 53.9149 97.3001 52.3421 98.0501 50.7692C98.1954 50.4624 98.4568 50.2252 98.7772 50.1096C99.0976 49.9939 99.451 50.0092 99.7601 50.152C99.9262 50.1862 100.083 50.2545 100.221 50.3526C100.359 50.4506 100.476 50.5763 100.562 50.7215C100.649 50.8667 100.704 51.0282 100.724 51.1959C100.745 51.3635 100.729 51.5335 100.68 51.695C100.02 53.4371 99.2201 55.1195 98.4301 56.8118C98.2401 57.21 97.7801 57.3195 97.2701 57.3991C96.3201 57.19 95.5301 56.6624 95.9301 55.5575Z" fill="#030303"/>
<path d="M104.61 54.0244C104.55 53.8347 104.532 53.6343 104.556 53.4368C104.58 53.2394 104.647 53.0494 104.751 52.8796C104.855 52.7099 104.995 52.5643 105.16 52.4527C105.326 52.3411 105.513 52.266 105.71 52.2326C105.901 52.1789 106.102 52.1682 106.298 52.2013C106.494 52.2343 106.68 52.3103 106.842 52.4236C107.005 52.537 107.14 52.685 107.239 52.8568C107.337 53.0286 107.395 53.22 107.41 53.4172C107.75 55 108.1 56.5928 108.41 57.8371C108.72 59.0814 108.01 59.7484 107.15 59.828C106.968 59.8503 106.782 59.8366 106.605 59.7876C106.428 59.7386 106.262 59.6553 106.117 59.5425C105.972 59.4298 105.851 59.2897 105.761 59.1303C105.67 58.9709 105.612 58.7953 105.59 58.6136C105.22 57.0109 104.9 55.5077 104.61 54.0244Z" fill="#030303"/>
<path d="M101.51 65.0543C101.43 64.9047 101.382 64.7401 101.369 64.571C101.356 64.4019 101.378 64.232 101.434 64.0719C101.491 63.9119 101.58 63.7653 101.696 63.6413C101.813 63.5174 101.954 63.4189 102.11 63.352C103.84 62.6652 105.64 62.1276 107.23 61.59C108.14 61.6896 108.75 61.8787 108.88 62.705C108.98 63.0272 108.952 63.3754 108.801 63.6775C108.65 63.9795 108.389 64.2123 108.07 64.3276C106.43 64.9149 104.77 65.4724 103.07 65.9602C102.743 66.0373 102.399 65.9862 102.108 65.8176C101.818 65.649 101.604 65.3757 101.51 65.0543Z" fill="#030303"/>
<path d="M106.91 47.8724C106.687 47.6613 106.547 47.3784 106.514 47.074C106.481 46.7696 106.558 46.4635 106.73 46.21C106.847 45.9968 107.021 45.82 107.233 45.6989C107.445 45.5777 107.686 45.5169 107.93 45.5231C108.357 45.5301 108.763 45.7056 109.06 46.0109C110.18 47.1059 111.31 48.1909 112.4 49.3158C112.556 49.4387 112.683 49.594 112.773 49.7709C112.863 49.9477 112.913 50.1419 112.919 50.34C112.926 50.538 112.889 50.7351 112.812 50.9175C112.734 51.0999 112.618 51.2634 112.47 51.3964C112.33 51.5359 112.162 51.645 111.978 51.717C111.793 51.789 111.596 51.8223 111.398 51.8149C111.199 51.8074 111.005 51.7593 110.827 51.6736C110.648 51.5879 110.489 51.4664 110.36 51.3167C109.18 50.1919 108.04 49.0471 106.91 47.8724Z" fill="#030303"/>
<path d="M113.61 59.4099C115.09 59.6986 116.61 59.9774 118.06 60.286C119.06 60.4851 119.63 61.0624 119.33 62.0878C119.03 63.1131 118.28 63.3122 117.33 63.0833C115.97 62.7946 114.6 62.5258 113.23 62.257C112.31 62.0679 111.58 61.6299 111.72 60.5846C111.86 59.5394 112.68 59.3303 113.61 59.4099Z" fill="#030303"/>
<path d="M118.24 55.3484C118.96 53.7756 119.88 52.2823 120.76 50.7792C120.927 50.4828 121.204 50.264 121.532 50.1707C121.86 50.0774 122.212 50.1173 122.51 50.2814C122.673 50.3283 122.824 50.4091 122.953 50.5186C123.081 50.6281 123.185 50.7637 123.257 50.9164C123.329 51.069 123.368 51.2352 123.37 51.4038C123.372 51.5725 123.338 51.7396 123.27 51.8941C122.45 53.5665 121.52 55.1692 120.59 56.7819C120.37 57.1701 119.92 57.2597 119.36 57.2597C118.39 57.0109 117.77 56.3738 118.24 55.3484Z" fill="#030303"/>
<path d="M124.39 64.7756C124.243 64.6424 124.127 64.4793 124.05 64.2974C123.972 64.1155 123.935 63.9191 123.941 63.7216C123.947 63.5241 123.995 63.3302 124.083 63.153C124.171 62.9759 124.296 62.8196 124.45 62.695C125.62 61.5701 126.83 60.4851 128.05 59.41C128.27 59.1974 128.554 59.0643 128.859 59.0318C129.163 58.9994 129.47 59.0694 129.73 59.2308C129.951 59.3682 130.136 59.5566 130.268 59.7802C130.4 60.0038 130.476 60.2558 130.49 60.5149C130.406 60.8274 130.264 61.1212 130.07 61.381C128.86 62.5557 127.63 63.7005 126.36 64.8054C126.231 64.9363 126.077 65.0398 125.906 65.1095C125.736 65.1792 125.553 65.2137 125.369 65.2109C125.184 65.2081 125.003 65.1681 124.834 65.0932C124.666 65.0184 124.515 64.9103 124.39 64.7756Z" fill="#030303"/>
<path d="M138 70.181C137.596 69.799 137.28 69.334 137.075 68.8183C136.869 68.3026 136.779 67.7485 136.81 67.1946C136.48 50.391 120.2 37.8181 103.81 41.6507C97.8426 42.9651 92.4976 46.2511 88.6448 50.974C84.7919 55.6969 82.6579 61.5787 82.59 67.6624C82.633 68.0447 82.5878 68.4317 82.4578 68.794C82.3278 69.1563 82.1166 69.4842 81.84 69.7529C80.6733 70.7377 79.8628 72.0757 79.5323 73.5624C79.2018 75.0492 79.3696 76.6027 80.01 77.9855C83.8634 87.8606 87.7134 97.7391 91.56 107.621C92.41 109.801 93.3 110.378 95.68 110.378C100.34 110.378 105.01 110.378 109.68 110.378C114.35 110.378 119.27 110.378 124.06 110.378C124.852 110.452 125.645 110.259 126.313 109.829C126.98 109.399 127.483 108.758 127.74 108.009C131.74 97.7955 135.74 87.5819 139.61 77.3385C140.114 76.1254 140.229 74.7873 139.941 73.5064C139.653 72.2256 138.975 71.0643 138 70.181ZM85.52 66.448C86.28 57.4887 90.68 50.9186 98.52 46.6181C101.778 44.8727 105.41 43.9337 109.11 43.8805C123 43.9801 132.98 54.1638 133.88 66.0796C133.97 67.2643 134.01 68.1403 132.31 68.0706C131.516 68.0846 130.732 68.2585 130.007 68.5818C129.282 68.9052 128.63 69.3713 128.09 69.952C127.49 70.5394 127.09 70.6986 126.37 70.0516C123.09 67.2842 119.6 67.2941 116.37 70.0516C115.61 70.6986 115.3 70.5095 114.66 69.9719C113.333 68.6964 111.56 67.9836 109.715 67.9836C107.87 67.9836 106.097 68.6964 104.77 69.9719C104.14 70.5095 103.83 70.7086 103.07 70.0615C99.79 67.2842 96.34 67.2842 93.07 70.0615C92.31 70.6986 91.95 70.5891 91.34 69.9819C90.1754 68.8011 88.5921 68.122 86.93 68.0905C85.68 68.0407 85.43 67.533 85.52 66.448ZM95.93 107.611C94.93 107.85 94.39 107.063 93.93 105.919C90.2367 96.3023 86.52 86.6992 82.78 77.1095C81.78 74.4516 82.72 71.9032 85.06 71.1367C87.62 70.3005 90.06 71.7738 90.75 74.6407C93.16 85.1529 95.52 95.6751 97.96 106.177C98.39 108.019 97.15 107.452 95.93 107.611ZM103.93 107.501C102.83 107.432 101.28 108.318 100.85 106.297C99.79 101.419 98.66 96.5511 97.57 91.6733C96.41 86.5566 95.27 81.4498 94.09 76.343C93.43 73.486 94.52 71.5547 97.09 71.0371C97.6817 70.8905 98.2983 70.8742 98.8969 70.9894C99.4955 71.1045 100.062 71.3484 100.556 71.7038C101.05 72.0593 101.46 72.5178 101.758 73.0474C102.056 73.577 102.234 74.1649 102.28 74.7701C102.79 79.7475 103.15 84.7249 103.53 89.7023C103.81 93.3158 104.03 96.9294 104.27 100.533C104.4 102.275 104.55 104.017 104.63 105.769C104.79 106.476 105.35 107.591 103.97 107.501H103.93ZM113.93 75.4371C113.93 75.9149 113.93 76.4326 113.93 76.8805C113.18 86.686 112.4 96.4914 111.71 106.297C111.59 108.069 110.4 107.432 109.5 107.541C108.6 107.651 107.83 107.541 107.74 106.197C107.22 98.6715 106.6 91.1656 106.03 83.6398C105.82 80.9421 105.65 78.2244 105.5 75.5167C105.455 74.9387 105.53 74.3576 105.72 73.8095C105.91 73.2614 106.211 72.7581 106.605 72.3307C106.998 71.9033 107.476 71.561 108.008 71.325C108.54 71.0891 109.115 70.9645 109.697 70.959C110.28 70.9536 110.857 71.0673 111.393 71.2932C111.93 71.5192 112.414 71.8524 112.815 72.2723C113.217 72.6923 113.528 73.1899 113.728 73.7343C113.928 74.2787 114.014 74.8583 113.98 75.4371H113.93ZM115.41 107.511C114.04 107.511 114.6 106.456 114.63 105.779C114.72 103.977 114.87 102.166 115 100.364C115.58 92.5394 116.163 84.7183 116.75 76.9005C116.8 75.9982 116.91 75.1002 117.08 74.2127C117.213 73.6544 117.457 73.1285 117.798 72.6663C118.139 72.2041 118.571 71.815 119.066 71.5224C119.562 71.2297 120.111 71.0394 120.683 70.9629C121.254 70.8864 121.834 70.9251 122.39 71.0769C122.934 71.1704 123.451 71.3808 123.905 71.6935C124.359 72.0061 124.739 72.4134 125.019 72.8872C125.299 73.3609 125.472 73.8896 125.525 74.4366C125.579 74.9836 125.512 75.5356 125.33 76.0543C123.05 86.0986 120.74 96.133 118.53 106.197C118.11 108.278 116.6 107.462 115.44 107.511H115.41ZM136.68 76.9204C132.93 86.6163 129.15 96.3023 125.43 106.008C124.96 107.233 124.25 107.76 123.26 107.541C122.27 107.322 121.04 107.89 121.43 106.217C123.89 95.6154 126.27 84.9937 128.71 74.362C128.824 73.7527 129.068 73.175 129.427 72.6685C129.786 72.1621 130.251 71.7389 130.789 71.4278C131.328 71.1168 131.927 70.9253 132.547 70.8664C133.167 70.8076 133.792 70.8828 134.38 71.0869C136.68 71.943 137.68 74.4217 136.68 76.9204Z" fill="#030303"/>
<path d="M95.83 63.5909C95.9882 63.7121 96.1184 63.8657 96.2116 64.0413C96.3049 64.217 96.359 64.4105 96.3704 64.6089C96.3818 64.8072 96.3501 65.0057 96.2776 65.1907C96.2051 65.3758 96.0933 65.5432 95.95 65.6814C95.8107 65.8434 95.6361 65.9716 95.4396 66.0564C95.243 66.1412 95.0296 66.1802 94.8156 66.1706C94.6016 66.161 94.3927 66.103 94.2046 66.001C94.0165 65.899 93.8542 65.7557 93.73 65.5819C92.65 64.5134 91.58 63.4549 90.52 62.4063C90.267 62.1887 90.095 61.8926 90.0315 61.5658C89.968 61.239 90.0168 60.9004 90.17 60.6045C90.2898 60.361 90.484 60.1614 90.7247 60.0344C90.9654 59.9075 91.2403 59.8596 91.51 59.8977C91.8814 59.893 92.24 60.0322 92.51 60.286C93.6 61.391 94.74 62.4661 95.83 63.5909Z" fill="white"/>
<path d="M100.68 51.695C100.02 53.4371 99.2202 55.1195 98.4302 56.8118C98.2402 57.21 97.7802 57.3195 97.2702 57.3991C96.2702 57.19 95.5302 56.6624 95.9302 55.5575C96.5302 53.9149 97.3002 52.3421 98.0502 50.7692C98.1955 50.4624 98.4569 50.2252 98.7773 50.1096C99.0977 49.9939 99.451 50.0092 99.7602 50.152C99.9263 50.1862 100.083 50.2545 100.221 50.3526C100.36 50.4506 100.476 50.5763 100.562 50.7215C100.649 50.8667 100.704 51.0282 100.724 51.1959C100.745 51.3635 100.73 51.5335 100.68 51.695Z" fill="white"/>
<path d="M104.61 54.0244C104.55 53.8347 104.532 53.6343 104.556 53.4368C104.58 53.2394 104.647 53.0494 104.751 52.8796C104.855 52.7099 104.995 52.5643 105.16 52.4527C105.326 52.3411 105.513 52.266 105.71 52.2326C105.901 52.1789 106.102 52.1682 106.298 52.2013C106.494 52.2343 106.68 52.3103 106.842 52.4236C107.005 52.537 107.14 52.685 107.239 52.8568C107.337 53.0286 107.395 53.22 107.41 53.4172C107.75 55 108.1 56.5928 108.41 57.8371C108.72 59.0814 108.01 59.7484 107.15 59.828C106.968 59.8503 106.782 59.8366 106.605 59.7876C106.428 59.7386 106.262 59.6553 106.117 59.5425C105.972 59.4298 105.851 59.2897 105.761 59.1303C105.67 58.9709 105.612 58.7953 105.59 58.6136C105.22 57.0109 104.9 55.5077 104.61 54.0244Z" fill="white"/>
<path d="M108.88 62.705C108.98 63.0272 108.952 63.3754 108.801 63.6775C108.65 63.9795 108.388 64.2123 108.07 64.3276C106.43 64.9149 104.77 65.4724 103.07 65.9602C102.739 66.046 102.387 65.9992 102.09 65.8299C101.792 65.6606 101.574 65.3822 101.48 65.0543C101.4 64.9047 101.352 64.7401 101.339 64.571C101.326 64.4019 101.348 64.232 101.404 64.0719C101.461 63.9119 101.55 63.7653 101.666 63.6413C101.783 63.5174 101.924 63.4189 102.08 63.352C103.81 62.6652 105.61 62.1276 107.2 61.59C108.14 61.6896 108.75 61.8787 108.88 62.705Z" fill="white"/>
<path d="M112.47 51.3964C112.33 51.5359 112.162 51.645 111.978 51.717C111.793 51.789 111.596 51.8223 111.398 51.8149C111.199 51.8074 111.005 51.7593 110.827 51.6736C110.648 51.5879 110.489 51.4664 110.36 51.3167C109.18 50.1919 108.04 49.0371 106.91 47.8724C106.687 47.6613 106.547 47.3784 106.514 47.074C106.481 46.7696 106.558 46.4635 106.73 46.21C106.847 45.9968 107.021 45.82 107.233 45.6989C107.445 45.5777 107.686 45.5169 107.93 45.5231C108.357 45.5301 108.763 45.7056 109.06 46.0109C110.18 47.1059 111.31 48.1909 112.4 49.3158C112.556 49.4387 112.683 49.594 112.773 49.7709C112.863 49.9477 112.913 50.1419 112.919 50.34C112.926 50.538 112.889 50.7351 112.812 50.9175C112.734 51.0999 112.618 51.2634 112.47 51.3964Z" fill="white"/>
<path d="M119.33 62.0878C119.05 63.0833 118.28 63.3122 117.33 63.0833C115.97 62.7946 114.6 62.5258 113.23 62.257C112.31 62.0679 111.58 61.6299 111.72 60.5846C111.86 59.5394 112.72 59.3104 113.63 59.39C115.11 59.6787 116.63 59.9575 118.08 60.2661C119.03 60.4851 119.68 61.0624 119.33 62.0878Z" fill="white"/>
<path d="M123.27 51.8941C122.45 53.5665 121.52 55.1692 120.59 56.7819C120.37 57.1701 119.92 57.2597 119.36 57.2597C118.36 57.0507 117.77 56.3738 118.24 55.3484C118.96 53.7756 119.88 52.2823 120.76 50.7792C120.926 50.4828 121.204 50.264 121.532 50.1707C121.86 50.0774 122.212 50.1173 122.51 50.2814C122.673 50.3283 122.824 50.4091 122.953 50.5186C123.081 50.6281 123.185 50.7637 123.257 50.9164C123.329 51.069 123.367 51.2352 123.37 51.4038C123.372 51.5725 123.338 51.7396 123.27 51.8941Z" fill="white"/>
<path d="M130.49 60.5149C130.406 60.8274 130.264 61.1212 130.07 61.381C128.86 62.5557 127.63 63.7005 126.36 64.8054C126.233 64.943 126.078 65.0528 125.906 65.1278C125.734 65.2029 125.548 65.2417 125.36 65.2417C125.172 65.2417 124.986 65.2029 124.814 65.1278C124.642 65.0528 124.488 64.943 124.36 64.8054C124.214 64.6722 124.098 64.5091 124.02 64.3272C123.943 64.1453 123.906 63.9489 123.911 63.7515C123.917 63.554 123.965 63.36 124.053 63.1829C124.141 63.0057 124.266 62.8495 124.42 62.7249C125.59 61.6 126.8 60.5149 128.02 59.4398C128.24 59.2273 128.525 59.0942 128.829 59.0617C129.134 59.0292 129.44 59.0993 129.7 59.2606C129.923 59.3917 130.111 59.574 130.248 59.7922C130.386 60.0104 130.469 60.2582 130.49 60.5149Z" fill="white"/>
<path d="M100.68 51.695C100.02 53.4371 99.2202 55.1195 98.4302 56.8118C98.2402 57.21 97.7802 57.3195 97.2702 57.3991C96.2702 57.19 95.5302 56.6624 95.9302 55.5575C96.5302 53.9149 97.3002 52.3421 98.0502 50.7692C98.1955 50.4624 98.4569 50.2252 98.7773 50.1096C99.0977 49.9939 99.451 50.0092 99.7602 50.152C99.9263 50.1862 100.083 50.2545 100.221 50.3526C100.36 50.4506 100.476 50.5763 100.562 50.7215C100.649 50.8667 100.704 51.0282 100.724 51.1959C100.745 51.3635 100.73 51.5335 100.68 51.695Z" fill="#151515"/>
<path d="M95.95 65.6814C95.8107 65.8434 95.6361 65.9716 95.4396 66.0564C95.243 66.1412 95.0296 66.1802 94.8156 66.1706C94.6016 66.161 94.3927 66.103 94.2046 66.001C94.0165 65.899 93.8542 65.7557 93.73 65.5819C92.65 64.5134 91.58 63.4549 90.52 62.4063C90.267 62.1887 90.095 61.8926 90.0315 61.5658C89.968 61.239 90.0168 60.9004 90.17 60.6045C90.2898 60.361 90.484 60.1614 90.7247 60.0344C90.9654 59.9075 91.2403 59.8596 91.51 59.8977C91.8814 59.893 92.24 60.0322 92.51 60.286C93.62 61.391 94.76 62.4661 95.85 63.5909C96.0069 63.7136 96.1354 63.8683 96.2269 64.0448C96.3183 64.2212 96.3705 64.4151 96.38 64.6134C96.3895 64.8118 96.356 65.0098 96.2818 65.194C96.2076 65.3783 96.0945 65.5446 95.95 65.6814Z" fill="#141414"/>
<path d="M107.1 59.7882C106.918 59.8105 106.732 59.7968 106.555 59.7478C106.378 59.6988 106.212 59.6155 106.067 59.5027C105.922 59.3899 105.801 59.2499 105.711 59.0905C105.62 58.9311 105.562 58.7555 105.54 58.5737C105.22 57.0407 104.9 55.5077 104.61 53.9747C104.55 53.7849 104.532 53.5845 104.556 53.3871C104.58 53.1896 104.647 52.9996 104.751 52.8299C104.855 52.6601 104.995 52.5146 105.16 52.4029C105.326 52.2913 105.513 52.2163 105.71 52.1828C105.901 52.1291 106.102 52.1184 106.298 52.1515C106.494 52.1845 106.68 52.2605 106.842 52.3739C107.005 52.4872 107.14 52.6352 107.239 52.807C107.337 52.9788 107.395 53.1703 107.41 53.3674C107.75 54.9502 108.1 56.543 108.41 57.7873C108.72 59.0317 107.96 59.6986 107.1 59.7882Z" fill="#0E0F0F"/>
<path d="M119.33 62.0878C119.05 63.0833 118.28 63.3122 117.33 63.0833C115.97 62.7946 114.6 62.5258 113.23 62.257C112.31 62.0679 111.58 61.6299 111.72 60.5846C111.86 59.5394 112.72 59.3104 113.63 59.39C115.11 59.6787 116.63 59.9575 118.08 60.2661C119.03 60.4851 119.68 61.0624 119.33 62.0878Z" fill="#131313"/>
<path d="M108.07 64.3276C106.43 64.9149 104.77 65.4724 103.07 65.9602C102.739 66.046 102.387 65.9992 102.09 65.8299C101.792 65.6606 101.574 65.3822 101.48 65.0543C101.4 64.9047 101.352 64.7401 101.339 64.571C101.326 64.4019 101.348 64.232 101.404 64.0719C101.461 63.9119 101.55 63.7653 101.666 63.6413C101.783 63.5174 101.924 63.4189 102.08 63.352C103.81 62.6652 105.61 62.1276 107.2 61.59C108.11 61.6896 108.72 61.8787 108.85 62.705C108.952 63.0235 108.928 63.3685 108.783 63.67C108.638 63.9714 108.383 64.2066 108.07 64.3276Z" fill="#111111"/>
<path d="M112.47 51.3964C112.33 51.5359 112.162 51.645 111.978 51.717C111.793 51.789 111.596 51.8223 111.398 51.8149C111.199 51.8074 111.005 51.7593 110.827 51.6736C110.648 51.5879 110.489 51.4664 110.36 51.3167C109.18 50.1919 108.04 49.0371 106.91 47.8724C106.687 47.6613 106.547 47.3784 106.514 47.074C106.481 46.7696 106.558 46.4635 106.73 46.21C106.847 45.9968 107.021 45.82 107.233 45.6989C107.445 45.5777 107.686 45.5169 107.93 45.5231C108.357 45.5301 108.763 45.7056 109.06 46.0109C110.18 47.1059 111.31 48.1909 112.4 49.3158C112.556 49.4387 112.683 49.594 112.773 49.7709C112.863 49.9477 112.913 50.1419 112.919 50.34C112.926 50.538 112.889 50.7351 112.812 50.9175C112.734 51.0999 112.618 51.2634 112.47 51.3964Z" fill="#111111"/>
<path d="M123.27 51.8941C122.45 53.5665 121.52 55.1692 120.59 56.7819C120.37 57.1701 119.92 57.2597 119.36 57.2597C118.36 57.0507 117.77 56.3738 118.24 55.3484C118.96 53.7756 119.88 52.2823 120.76 50.7792C120.926 50.4828 121.204 50.264 121.532 50.1707C121.86 50.0774 122.212 50.1173 122.51 50.2814C122.673 50.3283 122.824 50.4091 122.953 50.5186C123.081 50.6281 123.185 50.7637 123.257 50.9164C123.329 51.069 123.367 51.2352 123.37 51.4038C123.372 51.5725 123.338 51.7396 123.27 51.8941Z" fill="#121212"/>
<path d="M130.49 60.5149C130.406 60.8274 130.264 61.1212 130.07 61.381C128.86 62.5557 127.63 63.7005 126.36 64.8054C126.233 64.943 126.078 65.0528 125.906 65.1278C125.734 65.2029 125.548 65.2417 125.36 65.2417C125.172 65.2417 124.986 65.2029 124.814 65.1278C124.642 65.0528 124.488 64.943 124.36 64.8054C124.214 64.6722 124.098 64.5091 124.02 64.3272C123.943 64.1453 123.906 63.9489 123.911 63.7515C123.917 63.554 123.965 63.36 124.053 63.1829C124.141 63.0057 124.266 62.8495 124.42 62.7249C125.59 61.6 126.8 60.5149 128.02 59.4398C128.24 59.2273 128.525 59.0942 128.829 59.0617C129.134 59.0292 129.44 59.0993 129.7 59.2606C129.923 59.3917 130.111 59.574 130.248 59.7922C130.386 60.0104 130.469 60.2582 130.49 60.5149Z" fill="#121212"/>
<path d="M123.3 44.7566C123.12 46.7858 122.345 48.7176 121.07 50.3113C119.994 51.7601 118.771 53.0945 117.42 54.2932C115.859 55.619 114.227 56.8586 112.53 58.0063C111.73 58.5738 110.91 59.1412 110.14 59.7584C110.088 59.8113 110.026 59.8534 109.957 59.8822C109.888 59.9109 109.814 59.9257 109.74 59.9257C109.665 59.9257 109.592 59.9109 109.523 59.8822C109.454 59.8534 109.392 59.8113 109.34 59.7584C107.34 58.4543 105.34 57.1204 103.55 55.6271C100.889 53.658 98.706 51.1204 97.16 48.2009C96.5746 47.1335 96.2332 45.9506 96.16 44.7366C96.0547 44.154 96.0547 43.5573 96.16 42.9747C96.1162 42.7334 96.1549 42.4846 96.27 42.2679C96.2739 42.1916 96.2739 42.1152 96.27 42.0389C96.5615 40.7566 97.1738 39.5683 98.0499 38.5845C98.9261 37.6007 100.038 36.8531 101.282 36.4112C102.526 35.9693 103.861 35.8474 105.165 36.0568C106.469 36.2662 107.699 36.8002 108.74 37.609C109.04 37.838 109.21 38.2163 109.56 38.4154C109.72 38.4154 109.83 38.3158 109.96 38.2462C110.983 37.2953 112.227 36.6113 113.58 36.2552C115.342 35.7791 117.219 35.956 118.86 36.7529C119.81 37.2573 120.657 37.9323 121.36 38.7439C122.287 39.7421 122.92 40.9751 123.19 42.3077C123.23 42.5244 123.25 42.7443 123.25 42.9647C123.382 43.5533 123.399 44.1616 123.3 44.7566Z" fill="#F69C9F"/>
<path d="M123.2 44.5176C123.226 44.6018 123.263 44.6821 123.31 44.7566C123.126 46.7847 122.351 48.7152 121.08 50.3113C120.001 51.7577 118.779 53.0918 117.43 54.2932C115.87 55.619 114.237 56.8586 112.54 58.0063C111.73 58.5738 110.92 59.1412 110.14 59.7584C110.088 59.8113 110.026 59.8534 109.957 59.8822C109.888 59.9109 109.815 59.9257 109.74 59.9257C109.666 59.9257 109.592 59.9109 109.523 59.8822C109.455 59.8534 109.392 59.8113 109.34 59.7584C107.34 58.4543 105.4 57.1204 103.55 55.6271C100.895 53.6524 98.7125 51.1161 97.1601 48.2009C96.5787 47.1319 96.2375 45.9499 96.1601 44.7366C96.1973 44.6915 96.2276 44.6412 96.2501 44.5873V44.2489C96.2601 44.0599 96.2601 43.8705 96.2501 43.6814V43.3231C96.2501 43.2136 96.2501 43.0742 96.1501 42.9747C96.1063 42.7334 96.145 42.4846 96.2601 42.2679C96.3201 42.2679 96.2601 42.3774 96.3701 42.4172C96.3701 42.2977 96.3701 42.1484 96.3001 42.0389C96.5917 40.7566 97.2039 39.5683 98.0801 38.5845C98.9562 37.6007 100.068 36.8531 101.312 36.4112C102.556 35.9693 103.892 35.8474 105.195 36.0568C106.499 36.2662 107.729 36.8002 108.77 37.609C109.07 37.838 109.24 38.2163 109.58 38.4154C109.92 38.6145 109.89 38.4154 109.99 38.2462C111.013 37.2953 112.257 36.6113 113.61 36.2552C115.373 35.78 117.249 35.9569 118.89 36.7529C119.84 37.2573 120.687 37.9323 121.39 38.7439C122.317 39.7421 122.95 40.9751 123.22 42.3077C123.255 42.525 123.275 42.7446 123.28 42.9647L123.18 43.114C123.18 43.2335 123.18 43.3529 123.18 43.4724C123.17 43.668 123.17 43.8641 123.18 44.0597C123.19 44.2389 123.2 44.3783 123.2 44.5176Z" fill="#F69C9F"/>
<path d="M109.8 44.7665H109.68C109.575 44.1839 109.575 43.5872 109.68 43.0045C109.722 43.0345 109.756 43.0753 109.777 43.1226C109.798 43.1698 109.806 43.2219 109.8 43.2733C109.91 43.765 109.91 44.2748 109.8 44.7665Z" fill="#F69C9F"/>
<path d="M109.8 44.7566L109.68 44.6271C109.57 44.0918 109.57 43.5399 109.68 43.0045H109.8C109.91 43.5834 109.91 44.1777 109.8 44.7566Z" fill="#F69C9F"/>
<path d="M109.94 38.276C109.94 38.4253 109.94 38.5747 109.73 38.6244C109.52 38.6742 109.56 38.5448 109.54 38.4452C109.68 38.4652 109.82 38.3457 109.94 38.276Z" fill="#F69C9F"/>
<path d="M109.74 42.5964C109.74 42.4968 109.74 42.3973 109.67 42.2977V42.0688C109.88 42.2181 109.8 42.4072 109.74 42.5964Z" fill="#F69C9F"/>
<path d="M109.82 43.0045V44.6271C109.605 44.1075 109.605 43.5242 109.82 43.0045Z" fill="#F69C9F"/>
<path d="M109.68 44.7665V43.2733C109.789 43.5074 109.845 43.7621 109.845 44.0199C109.845 44.2777 109.789 44.5324 109.68 44.7665Z" fill="#F69C9F"/>
<path d="M141.91 164.753C139.845 163.955 137.655 163.52 135.44 163.469C132.29 163.478 129.163 163.996 126.18 165.002C125.497 165.272 124.795 165.491 124.08 165.659C124.08 164.225 123.9 163.847 123.21 163.668C122.934 163.596 122.641 163.626 122.386 163.752C122.13 163.878 121.929 164.092 121.82 164.355C121.741 164.521 121.7 164.703 121.7 164.887C121.7 165.072 121.741 165.253 121.82 165.42C122 165.778 122.37 165.898 122.82 166.107C121.54 166.563 120.175 166.74 118.82 166.624C117.082 166.462 115.36 166.162 113.67 165.729C113.35 165.639 113.2 165.519 113.26 165.101C113.281 164.951 113.26 164.798 113.201 164.659C113.141 164.52 113.044 164.399 112.921 164.31C112.798 164.221 112.653 164.167 112.501 164.154C112.349 164.141 112.197 164.169 112.06 164.235C111.92 164.285 111.8 164.424 111.63 164.325C111.781 163.975 111.803 163.583 111.691 163.218C111.579 162.854 111.342 162.541 111.02 162.334C110.704 162.139 110.323 162.076 109.96 162.158C109.597 162.24 109.281 162.461 109.08 162.772C108.79 163.12 108.74 162.862 108.6 162.692C108.429 162.468 108.197 162.297 107.93 162.202C107.664 162.106 107.376 162.09 107.1 162.155C106.832 162.212 106.587 162.346 106.395 162.541C106.203 162.736 106.073 162.982 106.02 163.25C105.903 163.701 105.967 164.18 106.2 164.584C106.225 164.696 106.284 164.798 106.371 164.875C106.457 164.952 106.565 165 106.68 165.012C106.84 165.101 107.12 165.191 106.68 165.34C106.24 165.49 105.93 165.579 105.56 165.689C102.999 166.189 100.388 166.393 97.7801 166.296C97.4075 166.31 97.0379 166.224 96.7101 166.047L97.1801 165.589C97.3074 165.458 97.404 165.3 97.4633 165.127C97.5225 164.955 97.5428 164.771 97.5227 164.589C97.5027 164.408 97.4428 164.233 97.3473 164.077C97.2518 163.922 97.123 163.789 96.9701 163.688C96.6849 163.538 96.3534 163.501 96.0419 163.584C95.7305 163.667 95.462 163.864 95.2901 164.136C94.8801 164.733 95.1001 165.3 95.5001 165.938C94.4168 165.523 93.3037 165.19 92.1701 164.942C91.5428 164.639 90.8649 164.453 90.1701 164.395C90.0601 164.235 89.8801 164.225 89.7101 164.195C85.3517 163.171 80.7813 163.519 76.6301 165.191C76.0163 165.371 75.4257 165.622 74.8701 165.938C74.7401 166.007 74.5801 166.047 74.6501 166.256C74.7145 166.314 74.7982 166.346 74.8851 166.346C74.972 166.346 75.0557 166.314 75.1201 166.256C75.7142 165.885 76.3481 165.581 77.0101 165.35L77.2301 165.3C79.1155 164.58 81.1032 164.16 83.1201 164.056H86.2101C87.452 164.141 88.6876 164.3 89.9101 164.534C89.9771 164.583 90.0532 164.617 90.134 164.636C90.2147 164.655 90.2984 164.657 90.3801 164.643L92.1201 165.151C92.8601 165.41 93.6001 165.709 94.3501 165.938C95.7174 166.42 97.1505 166.691 98.6001 166.744C99.8053 166.764 101.011 166.714 102.21 166.595C103.467 166.511 104.711 166.29 105.92 165.938C106.205 165.923 106.484 165.852 106.74 165.729C106.913 165.629 107.113 165.583 107.312 165.597C107.512 165.611 107.703 165.685 107.86 165.808L108.15 166.047C108.65 166.614 108.65 166.614 109.15 166.117C109.5 165.788 109.84 165.539 110.32 165.967C110.57 166.196 110.93 166.306 111.16 166.565C111.39 166.824 111.44 166.724 111.61 166.565C111.909 166.211 112.323 165.971 112.78 165.888H113.12L113.31 165.987L113.45 166.057L113.58 166.117L114.98 166.415C117.08 167.009 119.286 167.134 121.44 166.784C122.94 166.445 124.38 165.848 125.85 165.37C128.107 164.57 130.461 164.075 132.85 163.897H132.98C133.3 163.827 133.64 163.986 133.98 163.837C135.233 163.768 136.49 163.828 137.73 164.016C139.03 164.215 140.26 164.693 141.54 165.012H141.59L143.07 165.559L143.66 165.788L143.9 165.868C143.938 165.874 143.973 165.891 144 165.918C144.17 165.918 144.38 166.097 144.47 165.798C143.669 165.334 142.808 164.982 141.91 164.753ZM96.1201 165.818C95.8784 165.689 95.6893 165.481 95.5853 165.228C95.4813 164.976 95.4688 164.695 95.5501 164.434L95.7001 164.265C95.8288 164.098 96.0121 163.981 96.2183 163.933C96.4246 163.886 96.6409 163.912 96.8301 164.006C97.0398 164.14 97.1919 164.347 97.2566 164.586C97.3214 164.825 97.2941 165.08 97.1801 165.3V165.42C96.8001 165.549 96.5801 166.067 96.1201 165.818ZM123.12 165.818C122.42 165.818 121.99 165.46 121.99 164.922C121.986 164.807 122.006 164.692 122.048 164.584C122.09 164.477 122.154 164.379 122.235 164.297C122.317 164.215 122.414 164.151 122.522 164.107C122.629 164.064 122.744 164.043 122.86 164.046C123.45 164.046 123.74 164.335 123.74 164.992C123.68 165.291 123.85 165.818 123.16 165.788L123.12 165.818Z" fill="black"/>
<path d="M113.54 166.007L113.35 165.908H113.01C112.553 165.991 112.139 166.23 111.84 166.585C111.67 166.744 111.56 166.784 111.39 166.585C111.22 166.386 110.8 166.216 110.55 165.987C110.07 165.559 109.73 165.808 109.38 166.137C108.83 166.634 108.83 166.634 108.38 166.067C108.38 165.898 108.2 165.898 108.09 165.828C107.933 165.705 107.742 165.631 107.542 165.617C107.343 165.603 107.143 165.649 106.97 165.748C106.714 165.872 106.435 165.943 106.15 165.957C105.99 165.957 105.77 166.137 105.75 165.798C106.12 165.689 106.51 165.589 106.87 165.45C107.23 165.31 106.98 165.211 106.87 165.121C106.679 165.017 106.515 164.871 106.39 164.693C106.157 164.289 106.093 163.81 106.21 163.359C106.263 163.092 106.393 162.845 106.585 162.65C106.777 162.456 107.022 162.322 107.29 162.264C107.565 162.199 107.854 162.216 108.12 162.311C108.387 162.407 108.619 162.577 108.79 162.802C108.93 162.971 108.98 163.23 109.27 162.881C109.471 162.57 109.787 162.35 110.15 162.268C110.513 162.186 110.893 162.249 111.21 162.443C111.532 162.65 111.769 162.963 111.881 163.328C111.993 163.692 111.971 164.084 111.82 164.434C111.99 164.534 112.11 164.434 112.25 164.345C112.387 164.278 112.539 164.25 112.691 164.263C112.843 164.277 112.988 164.331 113.111 164.42C113.234 164.508 113.331 164.629 113.391 164.768C113.45 164.908 113.471 165.061 113.45 165.211C113.39 165.629 113.54 165.748 113.86 165.838C113.74 165.948 113.68 165.987 113.54 166.007Z" fill="black"/>
<path d="M141.91 164.753C139.844 163.955 137.655 163.52 135.44 163.469C132.29 163.478 129.163 163.996 126.18 165.002C125.497 165.272 124.795 165.491 124.08 165.659C124.08 164.225 123.9 163.847 123.21 163.668C122.934 163.596 122.641 163.626 122.386 163.752C122.13 163.878 121.929 164.092 121.82 164.355C121.741 164.521 121.7 164.703 121.7 164.887C121.7 165.072 121.741 165.253 121.82 165.42C122 165.778 122.37 165.898 122.82 166.107C121.54 166.563 120.175 166.74 118.82 166.624C117.082 166.462 115.36 166.162 113.67 165.728L113.3 165.868L113.49 165.967L113.63 166.037C113.655 166.034 113.68 166.039 113.703 166.049C113.726 166.06 113.746 166.076 113.76 166.097L115.16 166.395C117.26 166.989 119.466 167.115 121.62 166.764C123.12 166.425 124.56 165.828 126.03 165.35C128.287 164.551 130.641 164.055 133.03 163.877H133.16C133.48 163.807 133.82 163.967 134.16 163.817C135.413 163.748 136.67 163.808 137.91 163.996C139.21 164.195 140.44 164.673 141.72 164.992H141.77C141.89 164.992 142.02 165.071 142.07 164.912C142.12 164.753 141.98 164.823 141.91 164.753ZM123.16 165.748C122.46 165.748 122.03 165.39 122.03 164.852C122.026 164.737 122.046 164.622 122.088 164.515C122.13 164.407 122.194 164.31 122.275 164.227C122.357 164.145 122.454 164.081 122.561 164.038C122.669 163.995 122.784 163.974 122.9 163.976C123.49 163.976 123.78 164.265 123.78 164.922C123.68 165.29 123.85 165.818 123.16 165.788V165.748Z" fill="black"/>
<path d="M106.06 165.918C104.851 166.271 103.607 166.491 102.35 166.575C101.151 166.694 99.9454 166.744 98.7402 166.724C97.2906 166.671 95.8575 166.4 94.4902 165.918C93.7402 165.689 93.0002 165.39 92.2602 165.131C92.2367 165.101 92.2239 165.065 92.2239 165.027C92.2239 164.989 92.2367 164.952 92.2602 164.922C93.3938 165.17 94.5069 165.503 95.5902 165.918C95.1902 165.281 94.9702 164.713 95.3802 164.116C95.432 164.092 95.4913 164.088 95.5455 164.107C95.5996 164.126 95.6444 164.164 95.6702 164.215L95.5202 164.385C95.4389 164.645 95.4514 164.926 95.5554 165.178C95.6594 165.431 95.8485 165.64 96.0902 165.768C96.5502 166.017 96.7702 165.529 97.0902 165.37V165.251L97.1702 165.3C97.2402 165.39 97.2802 165.48 97.1702 165.569C97.0602 165.659 97.1702 165.569 97.1702 165.569L96.7002 166.027C97.028 166.204 97.3975 166.29 97.7702 166.276C100.378 166.373 102.989 166.169 105.55 165.669L106.06 165.918Z" fill="black"/>
<path d="M90.3101 164.375C90.2801 164.401 90.2452 164.42 90.2073 164.432C90.1695 164.444 90.1296 164.448 90.0901 164.444C88.8676 164.211 87.632 164.051 86.3901 163.967C85.3616 163.887 84.3285 163.887 83.3001 163.967C81.2832 164.07 79.2954 164.49 77.4101 165.211L77.1901 165.261C77.0401 165.261 76.8401 165.43 76.8101 165.131C80.9613 163.459 85.5317 163.111 89.8901 164.136C90.0201 164.205 90.2001 164.215 90.3101 164.375Z" fill="black"/>
<path d="M97.3001 165.619L97.1501 165.38V165.261C97.2641 165.04 97.2914 164.785 97.2267 164.546C97.1619 164.307 97.0098 164.1 96.8001 163.967C96.6109 163.872 96.3946 163.846 96.1884 163.894C95.9821 163.941 95.7989 164.058 95.6701 164.225L95.5201 164.395C95.5201 164.305 95.4301 164.215 95.3801 164.126C95.552 163.854 95.8205 163.657 96.132 163.574C96.4434 163.491 96.7749 163.528 97.0601 163.678C97.222 163.775 97.3595 163.908 97.4623 164.066C97.5651 164.224 97.6305 164.403 97.6536 164.59C97.6767 164.777 97.6569 164.967 97.5957 165.145C97.5344 165.323 97.4334 165.485 97.3001 165.619Z" fill="black"/>
<path d="M144.68 165.788C144.59 166.087 144.38 165.928 144.21 165.908C144.182 165.881 144.148 165.864 144.11 165.858L143.87 165.778L143.28 165.549L141.8 165.002H141.75C141.88 165.002 142.02 164.952 141.88 164.773C142.859 164.971 143.802 165.313 144.68 165.788Z" fill="black"/>
<path d="M77.15 165.33C76.488 165.561 75.8541 165.865 75.26 166.236C75.1956 166.294 75.1119 166.326 75.025 166.326C74.9381 166.326 74.8544 166.294 74.79 166.236C74.72 166.027 74.88 165.987 75.01 165.918C75.5656 165.602 76.1562 165.351 76.77 165.171L77.15 165.33Z" fill="black"/>
<path d="M92.2901 164.922V165.131L90.5501 164.624C90.4701 164.624 90.3101 164.624 90.3401 164.464C91.0122 164.501 91.6725 164.656 92.2901 164.922Z" fill="black"/>
<path d="M134.22 163.827C133.9 163.977 133.56 163.827 133.22 163.887C133.548 163.815 133.886 163.795 134.22 163.827Z" fill="black"/>
<path d="M108.33 166.057L108.04 165.818C108.18 165.818 108.33 165.719 108.44 165.818C108.55 165.918 108.38 165.987 108.33 166.057Z" fill="black"/>
<path d="M106.73 165.081C106.615 165.069 106.507 165.022 106.42 164.945C106.334 164.868 106.275 164.766 106.25 164.653L106.73 165.081Z" fill="black"/>
<path d="M75.26 166.236C75.1957 166.295 75.1119 166.327 75.025 166.327C74.9382 166.327 74.8544 166.295 74.79 166.236H75.26Z" fill="black"/>
<path d="M143.9 165.779C143.722 165.662 143.521 165.587 143.31 165.559L143.9 165.779Z" fill="black"/>
<path d="M90.52 164.624C90.4383 164.638 90.3546 164.635 90.2739 164.616C90.1932 164.597 90.1171 164.563 90.05 164.514L90.29 164.405L90.49 164.594L90.52 164.624Z" fill="black"/>
<path d="M107.74 162.563C107.825 162.529 107.92 162.528 108.006 162.562C108.091 162.595 108.161 162.659 108.2 162.742C108 162.871 107.91 162.702 107.74 162.563Z" fill="black"/>
<path d="M109.28 163.12C109.7 163.051 109.41 163.349 109.45 163.469L109.28 163.12Z" fill="black"/>
<path d="M111.01 162.723L110.93 162.793C110.866 162.765 110.808 162.724 110.76 162.673C110.76 162.603 110.76 162.583 110.84 162.603C110.903 162.632 110.961 162.673 111.01 162.723Z" fill="black"/>
<path d="M109.28 163.12C109.28 163.21 109.28 163.349 109.12 163.389C109.12 163.24 109.21 163.19 109.28 163.12Z" fill="black"/>
<path d="M95.68 164.265L95.53 164.435L95.68 164.265Z" fill="black"/>
<path d="M97.1802 165.3C97.1763 165.34 97.1763 165.381 97.1802 165.42V165.3Z" fill="black"/>
<path d="M30.522 129.581C30.6015 129.395 30.8203 128.905 31.1783 128.109C31.5364 127.327 32.0005 126.306 32.5706 125.046C33.1541 123.773 33.8038 122.335 34.5199 120.73C35.2492 119.112 36.0182 117.402 36.8271 115.598C36.8669 115.506 36.9067 115.386 36.9464 115.24C36.9995 115.081 37.026 114.929 37.026 114.783C37.026 114.637 36.9796 114.518 36.8868 114.425C36.8072 114.319 36.6282 114.266 36.3497 114.266C35.7928 114.266 35.3287 114.458 34.9574 114.843C34.5994 115.214 34.3276 115.678 34.142 116.235C33.9696 116.792 33.8834 117.342 33.8834 117.886C33.8834 118.018 33.8834 118.131 33.8834 118.224C33.8966 118.317 33.9099 118.41 33.9232 118.502C33.6712 118.502 33.4657 118.416 33.3066 118.244C33.1607 118.058 33.048 117.839 32.9684 117.587C32.9021 117.322 32.869 117.084 32.869 116.871C32.869 116.434 32.9883 116.016 33.227 115.618C33.4657 115.221 33.7707 114.863 34.142 114.544C34.5265 114.226 34.9442 113.981 35.395 113.808C35.8591 113.623 36.31 113.53 36.7475 113.53C37.1851 113.53 37.5498 113.656 37.8415 113.908C38.1465 114.146 38.3719 114.584 38.5178 115.221C38.6769 115.857 38.7564 116.779 38.7564 117.985C38.7564 118.807 38.7233 119.683 38.657 120.611C38.6039 121.539 38.5443 122.454 38.478 123.356C38.4117 124.257 38.3653 125.079 38.3387 125.822C38.5509 125.013 38.8493 124.151 39.2338 123.236C39.6316 122.321 40.0625 121.413 40.5266 120.511C41.004 119.596 41.4747 118.741 41.9388 117.945C42.4029 117.15 42.8206 116.46 43.1919 115.877C43.5632 115.293 43.835 114.869 44.0074 114.604C44.193 114.339 44.3522 114.14 44.4848 114.007C44.6174 113.861 44.7897 113.788 45.0019 113.788C45.1875 113.788 45.3997 113.835 45.6384 113.928C45.5456 114.166 45.413 114.524 45.2406 115.002C45.0815 115.466 44.9157 116.036 44.7433 116.712C44.5312 117.521 44.319 118.443 44.1068 119.477C43.8947 120.498 43.6958 121.539 43.5101 122.6C43.3378 123.661 43.1985 124.662 43.0925 125.603C42.9864 126.531 42.9333 127.314 42.9333 127.95C42.9333 128.242 42.9466 128.467 42.9731 128.626C42.9996 128.786 43.0328 128.925 43.0726 129.044C43.1256 129.177 43.1786 129.356 43.2317 129.581C42.7808 129.581 42.4361 129.508 42.1974 129.362C41.9587 129.216 41.7996 128.978 41.72 128.646C41.6405 128.328 41.6007 127.897 41.6007 127.353C41.6007 125.775 41.7996 124.085 42.1974 122.281C42.6085 120.465 43.0726 118.582 43.5897 116.633C43.2052 117.123 42.8007 117.747 42.3764 118.502C41.9654 119.245 41.5477 120.054 41.1233 120.929C40.7123 121.791 40.3145 122.659 39.9299 123.535C39.5587 124.396 39.2272 125.199 38.9354 125.941C38.6437 126.684 38.4183 127.3 38.2592 127.791C38.1796 127.818 38.1266 127.837 38.1001 127.851C38.0735 127.864 38.0271 127.871 37.9608 127.871C37.6028 127.871 37.3641 127.658 37.2448 127.234C37.1387 126.81 37.0857 126.213 37.0857 125.444C37.0857 124.9 37.0989 124.257 37.1255 123.515C37.1652 122.759 37.205 121.983 37.2448 121.188C37.2846 120.392 37.3177 119.629 37.3442 118.9C37.384 118.158 37.4039 117.521 37.4039 116.991C37.4039 116.726 37.3973 116.507 37.384 116.334C37.384 116.162 37.3774 116.009 37.3641 115.877C36.3033 118.343 35.4149 120.452 34.6989 122.202C33.9828 123.939 33.3795 125.351 32.8889 126.438C32.4115 127.526 31.9872 128.321 31.6159 128.825C31.2446 129.329 30.88 129.581 30.522 129.581ZM46.8198 128.487C46.2496 128.487 45.8452 128.308 45.6065 127.95C45.3678 127.605 45.2485 127.181 45.2485 126.677C45.2485 126.266 45.3148 125.842 45.4474 125.404C45.58 124.967 45.7524 124.556 45.9645 124.171C46.19 123.786 46.4353 123.475 46.7005 123.236C46.9789 122.998 47.2574 122.878 47.5359 122.878C47.6022 122.878 47.6685 122.891 47.7348 122.918C47.8143 122.931 47.8872 122.951 47.9535 122.978C47.8342 123.084 47.6883 123.283 47.516 123.574C47.3568 123.853 47.2044 124.178 47.0585 124.549C46.9126 124.907 46.7867 125.265 46.6806 125.623C46.5878 125.981 46.5414 126.286 46.5414 126.538C46.5414 126.936 46.6077 127.227 46.7403 127.413C46.8729 127.585 47.0452 127.672 47.2574 127.672C47.5359 127.672 47.8674 127.526 48.2519 127.234C48.6364 126.929 49.0143 126.545 49.3856 126.08C49.0143 125.775 48.7226 125.378 48.5105 124.887C48.3116 124.383 48.2121 123.873 48.2121 123.356C48.2121 122.918 48.285 122.507 48.4309 122.122C48.59 121.738 48.8154 121.433 49.1072 121.207C49.3989 120.969 49.7503 120.849 50.1613 120.849C50.705 120.849 51.0696 120.995 51.2553 121.287C51.4409 121.579 51.5337 121.943 51.5337 122.381C51.5337 122.898 51.4078 123.475 51.1558 124.111C50.9039 124.735 50.5857 125.338 50.2011 125.921C50.4398 126.054 50.6917 126.12 50.9569 126.12C51.1691 126.12 51.4078 126.08 51.673 126.001C51.9382 125.908 52.1967 125.756 52.4487 125.543C52.7139 125.331 52.926 125.046 53.0852 124.688L53.3238 124.887C53.0586 125.51 52.6807 125.954 52.1901 126.22C51.7128 126.472 51.2553 126.598 50.8177 126.598C50.6453 126.598 50.4796 126.584 50.3205 126.558C50.1613 126.518 50.0088 126.465 49.863 126.399C49.4121 126.995 48.9149 127.493 48.3712 127.89C47.8408 128.288 47.3237 128.487 46.8198 128.487ZM49.7436 125.563C50.0751 125.073 50.347 124.562 50.5591 124.032C50.7846 123.488 50.8973 122.978 50.8973 122.5C50.8973 122.116 50.8376 121.837 50.7183 121.665C50.6122 121.479 50.4729 121.386 50.3006 121.386C50.0354 121.386 49.7635 121.579 49.4851 121.963C49.2066 122.348 49.0674 122.832 49.0674 123.415C49.0674 123.8 49.1204 124.191 49.2265 124.589C49.3458 124.973 49.5182 125.298 49.7436 125.563ZM59.1364 128.248C58.6723 128.248 58.3209 128.129 58.0822 127.89C57.8568 127.652 57.7441 127.347 57.7441 126.976C57.7441 126.697 57.7905 126.405 57.8833 126.1C57.9894 125.795 58.0888 125.484 58.1817 125.166C58.2745 124.834 58.3209 124.516 58.3209 124.211C58.3209 123.84 58.2413 123.588 58.0822 123.455C57.9364 123.309 57.7507 123.236 57.5253 123.236C57.1142 123.236 56.6965 123.409 56.2722 123.753C55.8479 124.085 55.4368 124.516 55.039 125.046C54.6412 125.563 54.27 126.1 53.9252 126.657C53.5804 127.214 53.2755 127.711 53.0103 128.149C52.7981 128.149 52.5992 128.109 52.4136 128.03C52.2147 127.963 52.0622 127.857 51.9561 127.711C51.9561 127.645 52.029 127.44 52.1749 127.095C52.3075 126.75 52.4666 126.326 52.6522 125.822C52.8379 125.318 53.0036 124.801 53.1495 124.27C53.2954 123.74 53.3683 123.256 53.3683 122.819C53.4478 122.726 53.5738 122.633 53.7462 122.54C53.9186 122.447 54.0976 122.401 54.2832 122.401C54.6412 122.401 54.8203 122.573 54.8203 122.918C54.8203 123.13 54.7606 123.488 54.6412 123.992C54.5219 124.483 54.3694 125 54.1838 125.543C54.5418 125 54.9396 124.463 55.3772 123.932C55.828 123.389 56.3054 122.938 56.8093 122.58C57.3131 122.222 57.817 122.043 58.3209 122.043C58.838 122.043 59.2093 122.228 59.4347 122.6C59.6734 122.971 59.7928 123.382 59.7928 123.833C59.7928 124.244 59.7265 124.628 59.5939 124.987C59.4613 125.331 59.322 125.669 59.1762 126.001C59.0436 126.319 58.9773 126.644 58.9773 126.976C58.9773 127.254 59.0303 127.453 59.1364 127.572C59.2557 127.678 59.4016 127.731 59.574 127.731C59.9055 127.731 60.237 127.579 60.5685 127.274C60.9 126.956 61.2182 126.558 61.5232 126.08C61.8414 125.603 62.1199 125.119 62.3586 124.628L62.5774 124.887C62.2989 125.537 61.9873 126.114 61.6425 126.617C61.2978 127.121 60.9199 127.519 60.5088 127.811C60.0977 128.103 59.6403 128.248 59.1364 128.248ZM63.4092 128.368C62.892 128.368 62.5075 128.202 62.2555 127.871C62.0036 127.552 61.8776 127.161 61.8776 126.697C61.8776 126.392 61.9307 126.008 62.0367 125.543C62.1561 125.079 62.3086 124.595 62.4942 124.091C62.6799 123.574 62.892 123.09 63.1307 122.639C63.3826 122.189 63.6478 121.824 63.9263 121.546C64.2048 121.254 64.4766 121.108 64.7418 121.108C64.8611 121.108 64.9606 121.148 65.0401 121.227C65.133 121.294 65.1794 121.4 65.1794 121.546C65.1794 121.705 65.0733 121.963 64.8611 122.321C64.6622 122.679 64.4235 123.09 64.1451 123.554C63.8666 124.019 63.6213 124.509 63.4092 125.026C63.2103 125.53 63.1108 126.014 63.1108 126.478C63.1108 126.956 63.1904 127.274 63.3495 127.433C63.5086 127.592 63.7539 127.672 64.0854 127.672C64.5363 127.672 65.0136 127.446 65.5175 126.995C66.0346 126.545 66.5783 125.756 67.1485 124.628L67.3275 124.827C66.9429 125.968 66.386 126.843 65.6567 127.453C64.9407 128.063 64.1915 128.368 63.4092 128.368ZM65.796 119.258C65.5838 119.258 65.3915 119.205 65.2191 119.099C65.06 118.993 64.9805 118.827 64.9805 118.602C64.9805 118.323 65.1396 118.085 65.4578 117.886C65.7893 117.674 66.1142 117.568 66.4324 117.568C66.6313 117.568 66.7905 117.614 66.9098 117.707C67.0291 117.8 67.0888 117.959 67.0888 118.184C67.0888 118.436 66.9496 118.681 66.6711 118.92C66.4059 119.145 66.1142 119.258 65.796 119.258ZM68.8632 128.865C68.24 128.865 67.7427 128.726 67.3715 128.447C67.0134 128.182 66.7615 127.851 66.6156 127.453C66.4565 127.055 66.377 126.657 66.377 126.259C66.377 125.862 66.43 125.557 66.5361 125.345C66.6422 125.132 66.7681 124.973 66.914 124.867C67.0731 124.761 67.219 124.682 67.3516 124.628C67.4974 124.575 67.5969 124.522 67.6499 124.469C68.0477 124.032 68.4124 123.574 68.7439 123.097C69.0754 122.62 69.3671 122.116 69.619 121.585V121.347C69.619 120.856 69.6986 120.511 69.8577 120.312C70.0301 120.1 70.2091 119.994 70.3947 119.994C70.5008 119.994 70.5804 120.021 70.6334 120.074C70.6865 120.127 70.713 120.186 70.713 120.253C70.713 120.319 70.6931 120.425 70.6533 120.571C70.6135 120.717 70.5936 120.902 70.5936 121.128C70.5936 121.565 70.6798 122.043 70.8522 122.56C71.0246 123.064 71.197 123.601 71.3694 124.171C71.5417 124.728 71.6279 125.311 71.6279 125.921C71.6279 126.094 71.6147 126.266 71.5881 126.438C71.5749 126.598 71.5484 126.75 71.5086 126.896C71.9727 126.816 72.4103 126.611 72.8213 126.279C73.2324 125.935 73.6302 125.391 74.0147 124.648L74.1937 124.847C73.9418 125.577 73.5639 126.134 73.06 126.518C72.5561 126.889 72.0058 127.121 71.4091 127.214C71.197 127.784 70.8588 128.202 70.3947 128.467C69.9439 128.732 69.4334 128.865 68.8632 128.865ZM68.903 128.169C69.0621 128.169 69.2743 128.116 69.5395 128.01C69.8047 127.904 70.0102 127.632 70.1561 127.194C69.5991 127.088 69.1019 126.869 68.6643 126.538C68.24 126.206 67.9218 125.875 67.7096 125.543C67.4179 125.557 67.272 125.789 67.272 126.24C67.272 126.717 67.4112 127.161 67.6897 127.572C67.9814 127.97 68.3859 128.169 68.903 128.169ZM70.2555 126.876C70.282 126.743 70.3019 126.604 70.3152 126.458C70.3284 126.313 70.3351 126.14 70.3351 125.941C70.3351 125.318 70.2555 124.701 70.0964 124.091C69.9505 123.468 69.8246 122.885 69.7185 122.341C69.4135 122.845 69.0886 123.329 68.7439 123.793C68.4124 124.244 68.0941 124.622 67.7892 124.927C67.9881 125.351 68.293 125.749 68.7041 126.12C69.1284 126.492 69.6456 126.743 70.2555 126.876ZM75.7795 128.726C74.9706 128.726 74.3607 128.5 73.9496 128.05C73.5518 127.612 73.3529 127.068 73.3529 126.419C73.3529 125.822 73.4988 125.192 73.7905 124.529C74.0955 123.866 74.4933 123.243 74.9839 122.659C75.4878 122.076 76.0381 121.605 76.6348 121.247C77.2315 120.876 77.8215 120.69 78.405 120.69C78.71 120.69 78.9884 120.77 79.2404 120.929C79.5056 121.088 79.6382 121.413 79.6382 121.904C79.6382 122.407 79.4857 122.885 79.1807 123.336C78.889 123.773 78.4978 124.164 78.0072 124.509C77.5298 124.854 76.9994 125.139 76.416 125.364C75.8458 125.577 75.2756 125.709 74.7054 125.762C74.6789 125.895 74.659 126.021 74.6458 126.14C74.6325 126.259 74.6259 126.372 74.6259 126.478C74.6259 126.677 74.6458 126.876 74.6855 127.075C74.7386 127.274 74.8248 127.46 74.9441 127.632C75.0635 127.791 75.2226 127.917 75.4215 128.01C75.6336 128.103 75.8922 128.149 76.1972 128.149C76.7674 128.149 77.3309 127.99 77.8878 127.672C78.4448 127.34 78.9619 126.909 79.4393 126.379C79.9166 125.848 80.321 125.265 80.6525 124.628L80.8912 124.808C80.5332 125.603 80.0757 126.293 79.5188 126.876C78.9752 127.46 78.3785 127.91 77.7287 128.229C77.0922 128.56 76.4425 128.726 75.7795 128.726ZM74.8049 125.384C75.1629 125.265 75.5673 125.093 76.0182 124.867C76.469 124.628 76.9 124.35 77.311 124.032C77.7353 123.714 78.0801 123.362 78.3453 122.978C78.6238 122.593 78.763 122.189 78.763 121.764C78.763 121.618 78.7365 121.506 78.6834 121.426C78.6304 121.347 78.5177 121.307 78.3453 121.307C78.0271 121.307 77.6889 121.433 77.3309 121.685C76.9729 121.923 76.6281 122.242 76.2966 122.639C75.9651 123.037 75.6668 123.475 75.4016 123.952C75.1364 124.43 74.9375 124.907 74.8049 125.384ZM87.1521 129.581C86.8206 129.581 86.509 129.488 86.2172 129.303C85.9255 129.117 85.7797 128.878 85.7797 128.587C85.7797 128.441 85.8128 128.262 85.8791 128.05C85.9454 127.851 86.0051 127.665 86.0581 127.493C86.4824 126.193 86.8802 124.98 87.2515 123.853C87.6228 122.726 87.9941 121.632 88.3654 120.571C88.7366 119.51 89.1278 118.449 89.5389 117.389C89.9632 116.328 90.4339 115.221 90.9511 114.067C90.4472 114.16 89.9963 114.299 89.5985 114.485C89.214 114.657 88.9024 114.816 88.6637 114.962C88.425 115.095 88.2659 115.161 88.1863 115.161C88.1333 115.161 88.0537 115.134 87.9477 115.081C87.8548 115.015 87.7687 114.942 87.6891 114.863C87.6095 114.77 87.5698 114.69 87.5698 114.624C87.9145 114.478 88.3189 114.319 88.783 114.146C89.2604 113.974 89.7709 113.828 90.3146 113.709C90.8582 113.59 91.4085 113.53 91.9654 113.53C92.5489 113.53 93.139 113.609 93.7357 113.769C94.3456 113.928 94.9025 114.173 95.4064 114.504C95.9103 114.823 96.3147 115.221 96.6197 115.698C96.9247 116.175 97.0772 116.732 97.0772 117.369C97.0772 118.058 96.9247 118.655 96.6197 119.159C96.3147 119.649 95.9103 120.067 95.4064 120.412C94.9025 120.743 94.3589 121.015 93.7754 121.227C93.192 121.426 92.6086 121.585 92.0251 121.705C91.4549 121.811 90.9444 121.884 90.4936 121.923C90.0427 121.95 89.7112 121.963 89.4991 121.963H89.3002C88.9024 123.329 88.5178 124.675 88.1466 126.001C87.7885 127.327 87.457 128.52 87.1521 129.581ZM89.3797 121.645C90.109 121.605 90.845 121.486 91.5875 121.287C92.3434 121.088 93.0329 120.803 93.6561 120.432C94.2793 120.047 94.7832 119.576 95.1677 119.02C95.5523 118.449 95.7445 117.786 95.7445 117.031C95.7445 116.314 95.5722 115.731 95.2274 115.28C94.8959 114.829 94.4517 114.498 93.8948 114.286C93.3511 114.06 92.7677 113.948 92.1445 113.948C91.6538 114.916 91.1765 116.076 90.7124 117.428C90.2483 118.781 89.8041 120.186 89.3797 121.645ZM96.9903 128.726C96.1815 128.726 95.5715 128.5 95.1604 128.05C94.7626 127.612 94.5637 127.068 94.5637 126.419C94.5637 125.822 94.7096 125.192 95.0013 124.529C95.3063 123.866 95.7041 123.243 96.1947 122.659C96.6986 122.076 97.2489 121.605 97.8456 121.247C98.4423 120.876 99.0324 120.69 99.6158 120.69C99.9208 120.69 100.199 120.77 100.451 120.929C100.716 121.088 100.849 121.413 100.849 121.904C100.849 122.407 100.696 122.885 100.392 123.336C100.1 123.773 99.7086 124.164 99.218 124.509C98.7406 124.854 98.2102 125.139 97.6268 125.364C97.0566 125.577 96.4864 125.709 95.9163 125.762C95.8897 125.895 95.8698 126.021 95.8566 126.14C95.8433 126.259 95.8367 126.372 95.8367 126.478C95.8367 126.677 95.8566 126.876 95.8964 127.075C95.9494 127.274 96.0356 127.46 96.1549 127.632C96.2743 127.791 96.4334 127.917 96.6323 128.01C96.8445 128.103 97.103 128.149 97.408 128.149C97.9782 128.149 98.5417 127.99 99.0987 127.672C99.6556 127.34 100.173 126.909 100.65 126.379C101.127 125.848 101.532 125.265 101.863 124.628L102.102 124.808C101.744 125.603 101.287 126.293 100.73 126.876C100.186 127.46 99.5893 127.91 98.9395 128.229C98.3031 128.56 97.6533 128.726 96.9903 128.726ZM96.0157 125.384C96.3737 125.265 96.7782 125.093 97.229 124.867C97.6798 124.628 98.1108 124.35 98.5218 124.032C98.9462 123.714 99.2909 123.362 99.5561 122.978C99.8346 122.593 99.9738 122.189 99.9738 121.764C99.9738 121.618 99.9473 121.506 99.8943 121.426C99.8412 121.347 99.7285 121.307 99.5561 121.307C99.2379 121.307 98.8998 121.433 98.5417 121.685C98.1837 121.923 97.839 122.242 97.5075 122.639C97.176 123.037 96.8776 123.475 96.6124 123.952C96.3472 124.43 96.1483 124.907 96.0157 125.384ZM104.907 128.368C104.456 128.368 104.098 128.248 103.833 128.01C103.581 127.771 103.455 127.46 103.455 127.075C103.455 126.677 103.548 126.259 103.733 125.822C103.919 125.384 104.098 124.953 104.27 124.529C104.456 124.091 104.549 123.7 104.549 123.356C104.549 122.931 104.423 122.62 104.171 122.421C103.932 122.209 103.687 122.016 103.435 121.844C103.13 122.626 102.812 123.369 102.48 124.072C102.149 124.774 101.877 125.305 101.665 125.663L101.486 125.325C101.671 124.98 101.91 124.476 102.202 123.813C102.507 123.15 102.805 122.394 103.097 121.546C102.964 121.413 102.898 121.254 102.898 121.068C102.898 120.67 103.011 120.346 103.236 120.094C103.461 119.842 103.627 119.716 103.733 119.716C103.879 119.716 103.959 119.782 103.972 119.915C103.998 120.034 104.012 120.127 104.012 120.193C104.012 120.259 103.972 120.392 103.892 120.591C103.826 120.776 103.793 120.889 103.793 120.929C103.793 121.115 103.892 121.287 104.091 121.446C104.303 121.592 104.542 121.764 104.807 121.963C105.072 122.149 105.304 122.381 105.503 122.659C105.716 122.925 105.822 123.269 105.822 123.694C105.822 124.091 105.735 124.496 105.563 124.907C105.404 125.318 105.238 125.709 105.066 126.08C104.907 126.452 104.827 126.777 104.827 127.055C104.827 127.294 104.887 127.453 105.006 127.532C105.125 127.612 105.265 127.652 105.424 127.652C105.742 127.652 106.067 127.552 106.398 127.353C106.743 127.155 107.075 126.903 107.393 126.598C107.711 126.293 107.996 125.974 108.248 125.643C108.5 125.298 108.686 124.98 108.805 124.688L109.064 124.887C108.812 125.444 108.467 125.994 108.029 126.538C107.592 127.068 107.101 127.506 106.558 127.851C106.027 128.195 105.477 128.368 104.907 128.368ZM110.469 128.865C109.846 128.865 109.349 128.726 108.977 128.447C108.619 128.182 108.367 127.851 108.221 127.453C108.062 127.055 107.983 126.657 107.983 126.259C107.983 125.862 108.036 125.557 108.142 125.345C108.248 125.132 108.374 124.973 108.52 124.867C108.679 124.761 108.825 124.682 108.957 124.628C109.103 124.575 109.203 124.522 109.256 124.469C109.654 124.032 110.018 123.574 110.35 123.097C110.681 122.62 110.973 122.116 111.225 121.585V121.347C111.225 120.856 111.304 120.511 111.464 120.312C111.636 120.1 111.815 119.994 112.001 119.994C112.107 119.994 112.186 120.021 112.239 120.074C112.292 120.127 112.319 120.186 112.319 120.253C112.319 120.319 112.299 120.425 112.259 120.571C112.219 120.717 112.199 120.902 112.199 121.128C112.199 121.565 112.286 122.043 112.458 122.56C112.63 123.064 112.803 123.601 112.975 124.171C113.148 124.728 113.234 125.311 113.234 125.921C113.234 126.094 113.221 126.266 113.194 126.438C113.181 126.598 113.154 126.75 113.114 126.896C113.579 126.816 114.016 126.611 114.427 126.279C114.838 125.935 115.236 125.391 115.621 124.648L115.8 124.847C115.548 125.577 115.17 126.134 114.666 126.518C114.162 126.889 113.612 127.121 113.015 127.214C112.803 127.784 112.465 128.202 112.001 128.467C111.55 128.732 111.039 128.865 110.469 128.865ZM110.509 128.169C110.668 128.169 110.88 128.116 111.145 128.01C111.411 127.904 111.616 127.632 111.762 127.194C111.205 127.088 110.708 126.869 110.27 126.538C109.846 126.206 109.528 125.875 109.315 125.543C109.024 125.557 108.878 125.789 108.878 126.24C108.878 126.717 109.017 127.161 109.296 127.572C109.587 127.97 109.992 128.169 110.509 128.169ZM111.861 126.876C111.888 126.743 111.908 126.604 111.921 126.458C111.934 126.313 111.941 126.14 111.941 125.941C111.941 125.318 111.861 124.701 111.702 124.091C111.556 123.468 111.43 122.885 111.324 122.341C111.019 122.845 110.694 123.329 110.35 123.793C110.018 124.244 109.7 124.622 109.395 124.927C109.594 125.351 109.899 125.749 110.31 126.12C110.734 126.492 111.251 126.743 111.861 126.876ZM116.61 128.487C116.039 128.487 115.635 128.308 115.396 127.95C115.158 127.605 115.038 127.181 115.038 126.677C115.038 126.266 115.105 125.842 115.237 125.404C115.37 124.967 115.542 124.556 115.754 124.171C115.98 123.786 116.225 123.475 116.49 123.236C116.769 122.998 117.047 122.878 117.326 122.878C117.392 122.878 117.458 122.891 117.525 122.918C117.604 122.931 117.677 122.951 117.743 122.978C117.624 123.084 117.478 123.283 117.306 123.574C117.147 123.853 116.994 124.178 116.848 124.549C116.702 124.907 116.576 125.265 116.47 125.623C116.378 125.981 116.331 126.286 116.331 126.538C116.331 126.936 116.397 127.227 116.53 127.413C116.663 127.585 116.835 127.672 117.047 127.672C117.326 127.672 117.657 127.526 118.042 127.234C118.426 126.929 118.804 126.545 119.175 126.08C118.804 125.775 118.512 125.378 118.3 124.887C118.101 124.383 118.002 123.873 118.002 123.356C118.002 122.918 118.075 122.507 118.221 122.122C118.38 121.738 118.605 121.433 118.897 121.207C119.189 120.969 119.54 120.849 119.951 120.849C120.495 120.849 120.859 120.995 121.045 121.287C121.231 121.579 121.324 121.943 121.324 122.381C121.324 122.898 121.198 123.475 120.946 124.111C120.694 124.735 120.375 125.338 119.991 125.921C120.23 126.054 120.482 126.12 120.747 126.12C120.959 126.12 121.198 126.08 121.463 126.001C121.728 125.908 121.987 125.756 122.238 125.543C122.504 125.331 122.716 125.046 122.875 124.688L123.114 124.887C122.848 125.51 122.471 125.954 121.98 126.22C121.503 126.472 121.045 126.598 120.608 126.598C120.435 126.598 120.269 126.584 120.11 126.558C119.951 126.518 119.799 126.465 119.653 126.399C119.202 126.995 118.705 127.493 118.161 127.89C117.631 128.288 117.114 128.487 116.61 128.487ZM119.533 125.563C119.865 125.073 120.137 124.562 120.349 124.032C120.574 123.488 120.687 122.978 120.687 122.5C120.687 122.116 120.627 121.837 120.508 121.665C120.402 121.479 120.263 121.386 120.09 121.386C119.825 121.386 119.553 121.579 119.275 121.963C118.996 122.348 118.857 122.832 118.857 123.415C118.857 123.8 118.91 124.191 119.016 124.589C119.136 124.973 119.308 125.298 119.533 125.563ZM128.926 128.248C128.462 128.248 128.111 128.129 127.872 127.89C127.647 127.652 127.534 127.347 127.534 126.976C127.534 126.697 127.58 126.405 127.673 126.1C127.779 125.795 127.879 125.484 127.971 125.166C128.064 124.834 128.111 124.516 128.111 124.211C128.111 123.84 128.031 123.588 127.872 123.455C127.726 123.309 127.541 123.236 127.315 123.236C126.904 123.236 126.486 123.409 126.062 123.753C125.638 124.085 125.227 124.516 124.829 125.046C124.431 125.563 124.06 126.1 123.715 126.657C123.37 127.214 123.065 127.711 122.8 128.149C122.588 128.149 122.389 128.109 122.203 128.03C122.004 127.963 121.852 127.857 121.746 127.711C121.746 127.645 121.819 127.44 121.965 127.095C122.097 126.75 122.256 126.326 122.442 125.822C122.628 125.318 122.793 124.801 122.939 124.27C123.085 123.74 123.158 123.256 123.158 122.819C123.238 122.726 123.364 122.633 123.536 122.54C123.708 122.447 123.887 122.401 124.073 122.401C124.431 122.401 124.61 122.573 124.61 122.918C124.61 123.13 124.55 123.488 124.431 123.992C124.312 124.483 124.159 125 123.974 125.543C124.332 125 124.729 124.463 125.167 123.932C125.618 123.389 126.095 122.938 126.599 122.58C127.103 122.222 127.607 122.043 128.111 122.043C128.628 122.043 128.999 122.228 129.225 122.6C129.463 122.971 129.583 123.382 129.583 123.833C129.583 124.244 129.516 124.628 129.384 124.987C129.251 125.331 129.112 125.669 128.966 126.001C128.833 126.319 128.767 126.644 128.767 126.976C128.767 127.254 128.82 127.453 128.926 127.572C129.046 127.678 129.191 127.731 129.364 127.731C129.695 127.731 130.027 127.579 130.358 127.274C130.69 126.956 131.008 126.558 131.313 126.08C131.631 125.603 131.91 125.119 132.148 124.628L132.367 124.887C132.089 125.537 131.777 126.114 131.432 126.617C131.088 127.121 130.71 127.519 130.299 127.811C129.888 128.103 129.43 128.248 128.926 128.248ZM132.722 128.786C132.311 128.786 131.966 128.646 131.687 128.368C131.396 128.103 131.25 127.692 131.25 127.135C131.25 126.657 131.356 126.147 131.568 125.603C131.78 125.046 132.072 124.503 132.443 123.972C132.814 123.428 133.232 122.938 133.696 122.5C134.174 122.049 134.671 121.691 135.188 121.426C135.718 121.161 136.242 121.028 136.759 121.028C137.276 121.028 137.707 121.168 138.052 121.446C138.397 121.711 138.569 122.069 138.569 122.52C138.569 122.852 138.476 123.077 138.291 123.196C138.118 123.316 137.886 123.375 137.595 123.375C137.621 123.269 137.641 123.157 137.654 123.037C137.681 122.905 137.694 122.785 137.694 122.679C137.694 122.374 137.621 122.116 137.475 121.904C137.329 121.678 137.078 121.565 136.72 121.565C136.348 121.565 135.97 121.698 135.586 121.963C135.201 122.215 134.83 122.56 134.472 122.998C134.114 123.422 133.796 123.886 133.517 124.39C133.239 124.894 133.02 125.391 132.861 125.882C132.702 126.372 132.622 126.81 132.622 127.194C132.622 127.711 132.801 127.97 133.159 127.97C133.464 127.97 133.796 127.831 134.154 127.552C134.512 127.261 134.876 126.896 135.248 126.458C135.632 126.008 135.997 125.543 136.342 125.066C136.686 124.589 136.991 124.151 137.257 123.753C137.31 123.674 137.343 123.634 137.356 123.634C137.436 123.647 137.535 123.674 137.654 123.714C137.787 123.753 137.9 123.806 137.992 123.873C138.085 123.939 138.132 124.025 138.132 124.131C138.132 124.251 138.072 124.416 137.953 124.628C137.833 124.827 137.701 125.059 137.555 125.325C137.409 125.59 137.276 125.862 137.157 126.14C137.038 126.405 136.978 126.657 136.978 126.896C136.978 127.095 137.031 127.294 137.137 127.493C137.243 127.678 137.416 127.771 137.654 127.771C138.012 127.771 138.483 127.513 139.067 126.995C139.65 126.465 140.24 125.676 140.837 124.628L141.036 124.827C140.757 125.543 140.399 126.173 139.962 126.717C139.524 127.261 139.053 127.685 138.549 127.99C138.059 128.295 137.575 128.447 137.097 128.447C136.607 128.447 136.242 128.302 136.003 128.01C135.778 127.718 135.665 127.4 135.665 127.055C135.665 126.976 135.672 126.889 135.685 126.797C135.698 126.69 135.712 126.584 135.725 126.478C135.155 127.247 134.631 127.824 134.154 128.209C133.69 128.593 133.212 128.786 132.722 128.786ZM142.081 128.447C141.511 128.447 141.1 128.248 140.848 127.851C140.609 127.466 140.49 126.982 140.49 126.399C140.49 125.762 140.609 125.006 140.848 124.131C141.086 123.256 141.398 122.335 141.782 121.367C142.18 120.399 142.611 119.457 143.075 118.542C143.539 117.614 144.003 116.772 144.468 116.016C144.932 115.26 145.356 114.657 145.741 114.206C146.138 113.755 146.45 113.53 146.675 113.53C146.821 113.53 146.941 113.616 147.033 113.788C147.126 113.948 147.199 114.146 147.252 114.385C147.305 114.611 147.332 114.816 147.332 115.002C147.332 115.36 147.239 115.83 147.053 116.414C146.881 116.984 146.629 117.627 146.297 118.343C145.979 119.046 145.595 119.762 145.144 120.491C144.706 121.207 144.222 121.897 143.692 122.56C143.175 123.223 142.624 123.793 142.041 124.27C141.961 124.628 141.895 124.98 141.842 125.325C141.802 125.656 141.782 125.974 141.782 126.279C141.782 126.797 141.855 127.181 142.001 127.433C142.147 127.685 142.366 127.811 142.658 127.811C143.016 127.811 143.367 127.652 143.712 127.334C144.07 127.015 144.401 126.617 144.706 126.14C145.025 125.65 145.296 125.146 145.522 124.628L145.82 124.788C145.29 125.915 144.713 126.81 144.09 127.473C143.466 128.123 142.797 128.447 142.081 128.447ZM142.22 123.594C142.684 123.13 143.135 122.6 143.573 122.003C144.01 121.393 144.415 120.763 144.786 120.113C145.17 119.464 145.508 118.834 145.8 118.224C146.092 117.614 146.317 117.07 146.476 116.593C146.636 116.102 146.715 115.724 146.715 115.459C146.715 115.327 146.695 115.24 146.655 115.201C146.629 115.161 146.602 115.141 146.576 115.141C146.47 115.141 146.284 115.313 146.019 115.658C145.767 115.99 145.469 116.44 145.124 117.011C144.779 117.581 144.428 118.231 144.07 118.96C143.712 119.689 143.367 120.452 143.036 121.247C142.717 122.043 142.445 122.825 142.22 123.594ZM146.563 128.368C146.045 128.368 145.661 128.202 145.409 127.871C145.157 127.552 145.031 127.161 145.031 126.697C145.031 126.392 145.084 126.008 145.19 125.543C145.309 125.079 145.462 124.595 145.648 124.091C145.833 123.574 146.045 123.09 146.284 122.639C146.536 122.189 146.801 121.824 147.08 121.546C147.358 121.254 147.63 121.108 147.895 121.108C148.015 121.108 148.114 121.148 148.194 121.227C148.286 121.294 148.333 121.4 148.333 121.546C148.333 121.705 148.227 121.963 148.015 122.321C147.816 122.679 147.577 123.09 147.298 123.554C147.02 124.019 146.775 124.509 146.563 125.026C146.364 125.53 146.264 126.014 146.264 126.478C146.264 126.956 146.344 127.274 146.503 127.433C146.662 127.592 146.907 127.672 147.239 127.672C147.69 127.672 148.167 127.446 148.671 126.995C149.188 126.545 149.732 125.756 150.302 124.628L150.481 124.827C150.096 125.968 149.539 126.843 148.81 127.453C148.094 128.063 147.345 128.368 146.563 128.368ZM148.949 119.258C148.737 119.258 148.545 119.205 148.373 119.099C148.213 118.993 148.134 118.827 148.134 118.602C148.134 118.323 148.293 118.085 148.611 117.886C148.943 117.674 149.268 117.568 149.586 117.568C149.785 117.568 149.944 117.614 150.063 117.707C150.183 117.8 150.242 117.959 150.242 118.184C150.242 118.436 150.103 118.681 149.825 118.92C149.559 119.145 149.268 119.258 148.949 119.258ZM149.829 133.42C149.418 133.42 149.099 133.34 148.874 133.181C148.635 133.035 148.516 132.777 148.516 132.405C148.516 131.981 148.662 131.583 148.954 131.212C149.232 130.854 149.61 130.509 150.087 130.178C150.565 129.846 151.088 129.508 151.659 129.163C152.242 128.832 152.819 128.474 153.389 128.089C153.389 127.612 153.29 127.174 153.091 126.777C152.892 126.379 152.534 125.974 152.017 125.563C152.481 125.431 152.872 125.199 153.19 124.867C153.522 124.536 153.767 124.171 153.926 123.773C154.098 123.362 154.185 122.984 154.185 122.639C154.185 122.335 154.118 122.083 153.986 121.884C153.866 121.685 153.674 121.585 153.409 121.585C152.971 121.585 152.58 121.751 152.235 122.083C151.891 122.414 151.572 122.852 151.281 123.395C150.989 123.939 150.691 124.536 150.386 125.185L150.147 124.987C150.439 124.191 150.737 123.482 151.042 122.858C151.36 122.235 151.732 121.744 152.156 121.386C152.58 121.015 153.091 120.83 153.687 120.83C154.138 120.83 154.523 120.975 154.841 121.267C155.172 121.559 155.338 121.957 155.338 122.46C155.338 122.938 155.226 123.382 155 123.793C154.775 124.204 154.483 124.569 154.125 124.887C153.767 125.192 153.389 125.444 152.991 125.643C153.336 125.908 153.621 126.193 153.846 126.498C154.085 126.79 154.264 127.101 154.384 127.433C154.887 127.048 155.332 126.631 155.716 126.18C156.114 125.716 156.406 125.199 156.591 124.628L156.81 124.867C156.624 125.464 156.326 126.008 155.915 126.498C155.504 126.976 155.033 127.413 154.503 127.811C154.529 127.904 154.549 128.01 154.563 128.129C154.576 128.248 154.582 128.361 154.582 128.467C154.582 129.064 154.45 129.654 154.185 130.237C153.919 130.834 153.561 131.371 153.111 131.849C152.66 132.326 152.149 132.704 151.579 132.982C151.022 133.274 150.439 133.42 149.829 133.42ZM149.689 132.843C149.928 132.843 150.24 132.744 150.624 132.545C151.009 132.359 151.4 132.081 151.798 131.709C152.196 131.351 152.54 130.907 152.832 130.377C153.124 129.846 153.303 129.236 153.369 128.547C152.839 128.878 152.315 129.19 151.798 129.482C151.294 129.787 150.836 130.078 150.425 130.357C150.014 130.649 149.689 130.94 149.451 131.232C149.199 131.537 149.073 131.855 149.073 132.187C149.073 132.412 149.133 132.578 149.252 132.684C149.371 132.79 149.517 132.843 149.689 132.843ZM157.196 128.786C156.785 128.786 156.44 128.646 156.161 128.368C155.87 128.103 155.724 127.692 155.724 127.135C155.724 126.657 155.83 126.147 156.042 125.603C156.254 125.046 156.546 124.503 156.917 123.972C157.288 123.428 157.706 122.938 158.17 122.5C158.648 122.049 159.145 121.691 159.662 121.426C160.192 121.161 160.716 121.028 161.233 121.028C161.75 121.028 162.181 121.168 162.526 121.446C162.871 121.711 163.043 122.069 163.043 122.52C163.043 122.852 162.95 123.077 162.765 123.196C162.592 123.316 162.36 123.375 162.069 123.375C162.095 123.269 162.115 123.157 162.128 123.037C162.155 122.905 162.168 122.785 162.168 122.679C162.168 122.374 162.095 122.116 161.949 121.904C161.803 121.678 161.552 121.565 161.194 121.565C160.822 121.565 160.444 121.698 160.06 121.963C159.675 122.215 159.304 122.56 158.946 122.998C158.588 123.422 158.27 123.886 157.991 124.39C157.713 124.894 157.494 125.391 157.335 125.882C157.176 126.372 157.096 126.81 157.096 127.194C157.096 127.711 157.275 127.97 157.633 127.97C157.938 127.97 158.27 127.831 158.628 127.552C158.986 127.261 159.35 126.896 159.722 126.458C160.106 126.008 160.471 125.543 160.816 125.066C161.16 124.589 161.465 124.151 161.731 123.753C161.784 123.674 161.817 123.634 161.83 123.634C161.91 123.647 162.009 123.674 162.128 123.714C162.261 123.753 162.374 123.806 162.466 123.873C162.559 123.939 162.606 124.025 162.606 124.131C162.606 124.251 162.546 124.416 162.427 124.628C162.307 124.827 162.175 125.059 162.029 125.325C161.883 125.59 161.75 125.862 161.631 126.14C161.512 126.405 161.452 126.657 161.452 126.896C161.452 127.095 161.505 127.294 161.611 127.493C161.717 127.678 161.89 127.771 162.128 127.771C162.486 127.771 162.957 127.513 163.541 126.995C164.124 126.465 164.714 125.676 165.311 124.628L165.51 124.827C165.231 125.543 164.873 126.173 164.436 126.717C163.998 127.261 163.527 127.685 163.023 127.99C162.533 128.295 162.049 128.447 161.571 128.447C161.081 128.447 160.716 128.302 160.477 128.01C160.252 127.718 160.139 127.4 160.139 127.055C160.139 126.976 160.146 126.889 160.159 126.797C160.173 126.69 160.186 126.584 160.199 126.478C159.629 127.247 159.105 127.824 158.628 128.209C158.164 128.593 157.686 128.786 157.196 128.786ZM166.077 128.447C165.852 128.447 165.62 128.388 165.381 128.268C165.156 128.162 164.97 127.983 164.824 127.731C164.665 127.479 164.586 127.161 164.586 126.777C164.586 126.339 164.692 125.848 164.904 125.305C165.116 124.761 165.401 124.224 165.759 123.694C166.117 123.15 166.528 122.653 166.992 122.202C167.456 121.738 167.94 121.373 168.444 121.108C168.948 120.83 169.445 120.69 169.936 120.69C170.215 120.69 170.427 120.743 170.573 120.849C170.732 120.942 170.811 121.095 170.811 121.307C170.811 121.36 170.805 121.406 170.791 121.446C170.791 121.486 170.785 121.532 170.771 121.585C170.705 121.479 170.606 121.406 170.473 121.367C170.354 121.313 170.201 121.287 170.016 121.287C169.591 121.287 169.174 121.42 168.763 121.685C168.365 121.937 167.994 122.275 167.649 122.699C167.317 123.11 167.026 123.554 166.774 124.032C166.522 124.509 166.323 124.973 166.177 125.424C166.044 125.862 165.978 126.233 165.978 126.538C165.978 126.83 166.044 127.062 166.177 127.234C166.31 127.406 166.482 127.493 166.694 127.493C167.052 127.493 167.483 127.267 167.987 126.816C168.504 126.366 169.028 125.729 169.558 124.907C170.089 124.085 170.566 123.123 170.99 122.023C171.282 121.254 171.58 120.471 171.885 119.676C172.204 118.88 172.522 118.118 172.84 117.389C173.158 116.646 173.463 115.99 173.755 115.419C174.06 114.836 174.345 114.379 174.61 114.047C174.889 113.702 175.134 113.53 175.346 113.53C175.452 113.53 175.545 113.576 175.625 113.669C175.704 113.749 175.744 113.855 175.744 113.987C175.744 114.2 175.631 114.564 175.406 115.081C175.194 115.585 174.909 116.195 174.551 116.911C174.206 117.614 173.841 118.383 173.457 119.218C173.072 120.054 172.701 120.902 172.343 121.764C171.998 122.626 171.713 123.462 171.488 124.27C171.275 125.066 171.169 125.795 171.169 126.458C171.169 126.83 171.189 127.108 171.229 127.294C171.269 127.479 171.401 127.572 171.627 127.572C171.905 127.572 172.23 127.453 172.601 127.214C172.973 126.976 173.344 126.637 173.715 126.2C174.086 125.762 174.411 125.238 174.69 124.628L174.929 124.808C174.677 125.484 174.332 126.094 173.894 126.637C173.457 127.168 172.986 127.585 172.482 127.89C171.991 128.209 171.521 128.368 171.07 128.368C170.579 128.368 170.234 128.202 170.036 127.871C169.85 127.552 169.757 127.221 169.757 126.876C169.757 126.651 169.79 126.352 169.857 125.981C169.923 125.61 170.016 125.199 170.135 124.748C169.711 125.451 169.26 126.087 168.782 126.657C168.305 127.214 167.834 127.652 167.37 127.97C166.919 128.288 166.489 128.447 166.077 128.447ZM175.677 128.487C175.107 128.487 174.703 128.308 174.464 127.95C174.226 127.605 174.106 127.181 174.106 126.677C174.106 126.266 174.172 125.842 174.305 125.404C174.438 124.967 174.61 124.556 174.822 124.171C175.048 123.786 175.293 123.475 175.558 123.236C175.837 122.998 176.115 122.878 176.394 122.878C176.46 122.878 176.526 122.891 176.592 122.918C176.672 122.931 176.745 122.951 176.811 122.978C176.692 123.084 176.546 123.283 176.374 123.574C176.215 123.853 176.062 124.178 175.916 124.549C175.77 124.907 175.644 125.265 175.538 125.623C175.445 125.981 175.399 126.286 175.399 126.538C175.399 126.936 175.465 127.227 175.598 127.413C175.731 127.585 175.903 127.672 176.115 127.672C176.394 127.672 176.725 127.526 177.11 127.234C177.494 126.929 177.872 126.545 178.243 126.08C177.872 125.775 177.58 125.378 177.368 124.887C177.169 124.383 177.07 123.873 177.07 123.356C177.07 122.918 177.143 122.507 177.289 122.122C177.448 121.738 177.673 121.433 177.965 121.207C178.257 120.969 178.608 120.849 179.019 120.849C179.563 120.849 179.927 120.995 180.113 121.287C180.299 121.579 180.391 121.943 180.391 122.381C180.391 122.898 180.265 123.475 180.013 124.111C179.762 124.735 179.443 125.338 179.059 125.921C179.297 126.054 179.549 126.12 179.815 126.12C180.027 126.12 180.265 126.08 180.531 126.001C180.796 125.908 181.054 125.756 181.306 125.543C181.572 125.331 181.784 125.046 181.943 124.688L182.182 124.887C181.916 125.51 181.538 125.954 181.048 126.22C180.57 126.472 180.113 126.598 179.675 126.598C179.503 126.598 179.337 126.584 179.178 126.558C179.019 126.518 178.867 126.465 178.721 126.399C178.27 126.995 177.773 127.493 177.229 127.89C176.698 128.288 176.181 128.487 175.677 128.487ZM178.601 125.563C178.933 125.073 179.205 124.562 179.417 124.032C179.642 123.488 179.755 122.978 179.755 122.5C179.755 122.116 179.695 121.837 179.576 121.665C179.47 121.479 179.331 121.386 179.158 121.386C178.893 121.386 178.621 121.579 178.343 121.963C178.064 122.348 177.925 122.832 177.925 123.415C177.925 123.8 177.978 124.191 178.084 124.589C178.204 124.973 178.376 125.298 178.601 125.563ZM183.658 128.865C183.035 128.865 182.538 128.726 182.166 128.447C181.808 128.182 181.556 127.851 181.41 127.453C181.251 127.055 181.172 126.657 181.172 126.259C181.172 125.862 181.225 125.557 181.331 125.345C181.437 125.132 181.563 124.973 181.709 124.867C181.868 124.761 182.014 124.682 182.146 124.628C182.292 124.575 182.392 124.522 182.445 124.469C182.843 124.032 183.207 123.574 183.539 123.097C183.87 122.62 184.162 122.116 184.414 121.585V121.347C184.414 120.856 184.493 120.511 184.653 120.312C184.825 120.1 185.004 119.994 185.19 119.994C185.296 119.994 185.375 120.021 185.428 120.074C185.481 120.127 185.508 120.186 185.508 120.253C185.508 120.319 185.488 120.425 185.448 120.571C185.408 120.717 185.388 120.902 185.388 121.128C185.388 121.565 185.475 122.043 185.647 122.56C185.819 123.064 185.992 123.601 186.164 124.171C186.337 124.728 186.423 125.311 186.423 125.921C186.423 126.094 186.409 126.266 186.383 126.438C186.37 126.598 186.343 126.75 186.303 126.896C186.767 126.816 187.205 126.611 187.616 126.279C188.027 125.935 188.425 125.391 188.81 124.648L188.989 124.847C188.737 125.577 188.359 126.134 187.855 126.518C187.351 126.889 186.801 127.121 186.204 127.214C185.992 127.784 185.654 128.202 185.19 128.467C184.739 128.732 184.228 128.865 183.658 128.865ZM183.698 128.169C183.857 128.169 184.069 128.116 184.334 128.01C184.599 127.904 184.805 127.632 184.951 127.194C184.394 127.088 183.897 126.869 183.459 126.538C183.035 126.206 182.717 125.875 182.504 125.543C182.213 125.557 182.067 125.789 182.067 126.24C182.067 126.717 182.206 127.161 182.485 127.572C182.776 127.97 183.181 128.169 183.698 128.169ZM185.05 126.876C185.077 126.743 185.097 126.604 185.11 126.458C185.123 126.313 185.13 126.14 185.13 125.941C185.13 125.318 185.05 124.701 184.891 124.091C184.745 123.468 184.619 122.885 184.513 122.341C184.208 122.845 183.883 123.329 183.539 123.793C183.207 124.244 182.889 124.622 182.584 124.927C182.783 125.351 183.088 125.749 183.499 126.12C183.923 126.492 184.44 126.743 185.05 126.876Z" fill="#231F20"/>
<path d="M86.3329 146.82H85.7728C85.7397 146.659 85.6817 146.517 85.5989 146.395C85.5176 146.273 85.4182 146.171 85.3008 146.088C85.1849 146.004 85.0561 145.941 84.9146 145.899C84.7731 145.856 84.6255 145.835 84.4719 145.835C84.1919 145.835 83.9382 145.906 83.7108 146.048C83.4849 146.189 83.305 146.398 83.171 146.673C83.0385 146.949 82.9723 147.287 82.9723 147.687C82.9723 148.088 83.0385 148.426 83.171 148.701C83.305 148.977 83.4849 149.185 83.7108 149.327C83.9382 149.468 84.1919 149.539 84.4719 149.539C84.6255 149.539 84.7731 149.518 84.9146 149.476C85.0561 149.434 85.1849 149.371 85.3008 149.289C85.4182 149.204 85.5176 149.101 85.5989 148.979C85.6817 148.856 85.7397 148.714 85.7728 148.555H86.3329C86.2908 148.791 86.214 149.002 86.1026 149.189C85.9912 149.376 85.8526 149.535 85.687 149.666C85.5214 149.795 85.3354 149.894 85.1291 149.962C84.9244 150.029 84.7053 150.063 84.4719 150.063C84.0774 150.063 83.7266 149.967 83.4194 149.774C83.1123 149.581 82.8706 149.307 82.6945 148.952C82.5183 148.597 82.4302 148.175 82.4302 147.687C82.4302 147.199 82.5183 146.778 82.6945 146.422C82.8706 146.067 83.1123 145.793 83.4194 145.6C83.7266 145.408 84.0774 145.311 84.4719 145.311C84.7053 145.311 84.9244 145.345 85.1291 145.413C85.3354 145.481 85.5214 145.58 85.687 145.711C85.8526 145.841 85.9912 145.999 86.1026 146.185C86.214 146.371 86.2908 146.582 86.3329 146.82ZM89.352 148.582V146.531H89.885V150H89.352V149.413H89.3159C89.2346 149.589 89.1081 149.739 88.9365 149.862C88.7648 149.984 88.548 150.045 88.286 150.045C88.0692 150.045 87.8765 149.998 87.7078 149.903C87.5392 149.807 87.4067 149.662 87.3103 149.469C87.214 149.275 87.1658 149.03 87.1658 148.735V146.531H87.6988V148.699C87.6988 148.952 87.7695 149.154 87.9111 149.304C88.0541 149.455 88.2363 149.53 88.4576 149.53C88.5901 149.53 88.7249 149.496 88.8619 149.429C89.0004 149.361 89.1164 149.257 89.2097 149.117C89.3046 148.977 89.352 148.798 89.352 148.582ZM90.8613 151.301V146.531H91.3762V147.082H91.4395C91.4786 147.022 91.5328 146.945 91.6021 146.852C91.6728 146.757 91.7737 146.672 91.9047 146.599C92.0372 146.523 92.2164 146.486 92.4422 146.486C92.7343 146.486 92.9918 146.559 93.2147 146.705C93.4375 146.851 93.6114 147.058 93.7364 147.326C93.8613 147.594 93.9238 147.91 93.9238 148.274C93.9238 148.642 93.8613 148.96 93.7364 149.23C93.6114 149.498 93.4383 149.706 93.2169 149.853C92.9956 149.999 92.7404 150.072 92.4513 150.072C92.2284 150.072 92.05 150.035 91.916 149.962C91.782 149.886 91.6789 149.801 91.6066 149.706C91.5343 149.61 91.4786 149.53 91.4395 149.467H91.3943V151.301H90.8613ZM91.3853 148.265C91.3853 148.527 91.4237 148.759 91.5004 148.959C91.5772 149.158 91.6894 149.313 91.837 149.426C91.9845 149.538 92.1652 149.593 92.379 149.593C92.6018 149.593 92.7878 149.535 92.9369 149.417C93.0874 149.298 93.2004 149.139 93.2756 148.938C93.3524 148.737 93.3908 148.512 93.3908 148.265C93.3908 148.022 93.3532 147.802 93.2779 147.606C93.2041 147.409 93.0919 147.253 92.9414 147.138C92.7923 147.023 92.6049 146.965 92.379 146.965C92.1622 146.965 91.98 147.02 91.8324 147.129C91.6849 147.238 91.5735 147.39 91.4982 147.586C91.4229 147.78 91.3853 148.006 91.3853 148.265ZM96.1462 150.072C95.821 150.072 95.5409 149.995 95.3061 149.842C95.0712 149.688 94.8905 149.477 94.764 149.207C94.6375 148.938 94.5743 148.63 94.5743 148.284C94.5743 147.931 94.639 147.62 94.7685 147.351C94.8995 147.08 95.0817 146.868 95.3151 146.716C95.55 146.563 95.824 146.486 96.1372 146.486C96.3811 146.486 96.6009 146.531 96.7967 146.621C96.9924 146.712 97.1528 146.838 97.2777 147.001C97.4027 147.163 97.4803 147.353 97.5104 147.57H96.9774C96.9367 147.412 96.8464 147.272 96.7063 147.15C96.5678 147.026 96.3811 146.965 96.1462 146.965C95.9384 146.965 95.7563 147.019 95.5997 147.127C95.4446 147.234 95.3234 147.385 95.236 147.581C95.1502 147.775 95.1073 148.003 95.1073 148.265C95.1073 148.533 95.1495 148.767 95.2338 148.966C95.3196 149.164 95.4401 149.319 95.5951 149.429C95.7517 149.539 95.9354 149.593 96.1462 149.593C96.2847 149.593 96.4105 149.569 96.5234 149.521C96.6363 149.473 96.7319 149.404 96.8102 149.313C96.8885 149.223 96.9442 149.115 96.9774 148.988H97.5104C97.4803 149.193 97.4057 149.377 97.2868 149.542C97.1693 149.704 97.0135 149.834 96.8193 149.93C96.6265 150.025 96.4022 150.072 96.1462 150.072ZM99.3104 150.081C99.0906 150.081 98.8911 150.04 98.7119 149.957C98.5327 149.873 98.3904 149.752 98.285 149.593C98.1796 149.434 98.1269 149.241 98.1269 149.015C98.1269 148.817 98.1661 148.655 98.2444 148.532C98.3227 148.407 98.4273 148.309 98.5583 148.238C98.6893 148.168 98.8339 148.115 98.992 148.08C99.1516 148.044 99.3119 148.016 99.473 147.994C99.6838 147.967 99.8547 147.947 99.9857 147.933C100.118 147.918 100.215 147.894 100.275 147.859C100.337 147.824 100.367 147.764 100.367 147.678V147.66C100.367 147.437 100.306 147.264 100.184 147.141C100.064 147.017 99.8811 146.956 99.6356 146.956C99.3812 146.956 99.1817 147.011 99.0371 147.123C98.8926 147.234 98.791 147.353 98.7322 147.479L98.2263 147.299C98.3167 147.088 98.4371 146.924 98.5877 146.806C98.7398 146.687 98.9054 146.605 99.0846 146.558C99.2652 146.51 99.4429 146.486 99.6176 146.486C99.729 146.486 99.857 146.499 100.002 146.526C100.148 146.552 100.288 146.605 100.424 146.687C100.561 146.768 100.675 146.891 100.765 147.055C100.855 147.219 100.9 147.439 100.9 147.714V150H100.367V149.53H100.34C100.304 149.606 100.244 149.686 100.16 149.772C100.075 149.858 99.9631 149.931 99.8231 149.991C99.6831 150.051 99.5122 150.081 99.3104 150.081ZM99.3917 149.602C99.6025 149.602 99.7802 149.561 99.9247 149.478C100.071 149.395 100.181 149.289 100.254 149.158C100.33 149.027 100.367 148.889 100.367 148.744V148.256C100.345 148.284 100.295 148.308 100.218 148.331C100.143 148.352 100.056 148.371 99.9564 148.387C99.8585 148.402 99.7629 148.416 99.6695 148.428C99.5777 148.439 99.5031 148.448 99.4459 148.455C99.3074 148.473 99.1779 148.503 99.0575 148.543C98.9385 148.582 98.8421 148.642 98.7684 148.722C98.6961 148.8 98.66 148.907 98.66 149.042C98.66 149.228 98.7285 149.368 98.8655 149.462C99.004 149.556 99.1794 149.602 99.3917 149.602ZM102.37 148.735L102.361 148.076H102.47L103.987 146.531H104.647L103.03 148.166H102.984L102.37 148.735ZM101.873 150V145.375H102.406V150H101.873ZM104.078 150L102.722 148.284L103.102 147.913L104.755 150H104.078ZM106.644 150.072C106.31 150.072 106.022 149.998 105.779 149.851C105.538 149.702 105.353 149.494 105.222 149.228C105.092 148.96 105.027 148.648 105.027 148.293C105.027 147.937 105.092 147.624 105.222 147.353C105.353 147.08 105.535 146.868 105.768 146.716C106.003 146.563 106.277 146.486 106.59 146.486C106.771 146.486 106.949 146.516 107.125 146.576C107.302 146.636 107.462 146.734 107.607 146.87C107.751 147.004 107.866 147.181 107.952 147.403C108.038 147.624 108.081 147.897 108.081 148.22V148.446H105.407V147.985H107.539C107.539 147.79 107.5 147.615 107.421 147.461C107.345 147.308 107.235 147.187 107.092 147.098C106.95 147.009 106.783 146.965 106.59 146.965C106.378 146.965 106.194 147.017 106.039 147.123C105.886 147.227 105.767 147.362 105.685 147.529C105.602 147.696 105.56 147.875 105.56 148.067V148.374C105.56 148.636 105.605 148.858 105.696 149.04C105.788 149.221 105.915 149.359 106.078 149.453C106.24 149.547 106.429 149.593 106.644 149.593C106.784 149.593 106.911 149.574 107.024 149.535C107.138 149.494 107.237 149.434 107.32 149.354C107.403 149.273 107.467 149.172 107.512 149.051L108.027 149.196C107.972 149.371 107.881 149.524 107.753 149.657C107.625 149.788 107.467 149.89 107.279 149.964C107.091 150.036 106.879 150.072 106.644 150.072ZM111.349 147.308L110.87 147.443C110.84 147.364 110.796 147.286 110.737 147.211C110.68 147.134 110.601 147.071 110.502 147.021C110.403 146.971 110.275 146.946 110.12 146.946C109.908 146.946 109.731 146.995 109.59 147.093C109.449 147.19 109.379 147.312 109.379 147.461C109.379 147.594 109.428 147.699 109.524 147.775C109.62 147.852 109.771 147.916 109.976 147.967L110.491 148.094C110.801 148.169 111.032 148.284 111.184 148.439C111.336 148.593 111.412 148.791 111.412 149.033C111.412 149.232 111.355 149.41 111.24 149.566C111.128 149.723 110.969 149.846 110.766 149.937C110.563 150.027 110.327 150.072 110.057 150.072C109.703 150.072 109.41 149.995 109.178 149.842C108.947 149.688 108.8 149.464 108.738 149.169L109.244 149.042C109.292 149.229 109.383 149.369 109.517 149.462C109.653 149.556 109.83 149.602 110.048 149.602C110.296 149.602 110.494 149.55 110.64 149.444C110.787 149.337 110.861 149.21 110.861 149.06C110.861 148.94 110.819 148.839 110.735 148.758C110.65 148.675 110.521 148.613 110.346 148.573L109.768 148.437C109.45 148.362 109.217 148.245 109.068 148.087C108.92 147.927 108.846 147.728 108.846 147.489C108.846 147.293 108.901 147.12 109.011 146.969C109.123 146.818 109.274 146.7 109.465 146.614C109.658 146.529 109.876 146.486 110.12 146.486C110.464 146.486 110.733 146.561 110.929 146.712C111.126 146.862 111.266 147.061 111.349 147.308ZM115.458 150.072C115.123 150.072 114.835 149.998 114.593 149.851C114.352 149.702 114.166 149.494 114.035 149.228C113.905 148.96 113.841 148.648 113.841 148.293C113.841 147.937 113.905 147.624 114.035 147.353C114.166 147.08 114.348 146.868 114.581 146.716C114.816 146.563 115.09 146.486 115.404 146.486C115.584 146.486 115.763 146.516 115.939 146.576C116.115 146.636 116.275 146.734 116.42 146.87C116.564 147.004 116.68 147.181 116.765 147.403C116.851 147.624 116.894 147.897 116.894 148.22V148.446H114.22V147.985H116.352C116.352 147.79 116.313 147.615 116.235 147.461C116.158 147.308 116.048 147.187 115.905 147.098C115.763 147.009 115.596 146.965 115.404 146.965C115.191 146.965 115.008 147.017 114.852 147.123C114.699 147.227 114.581 147.362 114.498 147.529C114.415 147.696 114.374 147.875 114.374 148.067V148.374C114.374 148.636 114.419 148.858 114.509 149.04C114.601 149.221 114.728 149.359 114.891 149.453C115.053 149.547 115.242 149.593 115.458 149.593C115.598 149.593 115.724 149.574 115.837 149.535C115.952 149.494 116.05 149.434 116.133 149.354C116.216 149.273 116.28 149.172 116.325 149.051L116.84 149.196C116.786 149.371 116.695 149.524 116.567 149.657C116.439 149.788 116.281 149.89 116.092 149.964C115.904 150.036 115.693 150.072 115.458 150.072ZM120.993 150H119.566V145.375H121.057C121.505 145.375 121.889 145.467 122.208 145.652C122.528 145.836 122.772 146.1 122.942 146.445C123.113 146.788 123.198 147.199 123.198 147.678C123.198 148.16 123.112 148.575 122.94 148.923C122.769 149.269 122.519 149.535 122.19 149.722C121.862 149.907 121.463 150 120.993 150ZM120.126 149.503H120.957C121.34 149.503 121.657 149.429 121.908 149.282C122.16 149.134 122.347 148.924 122.47 148.652C122.594 148.379 122.656 148.055 122.656 147.678C122.656 147.305 122.595 146.983 122.473 146.714C122.351 146.443 122.169 146.235 121.926 146.09C121.684 145.944 121.382 145.871 121.02 145.871H120.126V149.503ZM125.474 150.072C125.161 150.072 124.886 149.998 124.65 149.849C124.415 149.7 124.231 149.491 124.099 149.223C123.968 148.955 123.902 148.642 123.902 148.284C123.902 147.922 123.968 147.607 124.099 147.337C124.231 147.068 124.415 146.858 124.65 146.709C124.886 146.56 125.161 146.486 125.474 146.486C125.787 146.486 126.061 146.56 126.296 146.709C126.533 146.858 126.716 147.068 126.847 147.337C126.98 147.607 127.046 147.922 127.046 148.284C127.046 148.642 126.98 148.955 126.847 149.223C126.716 149.491 126.533 149.7 126.296 149.849C126.061 149.998 125.787 150.072 125.474 150.072ZM125.474 149.593C125.712 149.593 125.908 149.532 126.061 149.411C126.215 149.289 126.329 149.128 126.403 148.929C126.476 148.731 126.513 148.515 126.513 148.284C126.513 148.052 126.476 147.836 126.403 147.635C126.329 147.435 126.215 147.273 126.061 147.15C125.908 147.026 125.712 146.965 125.474 146.965C125.236 146.965 125.041 147.026 124.887 147.15C124.733 147.273 124.62 147.435 124.546 147.635C124.472 147.836 124.435 148.052 124.435 148.284C124.435 148.515 124.472 148.731 124.546 148.929C124.62 149.128 124.733 149.289 124.887 149.411C125.041 149.532 125.236 149.593 125.474 149.593ZM129.269 150.072C128.944 150.072 128.664 149.995 128.429 149.842C128.194 149.688 128.013 149.477 127.887 149.207C127.76 148.938 127.697 148.63 127.697 148.284C127.697 147.931 127.762 147.62 127.891 147.351C128.022 147.08 128.205 146.868 128.438 146.716C128.673 146.563 128.947 146.486 129.26 146.486C129.504 146.486 129.724 146.531 129.92 146.621C130.115 146.712 130.276 146.838 130.401 147.001C130.526 147.163 130.603 147.353 130.633 147.57H130.1C130.06 147.412 129.969 147.272 129.829 147.15C129.691 147.026 129.504 146.965 129.269 146.965C129.061 146.965 128.879 147.019 128.723 147.127C128.568 147.234 128.446 147.385 128.359 147.581C128.273 147.775 128.23 148.003 128.23 148.265C128.23 148.533 128.272 148.767 128.357 148.966C128.443 149.164 128.563 149.319 128.718 149.429C128.875 149.539 129.058 149.593 129.269 149.593C129.408 149.593 129.533 149.569 129.646 149.521C129.759 149.473 129.855 149.404 129.933 149.313C130.011 149.223 130.067 149.115 130.1 148.988H130.633C130.603 149.193 130.529 149.377 130.41 149.542C130.292 149.704 130.136 149.834 129.942 149.93C129.749 150.025 129.525 150.072 129.269 150.072ZM132.867 150.072C132.533 150.072 132.244 149.998 132.002 149.851C131.761 149.702 131.575 149.494 131.444 149.228C131.315 148.96 131.25 148.648 131.25 148.293C131.25 147.937 131.315 147.624 131.444 147.353C131.575 147.08 131.757 146.868 131.991 146.716C132.226 146.563 132.5 146.486 132.813 146.486C132.993 146.486 133.172 146.516 133.348 146.576C133.524 146.636 133.685 146.734 133.829 146.87C133.974 147.004 134.089 147.181 134.175 147.403C134.26 147.624 134.303 147.897 134.303 148.22V148.446H131.629V147.985H133.761C133.761 147.79 133.722 147.615 133.644 147.461C133.567 147.308 133.457 147.187 133.314 147.098C133.173 147.009 133.006 146.965 132.813 146.965C132.6 146.965 132.417 147.017 132.262 147.123C132.108 147.227 131.99 147.362 131.907 147.529C131.824 147.696 131.783 147.875 131.783 148.067V148.374C131.783 148.636 131.828 148.858 131.918 149.04C132.01 149.221 132.137 149.359 132.3 149.453C132.463 149.547 132.652 149.593 132.867 149.593C133.007 149.593 133.133 149.574 133.246 149.535C133.361 149.494 133.459 149.434 133.542 149.354C133.625 149.273 133.689 149.172 133.734 149.051L134.249 149.196C134.195 149.371 134.104 149.524 133.976 149.657C133.848 149.788 133.69 149.89 133.502 149.964C133.313 150.036 133.102 150.072 132.867 150.072ZM137.571 147.308L137.093 147.443C137.063 147.364 137.018 147.286 136.959 147.211C136.902 147.134 136.824 147.071 136.725 147.021C136.625 146.971 136.498 146.946 136.343 146.946C136.131 146.946 135.954 146.995 135.812 147.093C135.672 147.19 135.602 147.312 135.602 147.461C135.602 147.594 135.65 147.699 135.747 147.775C135.843 147.852 135.994 147.916 136.198 147.967L136.713 148.094C137.023 148.169 137.255 148.284 137.407 148.439C137.559 148.593 137.635 148.791 137.635 149.033C137.635 149.232 137.578 149.41 137.463 149.566C137.35 149.723 137.192 149.846 136.989 149.937C136.786 150.027 136.549 150.072 136.28 150.072C135.926 150.072 135.633 149.995 135.401 149.842C135.169 149.688 135.022 149.464 134.961 149.169L135.467 149.042C135.515 149.229 135.606 149.369 135.74 149.462C135.875 149.556 136.052 149.602 136.271 149.602C136.519 149.602 136.716 149.55 136.862 149.444C137.01 149.337 137.084 149.21 137.084 149.06C137.084 148.94 137.041 148.839 136.957 148.758C136.873 148.675 136.743 148.613 136.569 148.573L135.991 148.437C135.673 148.362 135.439 148.245 135.29 148.087C135.143 147.927 135.069 147.728 135.069 147.489C135.069 147.293 135.124 147.12 135.234 146.969C135.345 146.818 135.497 146.7 135.688 146.614C135.881 146.529 136.099 146.486 136.343 146.486C136.686 146.486 136.956 146.561 137.151 146.712C137.349 146.862 137.489 147.061 137.571 147.308Z" fill="#231F20"/>
</g>
<defs>
<clipPath id="clip0_31_561">
<rect width="220" height="220" fill="white"/>
</clipPath>
</defs>
</svg>
