<svg id="WhatsApp" xmlns="http://www.w3.org/2000/svg" viewBox="0 0 50 50"><defs><style>.cls-1,.cls-2{fill:#ededed;}.cls-2{fill-rule:evenodd;}.cls-3{fill:none;}</style></defs><path class="cls-1" d="M25,0A25,25,0,1,0,50,25,25,25,0,0,0,25,0Zm.06,38.07h0a14.18,14.18,0,0,1-6.78-1.73l-7.52,2,2-7.36a14.19,14.19,0,1,1,12.3,7.11Z"/><path class="cls-2" d="M32.16,27.25c-.09-.14-.33-.23-.68-.41s-2.1-1-2.43-1.15-.56-.18-.8.17a16.07,16.07,0,0,1-1.12,1.39c-.21.24-.41.27-.77.09a9.83,9.83,0,0,1-2.85-1.76,11,11,0,0,1-2-2.45c-.21-.36,0-.55.15-.73s.36-.41.54-.62a2.49,2.49,0,0,0,.35-.59.64.64,0,0,0,0-.62c-.09-.18-.78-1.93-1.09-2.63s-.55-.6-.8-.62H20a1.29,1.29,0,0,0-.94.44,4,4,0,0,0-1.25,3,6.83,6.83,0,0,0,1.45,3.66c.18.24,2.45,3.94,6.06,5.36,3,1.18,3.6.94,4.25.88A3.54,3.54,0,0,0,32,28.94,3.13,3.13,0,0,0,32.16,27.25Z"/><path class="cls-3" d="M32.16,27.25c-.09-.14-.33-.23-.68-.41s-2.1-1-2.43-1.15-.56-.18-.8.17a16.07,16.07,0,0,1-1.12,1.39c-.21.24-.41.27-.77.09a9.83,9.83,0,0,1-2.85-1.76,11,11,0,0,1-2-2.45c-.21-.36,0-.55.15-.73s.36-.41.54-.62a2.49,2.49,0,0,0,.35-.59.64.64,0,0,0,0-.62c-.09-.18-.78-1.93-1.09-2.63s-.55-.6-.8-.62H20a1.29,1.29,0,0,0-.94.44,4,4,0,0,0-1.25,3,6.83,6.83,0,0,0,1.45,3.66c.18.24,2.45,3.94,6.06,5.36,3,1.18,3.6.94,4.25.88A3.54,3.54,0,0,0,32,28.94,3.13,3.13,0,0,0,32.16,27.25Zm0,0c-.09-.14-.33-.23-.68-.41s-2.1-1-2.43-1.15-.56-.18-.8.17a16.07,16.07,0,0,1-1.12,1.39c-.21.24-.41.27-.77.09a9.83,9.83,0,0,1-2.85-1.76,11,11,0,0,1-2-2.45c-.21-.36,0-.55.15-.73s.36-.41.54-.62a2.49,2.49,0,0,0,.35-.59.64.64,0,0,0,0-.62c-.09-.18-.78-1.93-1.09-2.63s-.55-.6-.8-.62H20a1.29,1.29,0,0,0-.94.44,4,4,0,0,0-1.25,3,6.83,6.83,0,0,0,1.45,3.66c.18.24,2.45,3.94,6.06,5.36,3,1.18,3.6.94,4.25.88A3.54,3.54,0,0,0,32,28.94,3.13,3.13,0,0,0,32.16,27.25Zm0,0c-.09-.14-.33-.23-.68-.41s-2.1-1-2.43-1.15-.56-.18-.8.17a16.07,16.07,0,0,1-1.12,1.39c-.21.24-.41.27-.77.09a9.83,9.83,0,0,1-2.85-1.76,11,11,0,0,1-2-2.45c-.21-.36,0-.55.15-.73s.36-.41.54-.62a2.49,2.49,0,0,0,.35-.59.64.64,0,0,0,0-.62c-.09-.18-.78-1.93-1.09-2.63s-.55-.6-.8-.62H20a1.29,1.29,0,0,0-.94.44,4,4,0,0,0-1.25,3,6.83,6.83,0,0,0,1.45,3.66c.18.24,2.45,3.94,6.06,5.36,3,1.18,3.6.94,4.25.88A3.54,3.54,0,0,0,32,28.94,3.13,3.13,0,0,0,32.16,27.25Zm0,0c-.09-.14-.33-.23-.68-.41s-2.1-1-2.43-1.15-.56-.18-.8.17a16.07,16.07,0,0,1-1.12,1.39c-.21.24-.41.27-.77.09a9.83,9.83,0,0,1-2.85-1.76,11,11,0,0,1-2-2.45c-.21-.36,0-.55.15-.73s.36-.41.54-.62a2.49,2.49,0,0,0,.35-.59.64.64,0,0,0,0-.62c-.09-.18-.78-1.93-1.09-2.63s-.55-.6-.8-.62H20a1.29,1.29,0,0,0-.94.44,4,4,0,0,0-1.25,3,6.83,6.83,0,0,0,1.45,3.66c.18.24,2.45,3.94,6.06,5.36,3,1.18,3.6.94,4.25.88A3.54,3.54,0,0,0,32,28.94,3.13,3.13,0,0,0,32.16,27.25Zm3.47-13.93A14.94,14.94,0,0,0,12,31.06L10,38.12a.74.74,0,0,0,.19.72.71.71,0,0,0,.53.22.65.65,0,0,0,.19,0l7.24-1.9A14.94,14.94,0,0,0,35.63,13.32ZM25.06,38.07h0a14.18,14.18,0,0,1-6.78-1.73l-7.52,2,2-7.36a14.19,14.19,0,1,1,12.3,7.11Zm6.42-11.23c-.36-.18-2.1-1-2.43-1.15s-.56-.18-.8.17a16.07,16.07,0,0,1-1.12,1.39c-.21.24-.41.27-.77.09a9.83,9.83,0,0,1-2.85-1.76,11,11,0,0,1-2-2.45c-.21-.36,0-.55.15-.73s.36-.41.54-.62a2.49,2.49,0,0,0,.35-.59.64.64,0,0,0,0-.62c-.09-.18-.78-1.93-1.09-2.63s-.55-.6-.8-.62H20a1.29,1.29,0,0,0-.94.44,4,4,0,0,0-1.25,3,6.83,6.83,0,0,0,1.45,3.66c.18.24,2.45,3.94,6.06,5.36,3,1.18,3.6.94,4.25.88A3.54,3.54,0,0,0,32,28.94a3.13,3.13,0,0,0,.21-1.69C32.07,27.11,31.83,27,31.48,26.84Zm.68.41c-.09-.14-.33-.23-.68-.41s-2.1-1-2.43-1.15-.56-.18-.8.17a16.07,16.07,0,0,1-1.12,1.39c-.21.24-.41.27-.77.09a9.83,9.83,0,0,1-2.85-1.76,11,11,0,0,1-2-2.45c-.21-.36,0-.55.15-.73s.36-.41.54-.62a2.49,2.49,0,0,0,.35-.59.64.64,0,0,0,0-.62c-.09-.18-.78-1.93-1.09-2.63s-.55-.6-.8-.62H20a1.29,1.29,0,0,0-.94.44,4,4,0,0,0-1.25,3,6.83,6.83,0,0,0,1.45,3.66c.18.24,2.45,3.94,6.06,5.36,3,1.18,3.6.94,4.25.88A3.54,3.54,0,0,0,32,28.94,3.13,3.13,0,0,0,32.16,27.25Zm0,0c-.09-.14-.33-.23-.68-.41s-2.1-1-2.43-1.15-.56-.18-.8.17a16.07,16.07,0,0,1-1.12,1.39c-.21.24-.41.27-.77.09a9.83,9.83,0,0,1-2.85-1.76,11,11,0,0,1-2-2.45c-.21-.36,0-.55.15-.73s.36-.41.54-.62a2.49,2.49,0,0,0,.35-.59.64.64,0,0,0,0-.62c-.09-.18-.78-1.93-1.09-2.63s-.55-.6-.8-.62H20a1.29,1.29,0,0,0-.94.44,4,4,0,0,0-1.25,3,6.83,6.83,0,0,0,1.45,3.66c.18.24,2.45,3.94,6.06,5.36,3,1.18,3.6.94,4.25.88A3.54,3.54,0,0,0,32,28.94,3.13,3.13,0,0,0,32.16,27.25Z"/></svg>