<svg id="Instagram" xmlns="http://www.w3.org/2000/svg" viewBox="0 0 50 50"><defs><style>.cls-1,.cls-2{fill:#ededed;}.cls-2{fill-rule:evenodd;}</style></defs><circle class="cls-1" cx="25" cy="25" r="5.77" transform="translate(-3.68 45.67) rotate(-80.78)"/><path class="cls-2" d="M25,0A25,25,0,1,0,50,25,25,25,0,0,0,25,0ZM40,31.92A8.08,8.08,0,0,1,31.92,40H18.08A8.08,8.08,0,0,1,10,31.92V18.08A8.08,8.08,0,0,1,18.08,10H31.92A8.08,8.08,0,0,1,40,18.08ZM31.92,12.31H18.08a5.78,5.78,0,0,0-5.77,5.77V31.92a5.78,5.78,0,0,0,5.77,5.77H31.92a5.78,5.78,0,0,0,5.77-5.77V18.08A5.78,5.78,0,0,0,31.92,12.31ZM25,33.08A8.08,8.08,0,1,1,33.08,25,8.1,8.1,0,0,1,25,33.08Zm8.65-15a1.73,1.73,0,1,1,1.73-1.73A1.74,1.74,0,0,1,33.65,18.08Z"/></svg>