<svg id="Twitter" xmlns="http://www.w3.org/2000/svg" viewBox="0 0 50 50"><defs><style>.cls-1{fill:#ededed;}</style></defs><path class="cls-1" d="M25,0A25,25,0,1,0,50,25,25,25,0,0,0,25,0ZM40,15.78a9.41,9.41,0,0,1-2.52,3c0,.26,0,1.15,0,1.41,0,8.07-6.18,16.72-17.5,16.72a19.47,19.47,0,0,1-10-2.53,10.33,10.33,0,0,0,1.25,0c2.89,0,6.64-.87,8.75-2.5-2.69-.06-6.63-1.34-7.41-3.76a7.84,7.84,0,0,0,3.55-.65c-2.81-.56-4.89-2.57-4.89-5.52v-.07A12,12,0,0,0,15,23.13c-1.65-1.1-3.74-3.41-3.74-5.68a6,6,0,0,1,.83-3.07c3,3.69,7.91,7.5,12.91,7.5v-2.5c0-3.37,2.37-6.25,5.77-6.25a6,6,0,0,1,4.49,1.71A18.24,18.24,0,0,0,40,13.13c-.46,1.42-2.48,3-3.75,3.75A14.64,14.64,0,0,0,40,15.78Z"/></svg>