<svg width="280" height="150" viewBox="0 0 280 150" fill="none" xmlns="http://www.w3.org/2000/svg">
<path d="M0 125.608L7.8 125.037C15.7 124.276 31.3 123.134 46.8 127.13C62.3 131.317 77.7 140.833 93.2 145.972C108.7 150.92 124.3 151.681 140 146.162C155.7 140.833 171.3 129.414 186.8 124.656C202.3 119.898 217.7 121.802 233.2 126.94C248.7 131.888 264.3 140.262 272.2 144.259L280 148.446V0H272.2C264.3 0 248.7 0 233.2 0C217.7 0 202.3 0 186.8 0C171.3 0 155.7 0 140 0C124.3 0 108.7 0 93.2 0C77.7 0 62.3 0 46.8 0C31.3 0 15.7 0 7.8 0H0V125.608Z" fill="#F2BBD5"/>
</svg>
