<svg width="128" height="128" viewBox="0 0 128 128" fill="none" xmlns="http://www.w3.org/2000/svg">
<g clip-path="url(#clip0_154_1334)">
<path d="M32.75 127.75H95.25V112.125C95.2434 106.325 92.9366 100.765 88.8357 96.6643C84.7347 92.5634 79.1746 90.2566 73.375 90.25H54.625C48.8254 90.2566 43.2653 92.5634 39.1643 96.6643C35.0634 100.765 32.7566 106.325 32.75 112.125V127.75ZM42.125 62.125C42.125 66.4515 43.4079 70.6808 45.8116 74.2781C48.2153 77.8754 51.6317 80.6792 55.6288 82.3349C59.6259 83.9905 64.0243 84.4237 68.2676 83.5797C72.5109 82.7356 76.4087 80.6522 79.468 77.593C82.5272 74.5337 84.6106 70.6359 85.4547 66.3926C86.2987 62.1493 85.8655 57.7509 84.2099 53.7538C82.5542 49.7567 79.7504 46.3403 76.1531 43.9366C72.5558 41.5329 68.3265 40.25 64 40.25C58.1984 40.25 52.6344 42.5547 48.532 46.657C44.4297 50.7594 42.125 56.3234 42.125 62.125V62.125Z" fill="black"/>
</g>
<rect x="0.5" y="0.5" width="127" height="127" rx="63.5" stroke="black"/>
<defs>
<clipPath id="clip0_154_1334">
<rect width="128" height="128" rx="64" fill="white"/>
</clipPath>
</defs>
</svg>
